<svg id="Layer_1" data-name="Layer 1" xmlns="http://www.w3.org/2000/svg" viewBox="0 0 922.2 234.3"><defs><style>.cls-1,.cls-7{fill:#ccc;}.cls-2{fill:#00006a;}.cls-3{fill:#316bad;}.cls-4{fill:none;}.cls-5{fill:#006;}.cls-6{fill:#fff;}.cls-7{opacity:0.28;isolation:isolate;}</style></defs><title>Artboard 1</title><path class="cls-1" d="M773,41.2h0a13.34,13.34,0,0,1-3,8.7c-3.5,4.1-16.3,16-17.6,18.1-.4.6.1,4.5,1,9.7l-.3.3.3-.3,2.7-2.7.3-.2s.7-.5,2,.6h0l1.1,1.4a1.23,1.23,0,0,1-.1,1c-.3.3-3.6,3.4-5.1,4.7.2,1.1.4,2.2.7,3.4,0,.2.1.3.1.5a4.05,4.05,0,0,1-.9.5,63,63,0,0,1-7.3,3.8l-.3.1c-.1,0-.2.1-.3.1s-.5.2-.7.3h0l-.3-.6-6.5-8.4v-.1L725.3,94.3s-.6.5-1.5,1.3h-1.4c-1.2,0-2.4,0-3.6-.1-1.4-.1-2.7-.2-4.1-.4,2-2.4,5.2-6.3,5.2-6.3l12.2-13.5-8.4-6.5h-.1l-.6-.3-21.3-11-.7-.4-.4-.2.4-.4,1.1-1.3,1.3-1.4s15.8,3.5,28.3,5.9c1.3-1.5,4.4-4.8,4.7-5.1a1.48,1.48,0,0,1,1.1-.1l1.4,1.1h0c1.1,1.2.6,2,.6,2l-.3.3-2.7,2.7h.1c5.2.9,9,1.4,9.6,1,2-1.3,14-14.1,18.1-17.6a12.67,12.67,0,0,1,8.6-3l.1.2Z"/><path class="cls-2" d="M78.7,70.7A35.61,35.61,0,0,0,63.1,58.1a30.7,30.7,0,0,0,9.8-10.5A28.54,28.54,0,0,0,77,33.4a30.34,30.34,0,0,0-8.9-23.3A30.24,30.24,0,0,0,45.3.4H1.2A1.06,1.06,0,0,0,0,1.6V125a1.06,1.06,0,0,0,1.2,1.2H48.8a35.13,35.13,0,0,0,25.6-10.6A33.47,33.47,0,0,0,84.9,90.2,33.71,33.71,0,0,0,78.7,70.7ZM8.3,8.7H45.4a22.36,22.36,0,0,1,16.5,6.9,22.58,22.58,0,0,1,6.9,16.6,22.36,22.36,0,0,1-6.9,16.5,22.52,22.52,0,0,1-16.5,6.9H8.3V8.7ZM68.8,110a26,26,0,0,1-19.1,8H8.3V63.9H49.7A27.14,27.14,0,0,1,76.8,91,25.92,25.92,0,0,1,68.8,110Z"/><path class="cls-2" d="M109.4,126.3a1.06,1.06,0,0,1-1.2-1.2V1.3c0-.8.4-1.1,1.2-1.1h5.9c.8,0,1.2.4,1.2,1.1V117.9h59a1.06,1.06,0,0,1,1.2,1.2V125a1.06,1.06,0,0,1-1.2,1.2H109.4Z"/><path class="cls-2" d="M202.3,113.3A41.44,41.44,0,0,1,190.7,84V1.6A1.06,1.06,0,0,1,191.9.4h5.8a1.06,1.06,0,0,1,1.2,1.2V84.1a33.28,33.28,0,0,0,9.1,23.4A32.91,32.91,0,0,0,264.9,85V1.7A1.06,1.06,0,0,1,266.1.5H272c.8,0,1.1.4,1.1,1.2V85a41.34,41.34,0,0,1-42.6,41.3A39.52,39.52,0,0,1,202.3,113.3Z"/><path class="cls-2" d="M312.8,8.8V59.2h47.6a1.06,1.06,0,0,1,1.2,1.2v5.8a1.06,1.06,0,0,1-1.2,1.2H312.8v50.5h71.5a1.06,1.06,0,0,1,1.2,1.2v5.8a1.06,1.06,0,0,1-1.2,1.2H305.7a1.06,1.06,0,0,1-1.2-1.2V1.6A1.06,1.06,0,0,1,305.7.4h78.6a1.06,1.06,0,0,1,1.2,1.2V7.5a1.06,1.06,0,0,1-1.2,1.2H312.8Z"/><path class="cls-2" d="M545.4.8a1,1,0,0,1,.9-.4h.6a1.06,1.06,0,0,1,1.2,1.2V125a1.06,1.06,0,0,1-1.2,1.2H541c-.8,0-1.1-.4-1.1-1.2V19.5L498.3,66a1.12,1.12,0,0,1-1.8,0L454.9,19.6V125.1c0,.8-.4,1.2-1.1,1.2h-5.9a1.06,1.06,0,0,1-1.2-1.2V1.6A1.06,1.06,0,0,1,447.9.4h.5a1.09,1.09,0,0,1,.9.4l48.1,53.6Z"/><path class="cls-2" d="M922.2,125a1.06,1.06,0,0,1-1.2,1.2h-.6a1.39,1.39,0,0,1-1-.5L842.1,22.6V125a1.06,1.06,0,0,1-1.2,1.2h-5.8a1.06,1.06,0,0,1-1.2-1.2V1.7c0-.9.4-1.3,1.2-1.3h.2a1.39,1.39,0,0,1,1,.5l77.6,103.7V1.6A1.06,1.06,0,0,1,915.1.4H921a1.06,1.06,0,0,1,1.2,1.2Z"/><path class="cls-3" d="M242.3,233.4l-25.7-61.8a.6.6,0,0,0-.6-.3h-3.8a.6.6,0,0,0-.6.3L186,233.4a.64.64,0,0,0,0,.6c.2.2.3.3.5.3h3.2a.55.55,0,0,0,.6-.4L201,208.1h26.3L238,233.9a.55.55,0,0,0,.6.4h3.2a.55.55,0,0,0,.5-.3A.64.64,0,0,0,242.3,233.4ZM202.8,204l11.4-27.5L225.6,204Z"/><path class="cls-3" d="M310.6,233.7a.53.53,0,0,1-.6.6h-.3a.55.55,0,0,1-.5-.3l-38.6-51.5v51.2a.53.53,0,0,1-.6.6h-3a.53.53,0,0,1-.6-.6V172c0-.4.2-.7.6-.7h.1a.55.55,0,0,1,.5.3l38.8,51.9V172a.53.53,0,0,1,.6-.6h2.9a.53.53,0,0,1,.6.6v61.7Z"/><path class="cls-3" d="M391.3,233.4l-25.7-61.8a.6.6,0,0,0-.6-.3h-3.8a.6.6,0,0,0-.6.3L335,233.4a.64.64,0,0,0,0,.6.55.55,0,0,0,.5.3h3.2a.55.55,0,0,0,.6-.4L350,208.1h26.3L387,233.9a.55.55,0,0,0,.6.4h3.2a.55.55,0,0,0,.5-.3A.64.64,0,0,0,391.3,233.4ZM351.8,204l11.4-27.5L374.6,204Z"/><path class="cls-3" d="M416.1,234.3a.53.53,0,0,1-.6-.6V171.8a.53.53,0,0,1,.6-.6H419a.53.53,0,0,1,.6.6v58.3h29.5a.53.53,0,0,1,.6.6v2.9a.53.53,0,0,1-.6.6h-33Z"/><path class="cls-3" d="M495.1,171.2a.55.55,0,0,1,.5.3.64.64,0,0,1,0,.6l-17.9,28.5-.4.7v32.4a.53.53,0,0,1-.6.6h-2.9a.53.53,0,0,1-.6-.6V201.2l-18.3-29a.64.64,0,0,1,0-.6.55.55,0,0,1,.5-.3h3.5a.55.55,0,0,1,.5.3l15.8,25.2,15.9-25.2a.55.55,0,0,1,.5-.3h3.5Z"/><path class="cls-3" d="M561.4,171.3a.53.53,0,0,1,.6.6v2.9a.53.53,0,0,1-.6.6H543.7v58.3a.53.53,0,0,1-.6.6h-2.9a.53.53,0,0,1-.6-.6V175.5H521.9a.53.53,0,0,1-.6-.6V172a.53.53,0,0,1,.6-.6h39.5Z"/><path class="cls-3" d="M585.6,234.3a.53.53,0,0,1-.6-.6V172a.53.53,0,0,1,.6-.6h2.9a.53.53,0,0,1,.6.6v61.7a.53.53,0,0,1-.6.6Z"/><path class="cls-3" d="M637.4,231.7a30.29,30.29,0,0,1-10.1-6.9,32.42,32.42,0,0,1-6.8-10.3,31.2,31.2,0,0,1-2.3-12.5,31.52,31.52,0,0,1,48.7-25.8.47.47,0,0,1,.1.8l-1.6,2.5a.54.54,0,0,1-.8.2,26.82,26.82,0,0,0-17-4.3,27.63,27.63,0,0,0-25.2,27,28.46,28.46,0,0,0,2.1,10.8,27.42,27.42,0,0,0,25.3,17,27.31,27.31,0,0,0,14.9-4.4c.4-.2.6-.2.8.2l1.7,2.4c.2.4.2.6-.2.8a30.7,30.7,0,0,1-17.2,5.1A31.33,31.33,0,0,1,637.4,231.7Z"/><path class="cls-3" d="M728.1,180.3c-.3.3-.5.3-.8,0a3,3,0,0,0-.7-.5,5.5,5.5,0,0,1-.9-.7,22.23,22.23,0,0,0-2.3-1.5,20.18,20.18,0,0,0-5.8-2.1,20.9,20.9,0,0,0-3.8-.5h-2.1a4.1,4.1,0,0,0-1.1.1h-1a15.84,15.84,0,0,0-4.3,1.1,9.89,9.89,0,0,0-3.7,2.4,8.29,8.29,0,0,0-2.2,4l-.1.6a1.27,1.27,0,0,0-.1.6,5.74,5.74,0,0,0-.1,1.2v.7h0V187l.1.5v.3l.1.3.2.6a3.93,3.93,0,0,0,.2.6l.1.3.1.3.3.5.3.5.2.3.2.3a2.18,2.18,0,0,0,.4.5,18.14,18.14,0,0,0,4.4,3.4q2.1,1.2,5.4,2.7l.7.3.7.4,1.5.7,2.9,1.3a62.15,62.15,0,0,1,5.9,3.1,23.85,23.85,0,0,1,5.3,4.4,13.23,13.23,0,0,1,3.1,6.4l.2.9a3.09,3.09,0,0,1,.1.9v1.4h0v1.8l-.1.9-.1.9a14.65,14.65,0,0,1-7.8,10.2,20.91,20.91,0,0,1-5.5,1.9l-.7.1-.7.1a8.32,8.32,0,0,1-1.3.2l-1.3.1h-3.7a4.49,4.49,0,0,1-1.1-.1h-.6l-.6-.1a26.36,26.36,0,0,1-11-3.6c-.8-.5-1.5-1-2.2-1.5s-1.1-.8-1.6-1.2a5.49,5.49,0,0,0-.9-.7.56.56,0,0,1,0-.9l2.2-2c.3-.3.5-.3.8,0a2.18,2.18,0,0,1,.5.4,6.42,6.42,0,0,0,1.3,1c.6.4,1.3.8,1.9,1.2a23.78,23.78,0,0,0,5.7,2.4,31.13,31.13,0,0,0,3.7.8h1a4.1,4.1,0,0,0,1.1.1h3.3l1.1-.1c.3,0,.7-.1,1.1-.1l.6-.1.6-.1a20.52,20.52,0,0,0,4.4-1.5,9.44,9.44,0,0,0,3.6-2.9,10.23,10.23,0,0,0,2-4.5l.1-.6.1-.6v-1.7h0v.1h0v-1.7l-.1-.3v-.3a10.53,10.53,0,0,0-2.3-4.6c-1.8-2.2-5.1-4.3-9.7-6.5l-2.9-1.3-1.4-.7-.7-.3-.7-.3a51.6,51.6,0,0,1-5.8-2.9,21.34,21.34,0,0,1-5.3-4.2,4.35,4.35,0,0,1-.6-.7l-.3-.4-.3-.4c-.4-.6-.7-1.2-.9-1.5l-.2-.4-.2-.4a6.89,6.89,0,0,0-.3-.8l-.3-.8-.1-.5-.1-.4-.2-.9v-1.6h0v-.8a14.92,14.92,0,0,1,.2-1.7c0-.2.1-.5.1-.8l.2-.8a12.32,12.32,0,0,1,3.2-5.7,15,15,0,0,1,5.1-3.3,24.18,24.18,0,0,1,5.3-1.3h1.4a5.74,5.74,0,0,1,1.2-.1h2.4a25.76,25.76,0,0,1,4.4.5,27.09,27.09,0,0,1,6.7,2.5,17.62,17.62,0,0,1,2.3,1.4c.6.4,1.1.7,1.6,1.1.2.2.5.4.8.7a.56.56,0,0,1,0,.9Z"/><path class="cls-4" d="M751.3,114c28.1,0,51-23.9,51-52s-22.9-50-51-50a51,51,0,1,0,0,102Z"/><path class="cls-4" d="M633.3,12a51,51,0,1,0,51,51A51.09,51.09,0,0,0,633.3,12Z"/><path class="cls-2" d="M803.3,61.9h0c0,28.7-23.3,53-52,53a51.28,51.28,0,0,1-31.1-10.4,21,21,0,0,1-1.7-1.4l-.6-.5c-.6-.5-1.1-1-1.7-1.5l-.9-.9L714,98.9a9,9,0,0,1-.9-1,56.73,56.73,0,0,0,5.8.5h2.6a26.24,26.24,0,0,0,2.7-.1,7.57,7.57,0,0,0,1.5-.1c1.3-.1,2.7-.2,4-.4l2-.3c1.1-.2,2.3-.4,3.5-.6,1.5-.3,3-.7,4.5-1.1a12.67,12.67,0,0,0,1.8-.6c.5-.1,1-.3,1.7-.5.1,0,.2-.1.3-.1.6-.2,1.2-.4,1.7-.6s1-.4,1.6-.6h.1l9.7,18.9.4.7.2.4.4-.4,1.3-1.1,1.4-1.3s-2.4-10.8-4.6-21.6a58.13,58.13,0,0,0,13.8-11A62.23,62.23,0,0,0,779,64.5a5.9,5.9,0,0,0,.4-.8,30.18,30.18,0,0,0,1.5-3.1c.1-.3.3-.6.4-.9a3.55,3.55,0,0,0,.4-.9v-.1c.1-.1.1-.3.2-.4.2-.5.4-1.1.6-1.5a13.36,13.36,0,0,0,.7-1.8.76.76,0,0,0,.1-.4,14.23,14.23,0,0,0,.5-1.6,12.09,12.09,0,0,0,.5-1.8c.4-1.5.8-3,1.1-4.5a23.34,23.34,0,0,0,.6-3.5c.1-.7.2-1.3.3-2,.2-1.2.3-2.4.4-3.8v-.7c0-.6.1-1.3.1-2h0V33.2c0-1,0-2-.1-3.2v-.6c-.1-1-.1-1.9-.2-2.9l-.1-.8c0-.3-.1-.6-.1-1,.3.3.7.6,1,.9l1.3,1.3c.3.3.6-.4.9,0a20,20,0,0,1,1.4,1.6l.8,1a6.42,6.42,0,0,1,1,1.3A52.28,52.28,0,0,1,803,58.7v.4A15.76,15.76,0,0,1,803.3,61.9Z"/><path class="cls-3" d="M814.3,62c0,34.8-28.2,64-63,64a62.9,62.9,0,0,1-56.8-35.8,69.53,69.53,0,0,0,3.9-11.4,55.29,55.29,0,0,0,52.9,39.4c30.5,0,55.3-25.7,55.3-56.3S781.8,7.7,751.3,7.7A55.29,55.29,0,0,0,696,63c0,1.3,0,2.5.1,3.8a61.56,61.56,0,0,1-3.9,18.3c-.7,1.8-1.4,3.5-2.2,5.1A63.19,63.19,0,0,1,633.2,126c-34.8,0-63-29.2-63-64s28.2-62,63-62A62.9,62.9,0,0,1,690,35.8a71.75,71.75,0,0,0-3.9,11.3,55.2,55.2,0,1,0,2.4,16c0-1.3,0-2.5-.1-3.8A61.56,61.56,0,0,1,692.3,41c.7-1.8,1.4-3.5,2.2-5.1A63,63,0,0,1,751.3.1C786,0,814.3,27.2,814.3,62Z"/><path class="cls-5" d="M694.6,89.6a.1.1,0,0,0,.1.1c-.1,0,0,0-.1-.1Z"/><path class="cls-6" d="M704.8,92.4h0a7.46,7.46,0,0,1-.7-1.2C704.3,91.6,704.6,92,704.8,92.4Z"/><path class="cls-6" d="M712.3,95.9h0l-.1-.1h0C712.3,95.8,712.3,95.8,712.3,95.9Z"/><path class="cls-7" d="M712.3,95.9h0l-.1-.1h0C712.3,95.8,712.3,95.8,712.3,95.9Z"/><path class="cls-6" d="M756.8,86a3.78,3.78,0,0,1-.8.5A5.58,5.58,0,0,0,756.8,86Z"/></svg>