<svg id="Layer_1" data-name="Layer 1" xmlns="http://www.w3.org/2000/svg" xmlns:xlink="http://www.w3.org/1999/xlink" viewBox="0 0 340 198.48"><defs><style>.cls-1{fill:none;}.cls-2{clip-path:url(#clip-path);}.cls-3{fill:#00006a;}.cls-4{fill:#646f7a;}.cls-5,.cls-7{fill:#316bad;}.cls-6{fill:#fff;}.cls-7{font-size:21.41px;font-family:Coves-Light, Coves;}.cls-8{clip-path:url(#clip-path-5);}.cls-9{fill:#006;}.cls-10{opacity:0.42;}.cls-11{fill:#57687a;}</style><clipPath id="clip-path"><rect class="cls-1" width="340" height="198.48"/></clipPath><clipPath id="clip-path-5"><rect class="cls-1" x="207.5" y="134" width="132" height="33.54"/></clipPath></defs><title>Artboard 1</title><g id="Artwork_19" data-name="Artwork 19"><g class="cls-2"><g class="cls-2"><g class="cls-2"><path class="cls-3" d="M34.77,0a.69.69,0,0,1,.66.41L65.07,71.8a.66.66,0,0,1-.05.66.68.68,0,0,1-.61.3H60.76a.68.68,0,0,1-.66-.46L47.77,42.57H17.42L5,72.31a.68.68,0,0,1-.66.46H.73a.77.77,0,0,1-.61-.3.66.66,0,0,1-.05-.66L29.7.41A.69.69,0,0,1,30.36,0Zm11,37.8L32.59,6,19.4,37.8Z"/><path class="cls-3" d="M77.11,65A21.3,21.3,0,0,1,72,48.84a21.59,21.59,0,0,1,7.58-15.08,20.9,20.9,0,0,1,30,2.72,21.12,21.12,0,0,1,4.79,15.7l-.1,1.11a.59.59,0,0,1-.66.6H77a17.28,17.28,0,0,0,30.74,7.32.62.62,0,0,1,1-.17L111.52,63a.68.68,0,0,1,.16,1,22.05,22.05,0,0,1-8.7,6.88,21.52,21.52,0,0,1-10.91,1.85,21.22,21.22,0,0,1-15-7.78m5.53-27.64a17.16,17.16,0,0,0-5.82,11.77l32.85,0a15.43,15.43,0,0,0-4.31-10.67,16.07,16.07,0,0,0-10.67-5,15.49,15.49,0,0,0-12.05,3.83"/><path class="cls-3" d="M156.1,34a23.33,23.33,0,0,0-2.26,2.88l2.1-2a.62.62,0,0,0,.16-.88"/><path class="cls-3" d="M131.39,33.1V29.28q0-.71-.66-.71h-3.4a.63.63,0,0,0-.71.71V39a17.43,17.43,0,0,1,3.4-4.71,18.36,18.36,0,0,1,1.37-1.24"/><path class="cls-3" d="M153.82,32a17.05,17.05,0,0,0-6.82-2.9l-.18-.05-.63-.07a16.66,16.66,0,0,0-1.88-.13h-.68a16.86,16.86,0,0,0-3.29.35,16.24,16.24,0,0,0-7.21,3.48c-.36.29-.71.6-1,.92s-.47.39-.7.6-.51.47-.76.71l-.38.39-.43.47c-.13.16-.27.31-.4.47a16,16,0,0,0-2,3c-.08.15-.15.3-.22.46a14.43,14.43,0,0,0-.62,1.6V72.06a.63.63,0,0,0,.71.71h3.4q.66,0,.66-.71V46.28a12.73,12.73,0,0,1,9.07-12.15c.29-.08.58-.16.88-.22l.25,0,.54-.09.61-.07c.31,0,.62,0,.93-.05H144c.33,0,.66,0,1,0l.51.05.42.06h0a12.42,12.42,0,0,1,5.14,2.15,11.42,11.42,0,0,1,1.45,1.2l.06.06a23.53,23.53,0,0,1,2.9-3.85A18.77,18.77,0,0,0,153.82,32"/><path class="cls-3" d="M202.19,72.77a.63.63,0,0,1-.71-.71V.66c0-.44.24-.66.71-.66h3.4a.58.58,0,0,1,.66.66v71.4c0,.47-.22.71-.66.71Z"/><path class="cls-3" d="M226.9,91.54a.6.6,0,0,1-.61.46h-3.65a.68.68,0,0,1-.61-.31A.66.66,0,0,1,222,91l7.31-18.17-18-43.44a.66.66,0,0,1,.05-.66.64.64,0,0,1,.56-.3h3.71a.59.59,0,0,1,.61.41l15.63,37.65,15.12-37.65a.69.69,0,0,1,.66-.41h3.65a.64.64,0,0,1,.56.3.67.67,0,0,1,.1.61Z"/><path class="cls-3" d="M257.4,72.77a.63.63,0,0,1-.71-.71V67.59a.63.63,0,0,1,.2-.46l29.33-33.69h-28q-.66,0-.66-.71V29.38q0-.71.66-.71h33.34a.63.63,0,0,1,.71.71v4.21a.63.63,0,0,1-.2.46L262.47,68H292a.63.63,0,0,1,.71.71v3.35a.63.63,0,0,1-.71.71Z"/><path class="cls-3" d="M302.68,65a21.3,21.3,0,0,1-5.11-16.14,21.59,21.59,0,0,1,7.58-15.08,20.9,20.9,0,0,1,30,2.72,21.11,21.11,0,0,1,4.79,15.7l-.1,1.11a.59.59,0,0,1-.66.6H302.57a17.28,17.28,0,0,0,30.74,7.32.63.63,0,0,1,1-.17L337.08,63a.68.68,0,0,1,.16,1,22.06,22.06,0,0,1-8.7,6.88,21.53,21.53,0,0,1-10.91,1.85,21.22,21.22,0,0,1-15-7.78m5.52-27.64a17.16,17.16,0,0,0-5.82,11.77l32.85,0a15.43,15.43,0,0,0-4.31-10.67,16.07,16.07,0,0,0-10.67-5,15.49,15.49,0,0,0-12.05,3.83"/><path class="cls-4" d="M181.16,41.59l0,0a4.61,4.61,0,0,1-1.1,3.18c-1.28,1.49-6,5.9-6.47,6.65A12.64,12.64,0,0,0,174,55h0l1-1,.09-.09s.27-.2.73.22v0h0l.39.51a.42.42,0,0,1,0,.38c-.1.12-1.33,1.25-1.87,1.74.08.41.16.82.24,1.25,0,.06,0,.12,0,.18l-.32.2a22.59,22.59,0,0,1-2.68,1.38l-.1,0-.12.05-.25.1h0l-.12-.24-2.4-3.07,0,0-5,4.49-.57.48h-.52c-.45,0-.89,0-1.34,0s-1-.08-1.5-.15c.72-.88,1.92-2.3,1.92-2.3l4.49-5L163,51.8l0,0-.21-.11-7.82-4-.27-.14-.15-.08.13-.14.42-.46.48-.53s5.83,1.3,10.4,2.17c.49-.54,1.62-1.77,1.74-1.87a.44.44,0,0,1,.39,0l.53.42h0c.42.46.22.73.22.73l-.09.09-1,1h0a12.26,12.26,0,0,0,3.54.36c.75-.49,5.16-5.18,6.65-6.46a4.59,4.59,0,0,1,3.17-1.1l0,0a.06.06,0,0,1,0,0h0Z"/><path class="cls-3" d="M192.3,49.6h0a19.14,19.14,0,0,1-19.12,19.12,18.91,18.91,0,0,1-11.45-3.81l-.63-.5-.21-.17-.62-.55-.34-.31-.49-.48-.34-.36c.71.09,1.43.15,2.15.18h1l1,0,.55,0c.49,0,1-.07,1.46-.14l.74-.1c.41-.06.84-.14,1.27-.24s1.1-.25,1.64-.4l.68-.21.62-.2.13,0,.64-.24.58-.24h0l3.58,6.94.14.27.08.15.14-.13.46-.42.53-.48s-.89-4-1.69-8a22.7,22.7,0,0,0,5.09-4,22.3,22.3,0,0,0,3.5-5l.16-.3c.18-.34.37-.71.57-1.14l.15-.33.15-.34,0,0,.06-.16c.09-.2.16-.39.22-.55s.17-.44.25-.66l.05-.14c.07-.22.14-.41.2-.6s.14-.46.2-.66c.16-.55.29-1.11.4-1.64s.18-.88.24-1.28c0-.25.07-.49.1-.74q.08-.66.13-1.39v-.09s0-.08,0-.12V40c0-.24,0-.47,0-.73v0c0-.18,0-.36,0-.54,0-.37,0-.75,0-1.18v-.23c0-.35-.05-.7-.09-1.06l0-.3,0-.35.36.34c.16.15.32.32.48.48l.34.36c.18.2.35.39.52.59l.3.37.38.48a18.91,18.91,0,0,1,3.77,10.26v.14c0,.4,0,.74,0,1.05"/><path class="cls-5" d="M150.23,46.39q0-.34.1-.68-.06.34-.1.68"/><path class="cls-5" d="M151,43q.1-.34.21-.67-.11.33-.21.67"/><path class="cls-5" d="M150.39,45.43q.2-1.11.51-2.18-.3,1.07-.51,2.18"/><path class="cls-5" d="M151.17,56.85q-.11-.33-.21-.67.1.34.21.67"/><path class="cls-5" d="M150.9,56q-.3-1.07-.51-2.18.2,1.11.51,2.18"/><path class="cls-5" d="M150.34,53.5q-.06-.34-.11-.68,0,.34.11.68"/><path class="cls-5" d="M152.87,49q0,.21,0,.43c0-.24,0-.48,0-.72V49"/><path class="cls-5" d="M152.88,50.44v0c0-.24,0-.48,0-.72q0,.21,0,.43v.26"/><path class="cls-5" d="M150.39,53.78l-.05-.28.05.28"/><path class="cls-5" d="M152.9,48.31c0,.14,0,.28,0,.42,0-.14,0-.28,0-.42"/><path class="cls-5" d="M151,56.19,150.9,56l.06.22"/><path class="cls-5" d="M151.24,57.07l-.07-.21.07.21"/><path class="cls-5" d="M152.88,50.48c0,.14,0,.28,0,.42,0-.14,0-.28,0-.42"/><path class="cls-5" d="M152.86,49.75s0-.1,0-.15,0-.1,0-.15,0,.1,0,.15,0,.1,0,.15"/><path class="cls-5" d="M151.17,42.36l.07-.21-.07.21"/><path class="cls-5" d="M150.34,45.71l0-.28,0,.28"/><path class="cls-5" d="M150.9,43.25,151,43l-.06.22"/><path class="cls-5" d="M150.23,52.82l0-.25,0,.25"/><path class="cls-5" d="M150.2,46.65l0-.25,0,.25"/><path class="cls-5" d="M173.17,26.44a23.17,23.17,0,0,0-20.89,13.15,24,24,0,0,1,1.43,4.17q.24-.78.53-1.54l.11-.28c.15-.39.32-.77.51-1.14l.21-.43c.26-.52.56-1,.86-1.52.11-.19.24-.37.36-.55.3-.45.61-.87.95-1.29.16-.21.33-.41.51-.61l.26-.3.27-.3.27-.29c.37-.38.75-.75,1.15-1.11l.3-.26.31-.26.63-.49.27-.2.42-.3.29-.2.34-.22.34-.21.35-.21.26-.15.46-.25.7-.35c.39-.19.78-.36,1.18-.53l.3-.12.38-.14.38-.13.39-.13.35-.11.08,0,.36-.1.52-.13.69-.16.41-.08.37-.07.32-.05.33,0,.23,0,.46-.05.47,0,.37,0h1.24a20.32,20.32,0,0,1,0,40.63h-.53l-.37,0h-.34l-.37,0-.47,0-.46-.05-.23,0-.33,0-.32-.05-.37-.07-.41-.08-.69-.16-.52-.13-.36-.1-.08,0L167,69l-.39-.13-.38-.14-.38-.14-.3-.12c-.4-.16-.8-.34-1.18-.52l-.7-.35-.46-.25-.26-.15-.35-.21-.34-.21-.34-.22-.29-.19-.42-.3-.27-.2-.63-.49-.31-.26-.3-.26c-.4-.35-.78-.72-1.15-1.11l-.27-.29-.27-.3-.26-.3c-.18-.2-.35-.4-.51-.61-.33-.42-.65-.85-.95-1.29l-.36-.55c-.31-.49-.6-1-.86-1.52l-.21-.43c-.18-.37-.35-.75-.51-1.14l-.11-.28c-.2-.5-.37-1-.53-1.54A20.25,20.25,0,0,1,152.9,51v0s0-.05,0-.08,0-.28,0-.42v-.3c0-.14,0-.28,0-.43s0-.1,0-.15,0-.1,0-.15,0-.28,0-.43v-.3c0-.14,0-.28,0-.42s0-.05,0-.08v0a23,23,0,0,0-1.43-6.74c-.08.22-.16.44-.24.67l-.07.21c-.07.22-.14.44-.21.67l-.06.22q-.3,1.07-.51,2.18l-.05.28q-.06.34-.1.68l0,.26q-.1.76-.15,1.54v0h0c0,.45,0,.9,0,1.36s0,.91,0,1.36h0v0c0,.52.08,1,.15,1.54l0,.26q0,.34.1.68l.05.28q.2,1.11.51,2.18l.06.22c.07.22.14.45.21.67l.07.21c.08.22.15.45.24.67.24.64.51,1.28.8,1.89a23.17,23.17,0,1,0,20.89-33.19"/><path class="cls-6" d="M157.24,62.21c.16.21.33.41.51.61l.26.3-.26-.3c-.18-.2-.35-.4-.51-.61-.33-.42-.65-.85-.95-1.29l-.36-.55.36.55c.3.44.61.88.95,1.29"/></g><text class="cls-7" transform="translate(326.05 124.32)">A</text><g class="cls-2"><text class="cls-7" transform="translate(277.57 192.6)">P</text><text class="cls-7" transform="translate(289.69 192.6)">r</text><text class="cls-7" transform="translate(295.34 192.6)">o</text><text class="cls-7" transform="translate(305.46 192.6)">d</text><text class="cls-7" transform="translate(316.77 192.6)">u</text><text class="cls-7" transform="translate(326.47 192.6)">c</text><text class="cls-7" transform="translate(334.56 192.6)">t</text></g><g class="cls-8"><path class="cls-3" d="M218.76,144.13a5,5,0,0,0-2.24-1.8,4.34,4.34,0,0,0,1.41-1.51,4.25,4.25,0,0,0,.59-2,4.54,4.54,0,0,0-4.53-4.72h-6.32a.16.16,0,0,0-.18.18V151.9a.16.16,0,0,0,.18.18h6.82a5,5,0,0,0,3.66-1.51,4.8,4.8,0,0,0,1.51-3.63,5,5,0,0,0-.91-2.81m-10.08-8.88H214a3.35,3.35,0,0,1,0,6.71h-5.31Zm8.66,14.51a3.7,3.7,0,0,1-2.73,1.15h-5.93v-7.75h5.93a3.86,3.86,0,0,1,2.73,6.6"/><path class="cls-3" d="M223.15,152.08a.16.16,0,0,1-.18-.18V134.19c0-.11.06-.16.18-.16H224c.12,0,.18.06.18.16v16.69h8.44a.16.16,0,0,1,.18.18v.84a.16.16,0,0,1-.18.18Z"/><path class="cls-3" d="M236.45,150.23a5.9,5.9,0,0,1-1.66-4.19v-11.8a.16.16,0,0,1,.18-.18h.83a.16.16,0,0,1,.18.18v11.81a4.75,4.75,0,0,0,1.31,3.35,4.71,4.71,0,0,0,8.14-3.23V134.24a.16.16,0,0,1,.18-.18h.84c.11,0,.16.06.16.18v11.93a5.91,5.91,0,0,1-6.09,5.91,5.63,5.63,0,0,1-4.06-1.85"/><path class="cls-3" d="M252.26,135.26v7.22h6.82a.16.16,0,0,1,.18.18v.83a.16.16,0,0,1-.18.18h-6.82v7.23H262.5a.16.16,0,0,1,.18.18v.83a.16.16,0,0,1-.18.18H251.26a.16.16,0,0,1-.18-.18V134.24a.16.16,0,0,1,.18-.18H262.5a.16.16,0,0,1,.18.18v.84a.16.16,0,0,1-.18.18Z"/><path class="cls-3" d="M285.56,134.13a.15.15,0,0,1,.13-.06h.09a.16.16,0,0,1,.18.18V151.9a.16.16,0,0,1-.18.18h-.84c-.11,0-.16-.06-.16-.18V136.8l-5.95,6.66a.16.16,0,0,1-.27,0l-5.95-6.64v15.1c0,.12-.05.18-.16.18h-.84a.16.16,0,0,1-.18-.18V134.24a.16.16,0,0,1,.18-.18h.08a.15.15,0,0,1,.13.06l6.88,7.67Z"/><path class="cls-3" d="M339.5,151.9a.16.16,0,0,1-.18.18h-.09a.16.16,0,0,1-.14-.08L328,137.25V151.9a.16.16,0,0,1-.18.18H327a.16.16,0,0,1-.18-.18V134.25c0-.13.06-.19.18-.19h0a.16.16,0,0,1,.14.08L338.3,149V134.24a.16.16,0,0,1,.18-.18h.84a.16.16,0,0,1,.18.18Z"/><path class="cls-5" d="M242.18,167.42l-3.67-8.85a.09.09,0,0,0-.08-.05h-.55a.09.09,0,0,0-.08.05l-3.67,8.85a.08.08,0,0,0,0,.08.09.09,0,0,0,.08,0h.45a.08.08,0,0,0,.08-.06l1.54-3.69H240l1.53,3.69a.09.09,0,0,0,.08.06h.45a.09.09,0,0,0,.08,0,.08.08,0,0,0,0-.08m-5.66-4.21,1.64-3.94,1.64,3.94Z"/><path class="cls-5" d="M251.95,167.45a.08.08,0,0,1-.09.09h0a.08.08,0,0,1-.07,0l-5.53-7.38v7.33a.08.08,0,0,1-.09.09h-.42a.08.08,0,0,1-.09-.09v-8.83c0-.06,0-.09.09-.09h0a.08.08,0,0,1,.07,0l5.55,7.42v-7.37a.08.08,0,0,1,.09-.09h.42a.08.08,0,0,1,.09.09Z"/><path class="cls-5" d="M263.51,167.42l-3.67-8.85a.09.09,0,0,0-.08-.05h-.55a.09.09,0,0,0-.08.05l-3.67,8.85a.08.08,0,0,0,0,.08.09.09,0,0,0,.08,0H256a.08.08,0,0,0,.08-.06l1.54-3.69h3.76l1.53,3.69a.08.08,0,0,0,.08.06h.45a.09.09,0,0,0,.08,0,.08.08,0,0,0,0-.08m-5.66-4.21,1.64-3.94,1.64,3.94Z"/><path class="cls-5" d="M267,167.54a.08.08,0,0,1-.09-.09V158.6c0-.05,0-.08.09-.08h.42c.06,0,.09,0,.09.08v8.35h4.22a.08.08,0,0,1,.09.09v.42a.08.08,0,0,1-.09.09Z"/><path class="cls-5" d="M278.36,158.51a.08.08,0,0,1,.07,0,.08.08,0,0,1,0,.09l-2.57,4.08-.06.1v4.64a.08.08,0,0,1-.09.09h-.42c-.06,0-.08,0-.08-.09V162.8l-2.62-4.16a.09.09,0,0,1,0-.09.08.08,0,0,1,.08,0h.5a.09.09,0,0,1,.08,0l2.26,3.61,2.27-3.61a.08.08,0,0,1,.08,0Z"/><path class="cls-5" d="M287.85,158.53a.08.08,0,0,1,.09.09V159a.08.08,0,0,1-.09.09h-2.54v8.33a.08.08,0,0,1-.09.09h-.42c-.05,0-.08,0-.08-.09v-8.33h-2.54a.08.08,0,0,1-.09-.09v-.42a.08.08,0,0,1,.09-.09Z"/><rect class="cls-5" x="291.24" y="158.53" width="0.6" height="9.01" rx="0.09" ry="0.09"/><path class="cls-5" d="M298.73,167.18a4.51,4.51,0,0,1-2.74-4.25,4.54,4.54,0,0,1,4.15-4.41,4.43,4.43,0,0,1,2.82.71.08.08,0,0,1,0,.12l-.23.35a.08.08,0,0,1-.12,0,3.93,3.93,0,0,0-6,3.25,3.93,3.93,0,0,0,.3,1.54,3.92,3.92,0,0,0,5.76,1.81.07.07,0,0,1,.12,0l.24.35a.07.07,0,0,1,0,.12,4.41,4.41,0,0,1-2.46.73,4.47,4.47,0,0,1-1.78-.37"/><path class="cls-5" d="M311.72,159.82a.07.07,0,0,1-.11,0l-.1-.07-.13-.1-.33-.21a3.24,3.24,0,0,0-.82-.3,3.37,3.37,0,0,0-.54-.07h-.61a2.64,2.64,0,0,0-.62.15,1.42,1.42,0,0,0-.53.35,1.26,1.26,0,0,0-.32.57l0,.09a.38.38,0,0,0,0,.09,1.09,1.09,0,0,0,0,.18v.09h0v0h0V161l0,.08a.32.32,0,0,0,0,.08l0,0,0,0,0,.08,0,.08,0,0,0,0,.06.07a2.64,2.64,0,0,0,.63.49,8.67,8.67,0,0,0,.78.38l.11,0,.11,0,.21.09.41.19a6.89,6.89,0,0,1,.84.44,3.38,3.38,0,0,1,.76.63,2,2,0,0,1,.45.91l0,.13a.84.84,0,0,1,0,.13v.21h0v.25l0,.13,0,.13a2.06,2.06,0,0,1-.4.88,2.12,2.12,0,0,1-.71.58,3.28,3.28,0,0,1-.79.28l-.09,0h-.1l-.19,0-.19,0h-.87a4.23,4.23,0,0,1-.62-.12,4.15,4.15,0,0,1-.95-.4l-.32-.21-.23-.17-.13-.11a.08.08,0,0,1,0-.13l.31-.29a.08.08,0,0,1,.12,0l.08.06.19.15.28.18a3.36,3.36,0,0,0,.81.34,3.79,3.79,0,0,0,.54.11h.93l.16,0,.08,0h.09a2.59,2.59,0,0,0,.64-.22,1.51,1.51,0,0,0,.52-.42,1.55,1.55,0,0,0,.29-.64v-.17a.18.18,0,0,0,0-.05v-.19h0V165a.94.94,0,0,0,0-.09v-.09a1.46,1.46,0,0,0-.33-.66,4.1,4.1,0,0,0-1.39-.92l-.42-.19-.2-.1-.09,0-.11,0a8.36,8.36,0,0,1-.84-.42,3.32,3.32,0,0,1-.76-.6l-.08-.1,0,0,0,0-.13-.22,0-.06,0-.06a.79.79,0,0,1,0-.12l0-.12V161l0-.13v-.19h0v0h0v-.12c0-.06,0-.14,0-.24s0-.07,0-.11l0-.11a1.72,1.72,0,0,1,.46-.82,2.18,2.18,0,0,1,.73-.47,3.23,3.23,0,0,1,.76-.18h.7a4,4,0,0,1,.63.08,3.8,3.8,0,0,1,1,.36l.33.2.23.16.12.11a.08.08,0,0,1,0,.13Z"/><path class="cls-5" d="M324,143.16a9.14,9.14,0,0,0-9-9.16,9,9,0,0,0-8.13,5.12,9.34,9.34,0,0,1,.56,1.63,7.91,7.91,0,0,1,7.58-5.63,8,8,0,0,1,7.91,8.05,7.79,7.79,0,0,1-7.91,7.77,7.91,7.91,0,0,1-7.91-7.91c0-.18,0-.36,0-.54a9,9,0,0,0-.56-2.62c-.09-.25-.2-.5-.31-.74a9,9,0,0,0-8.13-5.12,9.14,9.14,0,0,0-9,9.16,8.9,8.9,0,0,0,9,8.88,9,9,0,0,0,8.13-5.12,9.4,9.4,0,0,1-.55-1.62A7.92,7.92,0,1,1,306,143c0,.18,0,.36,0,.54a9,9,0,0,0,.55,2.62c.1.25.2.5.31.74A9,9,0,0,0,315,152a8.9,8.9,0,0,0,9-8.87"/><path class="cls-9" d="M306.92,146.84v0h0"/><path class="cls-3" d="M322.36,142.48c0-.06,0-.13,0-.19s0-.23,0-.35,0-.12,0-.18,0-.12,0-.18l0-.18,0-.14c0-.07,0-.14-.06-.21l0-.13-.06-.2,0-.08-.1-.28-.07-.16-.07-.16-.07-.15c-.05-.11-.11-.23-.17-.34l-.07-.13-.2-.32-.09-.14-.07-.11-.11-.15-.22-.29-.12-.14,0,0-.19-.21-.16-.17-.13-.13h0l0,0v0a9.13,9.13,0,0,1,.05,1,9.38,9.38,0,0,1-5,8.3l0,.13.08.4.05.26,0,.14s0,.09,0,.14l0,.13.09.43.08.37,0,.12,0,.21,0,.2v.06c-.22,0-.44.07-.66.09l0-.06-1.08-2.09h0a9.28,9.28,0,0,1-3.13.54q-.38,0-.75,0l-.22,0h0l-.16,0h0l.11.11h0l.13.13.16.16.21.19,0,0,.14.12.29.22.15.11.11.07.14.09.32.2.13.07.34.17.15.07.16.07.16.07.56.19.13,0,.21.06.14,0,.18,0,.18,0,.18,0,.35,0,.19,0,.58,0a7.37,7.37,0,0,0,7.38-7.38c0-.2,0-.39,0-.58"/><path class="cls-11" d="M307.77,141.77h.06c0,.22-.07.45-.08.68l-.07,0h0"/><path class="cls-11" d="M317.54,139.89h-.08a1.81,1.81,0,0,0-1.16.43c-.58.5-2.3,2.32-2.59,2.51a1.08,1.08,0,0,1-.44,0l-.2,0H313l-.27,0-.39-.06.39-.39,0,0s.08-.11-.09-.28h0l-.2-.16h-.05a.13.13,0,0,0-.1,0s-.48.52-.67.73c-1.42-.27-3.15-.65-3.79-.79,0,.22-.07.45-.08.68l1.19.61,1.45.75.08,0h0l1.2.93-1.75,1.93-.64.77a8.91,8.91,0,0,0,1.28.12l.13-.11,1.93-1.74.93,1.2h0l.09.17a8.54,8.54,0,0,0,1.35-.59l0-.21-.05-.28,0-.25.73-.67a.14.14,0,0,0,0-.11.16.16,0,0,0,0,0l-.16-.2h0c-.17-.16-.28-.09-.28-.09l0,0-.39.38h0c0-.15,0-.29-.07-.42l0-.18,0-.14,0-.17s0,0,0-.07a1,1,0,0,1,0-.1V144s0-.05,0-.07a0,0,0,0,1,0,0,.3.3,0,0,1,0-.14c.19-.29,2-2,2.51-2.58a1.89,1.89,0,0,0,.44-1.25"/></g></g></g></g></svg>