<svg id="Layer_1" data-name="Layer 1" xmlns="http://www.w3.org/2000/svg" viewBox="0 0 1177.79 318.69"><defs><style>.cls-1{fill:#006;}.cls-2{fill:#ccc;}.cls-3{fill:#316bad;}.cls-4{fill:none;}.cls-5{fill:#fff;}</style></defs><title>Artboard 1</title><path class="cls-1" d="M120.46,0a2.38,2.38,0,0,1,2.29,1.41L225.4,248.73a2.28,2.28,0,0,1-.18,2.29,2.37,2.37,0,0,1-2.11,1.05H210.46a2.37,2.37,0,0,1-2.29-1.58l-42.71-103H60.34l-42.89,103a2.37,2.37,0,0,1-2.29,1.58H2.51A2.66,2.66,0,0,1,.4,251a2.27,2.27,0,0,1-.18-2.29L102.88,1.41A2.38,2.38,0,0,1,105.17,0Zm38.14,131-45.7-110L67.2,131Z"/><path class="cls-1" d="M267.12,225.09q-20.46-24.37-17.7-55.9,2.8-32,26.27-52.23Q299,96.77,330,99.66q30.1,2.81,49.54,26.74,19.27,23.75,16.59,54.39l-.34,3.85a2,2,0,0,1-2.3,2.09l-126.7,0a59.86,59.86,0,0,0,106.48,25.37,2.16,2.16,0,0,1,3.4-.58l9.65,6.67a2.35,2.35,0,0,1,.57,3.58,76.38,76.38,0,0,1-30.14,23.83,74.57,74.57,0,0,1-37.79,6.4Q287.41,249.27,267.12,225.09Zm19.14-95.73q-17.77,15.56-20.15,40.76l113.81.08q-.56-21.93-14.94-37-14.38-15.19-37-17.17Q303.84,114,286.25,129.36Z"/><path class="cls-1" d="M455.15,114.65V101.43q0-2.46-2.28-2.46H441.09a2.17,2.17,0,0,0-2.46,2.46v33.82a60.32,60.32,0,0,1,11.78-16.3A63.87,63.87,0,0,1,455.15,114.65Z"/><path class="cls-1" d="M532.83,111a59.08,59.08,0,0,0-23.62-10.06,2.8,2.8,0,0,0-.62-.18c-.72-.11-1.45-.16-2.17-.24a57.71,57.71,0,0,0-6.5-.44c-.34,0-.67,0-1,0s-.9,0-1.34,0a58.68,58.68,0,0,0-11.38,1.22,56.28,56.28,0,0,0-25,12.06c-1.24,1-2.44,2.08-3.62,3.2-.84.66-1.64,1.36-2.44,2.08s-1.78,1.62-2.62,2.46c-.46.44-.9.9-1.32,1.36s-1,1.08-1.48,1.62-.94,1.08-1.38,1.64a55.54,55.54,0,0,0-6.82,10.56c-.26.52-.52,1-.76,1.58a50.25,50.25,0,0,0-2.14,5.54V249.61a2.17,2.17,0,0,0,2.46,2.46h11.78q2.28,0,2.28-2.46v-89.3a44.11,44.11,0,0,1,31.41-42.09c1-.27,2-.54,3.07-.75.28-.06.56-.12.86-.16.62-.12,1.24-.22,1.88-.3s1.4-.2,2.1-.26c1.08-.11,2.14-.15,3.21-.17l1.13,0c1.14,0,2.28,0,3.4.12l1.76.18c.48.06,1,.14,1.44.22,0,0,.1,0,.14,0a43,43,0,0,1,17.8,7.44,39.33,39.33,0,0,1,5,4.16,2,2,0,0,0,.22.2,81.43,81.43,0,0,1,10-13.34A64.64,64.64,0,0,0,532.83,111Z"/><path class="cls-1" d="M700.38,252.07a2.17,2.17,0,0,1-2.46-2.46V2.29q0-2.28,2.46-2.29h11.78a2,2,0,0,1,2.29,2.29V249.61q0,2.46-2.29,2.46Z"/><path class="cls-1" d="M786,317.11a2.07,2.07,0,0,1-2.11,1.58H771.22a2.36,2.36,0,0,1-2.11-1.05,2.27,2.27,0,0,1-.18-2.29l25.31-62.93L731.84,102a2.28,2.28,0,0,1,.18-2.29A2.21,2.21,0,0,1,734,98.61h12.83a2.05,2.05,0,0,1,2.11,1.41L803,230.45,855.42,100a2.38,2.38,0,0,1,2.29-1.41h12.66a2.21,2.21,0,0,1,1.93,1.05,2.33,2.33,0,0,1,.35,2.11Z"/><path class="cls-1" d="M891.63,252.07a2.17,2.17,0,0,1-2.46-2.46V234.14a2.19,2.19,0,0,1,.7-1.58l101.6-116.72h-97q-2.29,0-2.29-2.46v-11.6q0-2.46,2.29-2.46h115.49a2.18,2.18,0,0,1,2.46,2.46v14.59a2.19,2.19,0,0,1-.7,1.58L909.21,235.55h102.13a2.18,2.18,0,0,1,2.46,2.46v11.6a2.17,2.17,0,0,1-2.46,2.46Z"/><path class="cls-1" d="M1048.48,225.09q-20.46-24.37-17.7-55.9,2.8-32,26.27-52.23,23.29-20.2,54.27-17.31,30.1,2.81,49.54,26.74,19.27,23.75,16.59,54.39l-.34,3.85a2,2,0,0,1-2.3,2.09l-126.7,0a59.86,59.86,0,0,0,106.48,25.37,2.16,2.16,0,0,1,3.4-.58l9.65,6.67a2.35,2.35,0,0,1,.57,3.58,76.38,76.38,0,0,1-30.14,23.83,74.56,74.56,0,0,1-37.79,6.4Q1068.77,249.27,1048.48,225.09Zm19.14-95.73q-17.77,15.56-20.15,40.76l113.81.08q-.56-21.93-14.94-37-14.38-15.19-37-17.17Q1085.2,114,1067.62,129.36Z"/><path class="cls-2" d="M627.56,144.08l-.06.05a16,16,0,0,1-3.8,11c-4.45,5.17-20.71,20.44-22.41,23-.5.75.14,5.72,1.29,12.37l.05,0,3.44-3.39.32-.31s.94-.7,2.53.76l.05.06h0l1.36,1.76a1.45,1.45,0,0,1-.17,1.32c-.34.41-4.61,4.32-6.47,6,.27,1.41.55,2.85.84,4.33,0,.2.08.42.13.64-.36.23-.73.46-1.11.68a77.88,77.88,0,0,1-9.3,4.79l-.34.14-.41.18-.88.36h0l-.42-.82L583.9,196.4l-.06-.08-17.17,15.57-2,1.66h-1.81c-1.54,0-3.1-.06-4.64-.17-1.73-.11-3.46-.28-5.2-.51,2.48-3,6.64-8,6.64-8l15.55-17.17-10.65-8.31-.08-.06-.73-.38-27.09-14-.94-.48-.54-.28.45-.48,1.46-1.59,1.67-1.82s20.18,4.51,36,7.5c1.69-1.86,5.6-6.13,6-6.48a1.52,1.52,0,0,1,1.34-.17l1.82,1.44h0c1.45,1.58.76,2.52.76,2.52l-.32.32L581,169l.11,0c6.6,1.15,11.5,1.75,12.27,1.25,2.59-1.71,17.86-17.94,23-22.38a15.93,15.93,0,0,1,11-3.81l.06-.06a.18.18,0,0,1,0,.08h.06Z"/><path class="cls-1" d="M666.12,171.81v0a66.32,66.32,0,0,1-66.24,66.24,65.52,65.52,0,0,1-39.65-13.2c-.74-.56-1.45-1.16-2.18-1.75l-.71-.59c-.74-.62-1.44-1.26-2.15-1.91L554,219.56c-.56-.55-1.12-1.1-1.68-1.67-.39-.41-.79-.83-1.17-1.25,2.47.32,5,.53,7.44.62.56,0,1.12.06,1.69.05s1.13,0,1.69,0c1.08,0,2.18,0,3.4-.08.65,0,1.31-.05,1.91-.1,1.68-.1,3.39-.25,5.06-.47.85-.1,1.69-.22,2.55-.34,1.41-.22,2.9-.5,4.41-.82,1.9-.39,3.82-.87,5.68-1.4.76-.22,1.54-.45,2.34-.71.65-.19,1.3-.41,2.14-.7l.43-.15c.78-.25,1.52-.53,2.2-.82s1.31-.51,2-.82l.09,0,12.41,24,.48.94.28.54.48-.45,1.59-1.46,1.82-1.67s-3.08-13.81-5.85-27.55a78.79,78.79,0,0,0,17.62-14,77.27,77.27,0,0,0,12.13-17.22c.2-.37.38-.71.56-1.06.64-1.17,1.27-2.45,2-3.94.19-.43.36-.79.51-1.15s.36-.8.51-1.17l.06-.13c.08-.19.15-.36.22-.55.31-.7.56-1.36.78-1.92.32-.78.6-1.53.85-2.29.09-.23.14-.38.18-.5.25-.75.48-1.41.68-2.08s.5-1.58.7-2.29c.55-1.91,1-3.83,1.4-5.69.33-1.54.61-3,.83-4.43.13-.87.24-1.71.34-2.55q.29-2.27.46-4.81v-.31c0-.14,0-.28,0-.43l0-.27c.05-.83.08-1.64.1-2.53v-.15c0-.62,0-1.25,0-1.89,0-1.27,0-2.61-.11-4.1l0-.8c-.08-1.22-.18-2.43-.31-3.66l-.11-1-.15-1.22c.42.38.83.76,1.24,1.17.57.53,1.12,1.1,1.66,1.67.39.41.78.82,1.16,1.24.61.68,1.22,1.35,1.81,2.05l1,1.29c.45.53.89,1.08,1.32,1.66A65.48,65.48,0,0,1,666,167.7l0,.47C666.08,169.57,666.12,170.73,666.12,171.81Z"/><path class="cls-3" d="M599.88,91.59a80.24,80.24,0,0,0-72.37,45.54,83.37,83.37,0,0,1,4.94,14.46c.55-1.81,1.16-3.59,1.85-5.34q.17-.48.38-1c.54-1.34,1.12-2.66,1.76-4,.23-.5.48-1,.73-1.48.92-1.8,1.92-3.57,3-5.27.39-.65.82-1.29,1.24-1.91,1-1.54,2.13-3,3.27-4.48.56-.73,1.15-1.43,1.76-2.13.29-.36.6-.7.92-1s.61-.7.93-1,.62-.68.94-1c1.29-1.32,2.61-2.61,4-3.83.34-.32.69-.61,1-.9s.7-.61,1.06-.89c.71-.57,1.44-1.15,2.18-1.71.31-.24.62-.47.94-.7q.73-.53,1.45-1c.32-.23.66-.46,1-.68s.78-.52,1.17-.76l1.17-.73c.39-.25.79-.5,1.2-.71s.6-.36.9-.52q.78-.46,1.6-.88,1.18-.65,2.41-1.22c1.34-.65,2.71-1.26,4.1-1.82l1-.41c.43-.18.88-.34,1.32-.5l1.32-.47,1.35-.45,1.2-.37.27-.09,1.25-.34c.59-.17,1.18-.32,1.78-.46.79-.2,1.58-.38,2.38-.55.47-.1.94-.2,1.41-.28s.85-.17,1.29-.23l1.1-.18,1.13-.17.78-.1,1.6-.18c.55-.06,1.08-.11,1.63-.15l1.27-.09,1.17-.05,1.3-.05,1.82,0a70.38,70.38,0,0,1,0,140.76l-1.82,0-1.3-.05-1.17-.05-1.27-.09c-.55,0-1.08-.09-1.63-.15l-1.6-.18-.78-.1-1.13-.17-1.1-.18c-.43-.06-.85-.14-1.29-.23l-1.41-.28c-.8-.17-1.59-.34-2.38-.55-.6-.14-1.2-.29-1.78-.46l-1.25-.34-.27-.09-1.2-.37-1.35-.45c-.45-.15-.89-.31-1.32-.47s-.88-.32-1.32-.5l-1-.41c-1.39-.56-2.76-1.17-4.1-1.82-.8-.39-1.62-.8-2.41-1.22q-.8-.42-1.6-.88c-.31-.17-.61-.34-.9-.52s-.8-.47-1.2-.71-.79-.47-1.17-.73l-1.17-.76-1-.68-1.45-1-.94-.7c-.74-.55-1.45-1.12-2.18-1.71l-1.06-.89c-.36-.29-.7-.6-1-.9-1.39-1.22-2.71-2.51-4-3.83l-.94-1-.93-1c-.32-.34-.61-.69-.92-1-.61-.7-1.2-1.4-1.76-2.13Q543,213.32,541.4,211c-.42-.62-.83-1.26-1.24-1.91q-1.6-2.56-3-5.27c-.24-.5-.5-1-.73-1.48-.62-1.3-1.21-2.61-1.76-4q-.21-.48-.38-1c-.69-1.75-1.3-3.53-1.85-5.34a70,70,0,0,1-2.79-15.43v-.08c0-.09,0-.18,0-.27,0-.49-.06-1-.08-1.47,0,0,0-.08,0-.11l0-.92c0-.49,0-1,0-1.48,0-.17,0-.34,0-.51s0-.34,0-.51c0-.49,0-1,0-1.48l0-.92s0-.08,0-.11c0-.49.05-1,.08-1.47,0-.09,0-.18,0-.27V167a79.72,79.72,0,0,0-4.94-23.34c-.29.77-.56,1.54-.82,2.32l-.25.74q-.38,1.15-.72,2.31c-.08.26-.15.52-.22.78q-1.06,3.71-1.76,7.56c-.06.32-.12.64-.17,1q-.2,1.17-.37,2.36c0,.29-.07.59-.11.88q-.34,2.64-.51,5.33s0,.06,0,.09v.11c-.1,1.56-.16,3.13-.16,4.72s.06,3.16.16,4.72v.11s0,.06,0,.09q.17,2.69.51,5.33c0,.29.07.59.11.88q.16,1.19.37,2.36c.05.32.11.64.17,1q.7,3.85,1.76,7.56c.07.26.14.52.22.78q.34,1.16.72,2.31l.25.75c.26.78.53,1.55.82,2.32.84,2.23,1.76,4.42,2.79,6.55a80.25,80.25,0,1,0,72.37-115Z"/><path class="cls-4" d="M529.67,167.09c-.05.61-.08,1.22-.1,1.85l0,.92c0,.66,0,1.32,0,2s0,1.32,0,2l0,.92c0,.62.05,1.24.1,1.85v.08a70,70,0,0,0,2.79,15.43c.55,1.81,1.16,3.59,1.85,5.34q.17.48.38,1c.55,1.35,1.13,2.66,1.76,4,.23.5.48,1,.73,1.48q1.39,2.71,3,5.27c.41.65.82,1.29,1.24,1.91q1.55,2.31,3.27,4.48c.56.73,1.15,1.43,1.76,2.13.31.36.6.7.92,1l.93,1,.94,1c1.29,1.32,2.61,2.61,4,3.83.34.31.69.61,1,.9l1.06.89c.73.59,1.44,1.16,2.18,1.71l.94.7,1.45,1,1,.68,1.17.76c.38.25.78.5,1.17.73s.79.48,1.2.71.6.36.9.52q.8.46,1.61.88c.79.42,1.61.83,2.41,1.22,1.34.65,2.71,1.26,4.1,1.82l1,.41c.45.18.88.34,1.32.5s.88.32,1.32.47l1.35.45,1.2.37.27.09,1.25.34c.59.17,1.18.32,1.78.46.79.2,1.58.38,2.38.55l1.41.28c.43.09.85.17,1.29.23l1.1.18,1.13.17.78.1,1.6.18c.55.06,1.08.11,1.63.15l1.27.09,1.17.05,1.3.05,1.82,0a70.38,70.38,0,1,0,0-140.76l-1.82,0-1.3.05-1.17.05-1.27.09c-.55,0-1.08.09-1.63.15l-1.6.18-.78.1-1.13.17-1.1.18c-.43.06-.85.14-1.29.23s-.94.18-1.41.28c-.8.17-1.59.34-2.38.55-.6.14-1.2.29-1.78.46l-1.25.34-.27.09-1.2.37-1.35.45-1.32.47c-.45.15-.89.32-1.32.5l-1,.41c-1.39.56-2.76,1.17-4.1,1.82q-1.22.57-2.41,1.22-.82.42-1.61.88c-.31.17-.61.33-.9.52s-.8.46-1.2.71l-1.17.73c-.39.24-.79.5-1.17.76s-.68.45-1,.68q-.73.5-1.45,1c-.32.23-.64.46-.94.7-.74.56-1.46,1.13-2.18,1.71-.36.28-.71.59-1.06.89s-.7.59-1,.9c-1.39,1.22-2.71,2.51-4,3.83-.32.32-.64.65-.94,1s-.64.68-.93,1-.62.69-.92,1c-.61.7-1.2,1.4-1.76,2.13q-1.72,2.18-3.27,4.48c-.42.62-.84,1.26-1.24,1.91-1.07,1.71-2.08,3.48-3,5.27-.24.48-.5,1-.73,1.48-.64,1.3-1.22,2.62-1.76,4q-.21.48-.38,1c-.69,1.75-1.3,3.53-1.85,5.34A70,70,0,0,0,529.67,167Z"/><path class="cls-3" d="M520.41,160.71q.16-1.19.37-2.36Q520.58,159.52,520.41,160.71Z"/><path class="cls-3" d="M522.93,149q.34-1.16.72-2.31Q523.28,147.89,522.93,149Z"/><path class="cls-3" d="M521,157.38q.7-3.85,1.76-7.56Q521.65,153.53,521,157.38Z"/><path class="cls-3" d="M523.65,196.94q-.38-1.15-.72-2.31Q523.27,195.8,523.65,196.94Z"/><path class="cls-3" d="M522.71,193.86q-1.06-3.71-1.76-7.56Q521.65,190.15,522.71,193.86Z"/><path class="cls-3" d="M520.78,185.33q-.2-1.17-.37-2.36Q520.58,184.16,520.78,185.33Z"/><path class="cls-3" d="M529.53,169.85c0,.49,0,1,0,1.48q0-1.26.06-2.51s0,.08,0,.11Z"/><path class="cls-3" d="M529.57,174.74s0,.08,0,.11q-.05-1.25-.06-2.51c0,.49,0,1,0,1.48Z"/><path class="cls-3" d="M521,186.3c-.06-.32-.12-.64-.17-1C520.83,185.66,520.89,186,521,186.3Z"/><path class="cls-3" d="M529.66,167.35c0,.49-.06,1-.08,1.47C529.59,168.33,529.62,167.84,529.66,167.35Z"/><path class="cls-3" d="M522.93,194.63c-.08-.26-.15-.52-.22-.78C522.78,194.11,522.85,194.37,522.93,194.63Z"/><path class="cls-3" d="M523.91,197.69l-.25-.75Z"/><path class="cls-3" d="M529.57,174.86c0,.49.05,1,.08,1.47C529.62,175.84,529.59,175.35,529.57,174.86Z"/><path class="cls-3" d="M529.51,172.35c0-.17,0-.34,0-.51s0-.34,0-.51c0,.17,0,.34,0,.51S529.51,172.18,529.51,172.35Z"/><path class="cls-3" d="M523.65,146.74l.25-.74Z"/><path class="cls-3" d="M520.78,158.35c.05-.32.11-.64.17-1C520.89,157.7,520.83,158,520.78,158.35Z"/><path class="cls-3" d="M522.71,149.82c.07-.26.14-.52.22-.78C522.85,149.3,522.78,149.56,522.71,149.82Z"/><path class="cls-3" d="M520.41,183c0-.29-.07-.59-.11-.88C520.34,182.38,520.37,182.68,520.41,183Z"/><path class="cls-3" d="M520.3,161.59c0-.29.07-.59.11-.88C520.37,161,520.34,161.3,520.3,161.59Z"/><path class="cls-4" d="M541.4,132.67q1.55-2.31,3.27-4.48c.56-.73,1.15-1.43,1.76-2.13-.61.7-1.2,1.4-1.76,2.13C543.53,129.64,542.43,131.13,541.4,132.67Z"/><path class="cls-4" d="M564.43,111c-.41.22-.8.46-1.2.71.39-.25.79-.5,1.2-.71s.6-.36.9-.52q.78-.46,1.6-.88-.82.42-1.6.88C565,110.68,564.73,110.85,564.43,111Z"/><path class="cls-4" d="M595.59,101.59l1.17-.05,1.3-.05-1.3.05Z"/><path class="cls-5" d="M544.68,215.49c.56.73,1.15,1.43,1.76,2.13.31.36.6.7.92,1-.32-.34-.61-.69-.92-1-.61-.7-1.2-1.4-1.76-2.13Q543,213.32,541.4,211c-.42-.62-.83-1.26-1.24-1.91.41.65.82,1.29,1.24,1.91Q542.95,213.32,544.68,215.49Z"/><path class="cls-1" d="M527.7,205.81l.07.14,0-.09Z"/></svg>