<svg id="Layer_1" data-name="Layer 1" xmlns="http://www.w3.org/2000/svg" viewBox="0 0 588.89 159.35"><defs><style>.cls-1{fill:#ccc;}.cls-2{fill:#006;}.cls-3{fill:#646f7a;}.cls-4{fill:none;}.cls-5{fill:#316bad;}.cls-6{fill:#fff;}</style></defs><title>Artboard 1</title><path class="cls-1" d="M60.23,0a1.19,1.19,0,0,1,1.14.7L112.7,124.37a1.14,1.14,0,0,1-.09,1.14,1.18,1.18,0,0,1-1.05.53h-6.33a1.18,1.18,0,0,1-1.14-.79L82.73,73.74H30.17L8.73,125.24a1.18,1.18,0,0,1-1.14.79H1.26a1.33,1.33,0,0,1-1.05-.53,1.13,1.13,0,0,1-.09-1.14L51.44.7A1.19,1.19,0,0,1,52.58,0ZM79.3,65.48l-22.85-55-22.85,55Z"/><path class="cls-1" d="M133.56,112.54a36.9,36.9,0,0,1-8.85-27.95q1.4-16,13.14-26.11a36.2,36.2,0,0,1,51.91,4.72A36.57,36.57,0,0,1,198,90.4l-.17,1.93a1,1,0,0,1-1.15,1l-63.35,0a29.93,29.93,0,0,0,53.24,12.69,1.08,1.08,0,0,1,1.7-.29l4.83,3.33a1.18,1.18,0,0,1,.28,1.79,38.19,38.19,0,0,1-15.07,11.92,37.28,37.28,0,0,1-18.9,3.2A36.76,36.76,0,0,1,133.56,112.54Zm9.57-47.86q-8.89,7.78-10.08,20.38l56.9,0a26.73,26.73,0,0,0-7.47-18.48A27.84,27.84,0,0,0,164,58,26.84,26.84,0,0,0,143.13,64.68Z"/><path class="cls-2" d="M270.38,58.8a40.35,40.35,0,0,0-3.91,5l3.64-3.47A1.08,1.08,0,0,0,270.38,58.8Z"/><path class="cls-1" d="M227.58,57.32V50.71q0-1.23-1.14-1.23h-5.89a1.09,1.09,0,0,0-1.23,1.23V67.62a30.16,30.16,0,0,1,5.89-8.15A31.93,31.93,0,0,1,227.58,57.32Z"/><path class="cls-1" d="M266.42,55.48a29.54,29.54,0,0,0-11.81-5,1.4,1.4,0,0,0-.31-.09c-.36-.05-.72-.08-1.09-.12A28.86,28.86,0,0,0,250,50l-.51,0c-.22,0-.45,0-.67,0a29.34,29.34,0,0,0-5.69.61,28.14,28.14,0,0,0-12.49,6c-.62.5-1.22,1-1.81,1.6-.42.33-.82.68-1.22,1s-.89.81-1.31,1.23c-.23.22-.45.45-.66.68l-.74.81c-.23.27-.47.54-.69.82a27.77,27.77,0,0,0-3.41,5.28c-.13.26-.26.52-.38.79a25.13,25.13,0,0,0-1.07,2.77V124.8a1.09,1.09,0,0,0,1.23,1.23h5.89q1.14,0,1.14-1.23V80.15a22.05,22.05,0,0,1,15.71-21c.51-.13,1-.27,1.53-.37l.43-.08c.31-.06.62-.11.94-.15s.7-.1,1-.13c.54-.05,1.07-.07,1.6-.09h.57c.57,0,1.14,0,1.7.06l.88.09.72.11s0,0,.07,0a21.49,21.49,0,0,1,8.9,3.72,19.67,19.67,0,0,1,2.51,2.08l.11.1a40.71,40.71,0,0,1,5-6.67A32.32,32.32,0,0,0,266.42,55.48Z"/><path class="cls-1" d="M350.19,126A1.09,1.09,0,0,1,349,124.8V1.14Q349,0,350.19,0h5.89a1,1,0,0,1,1.14,1.14V124.8q0,1.23-1.14,1.23Z"/><path class="cls-1" d="M393,158.55a1,1,0,0,1-1.05.79h-6.33a1.18,1.18,0,0,1-1.05-.53,1.14,1.14,0,0,1-.09-1.14l12.66-31.46L365.92,51a1.14,1.14,0,0,1,.09-1.14,1.1,1.1,0,0,1,1-.53h6.42a1,1,0,0,1,1.05.7l27.07,65.21L427.71,50a1.19,1.19,0,0,1,1.14-.7h6.33a1.1,1.1,0,0,1,1,.53,1.17,1.17,0,0,1,.18,1.05Z"/><path class="cls-1" d="M445.81,126a1.09,1.09,0,0,1-1.23-1.23v-7.73a1.09,1.09,0,0,1,.35-.79l50.8-58.36H447.22q-1.14,0-1.14-1.23v-5.8q0-1.23,1.14-1.23H505a1.09,1.09,0,0,1,1.23,1.23v7.29a1.09,1.09,0,0,1-.35.79l-51.24,58.8h51.06A1.09,1.09,0,0,1,506.9,119v5.8a1.09,1.09,0,0,1-1.23,1.23Z"/><path class="cls-1" d="M524.24,112.54a36.9,36.9,0,0,1-8.85-27.95q1.4-16,13.14-26.11a36.2,36.2,0,0,1,51.91,4.72,36.57,36.57,0,0,1,8.3,27.19l-.17,1.93a1,1,0,0,1-1.15,1l-63.35,0a29.93,29.93,0,0,0,53.24,12.69,1.08,1.08,0,0,1,1.7-.29l4.83,3.33a1.18,1.18,0,0,1,.28,1.79A38.19,38.19,0,0,1,569,122.82a37.28,37.28,0,0,1-18.9,3.2A36.76,36.76,0,0,1,524.24,112.54Zm9.57-47.86q-8.89,7.78-10.08,20.38l56.9,0a26.72,26.72,0,0,0-7.47-18.48A27.84,27.84,0,0,0,554.68,58,26.84,26.84,0,0,0,533.81,64.68Z"/><path class="cls-3" d="M313.78,72l0,0a8,8,0,0,1-1.9,5.5c-2.22,2.59-10.36,10.22-11.2,11.52-.25.38.07,2.86.64,6.18l0,0L303,93.56l.16-.15s.47-.35,1.27.38l0,0h0l.68.88a.73.73,0,0,1-.08.66c-.17.2-2.31,2.16-3.24,3,.13.71.27,1.43.42,2.17,0,.1,0,.21.06.32l-.55.34a38.94,38.94,0,0,1-4.65,2.39l-.17.07-.2.09-.44.18h0l-.21-.41-4.15-5.32,0,0-8.59,7.78-1,.83h-.9c-.77,0-1.55,0-2.32-.08s-1.73-.14-2.6-.25c1.24-1.52,3.32-4,3.32-4l7.78-8.59-5.32-4.15,0,0-.36-.19-13.55-7-.47-.24-.27-.14.22-.24.73-.8.83-.91s10.09,2.25,18,3.75c.85-.93,2.8-3.06,3-3.24a.76.76,0,0,1,.67-.08l.91.72h0c.73.79.38,1.26.38,1.26l-.16.16-1.71,1.74h.06c3.3.57,5.75.87,6.13.62,1.29-.85,8.93-9,11.52-11.19a8,8,0,0,1,5.5-1.9l0,0a.09.09,0,0,1,0,0h0Z"/><path class="cls-1" d="M333.06,85.91h0A33.16,33.16,0,0,1,299.94,119a32.76,32.76,0,0,1-19.83-6.6c-.37-.28-.73-.58-1.09-.87l-.36-.29c-.37-.31-.72-.63-1.08-1l-.59-.54-.84-.83-.59-.62c1.24.16,2.48.27,3.72.31.28,0,.56,0,.85,0s.57,0,.85,0c.54,0,1.09,0,1.7,0l1-.05c.84-.05,1.69-.13,2.53-.24l1.27-.17c.71-.11,1.45-.25,2.2-.41.95-.2,1.91-.43,2.84-.7.38-.11.77-.22,1.17-.36s.65-.2,1.07-.35l.22-.08c.39-.13.76-.27,1.1-.41s.66-.25,1-.41l0,0,6.2,12,.24.47.14.27.24-.22.8-.73.91-.83s-1.54-6.9-2.92-13.78a39.39,39.39,0,0,0,8.81-7A38.64,38.64,0,0,0,317.59,87l.28-.53c.32-.59.64-1.22,1-2l.25-.57.25-.59,0-.06c0-.1.08-.18.11-.27.15-.35.28-.68.39-1s.3-.76.43-1.15l.09-.25c.13-.38.24-.71.34-1s.25-.79.35-1.15c.27-1,.51-1.92.7-2.85.17-.77.31-1.52.41-2.22.06-.43.12-.85.17-1.27q.14-1.14.23-2.41V69.6c0-.07,0-.14,0-.22v-.13c0-.41,0-.82.05-1.27v-.08c0-.31,0-.62,0-.94,0-.64,0-1.31-.06-2.05l0-.4c0-.61-.09-1.22-.15-1.83l-.06-.52-.08-.61c.21.19.41.38.62.59s.56.55.83.83l.58.62c.31.34.61.68.9,1l.52.64c.22.27.45.54.66.83A32.74,32.74,0,0,1,333,83.85v.24C333,84.79,333.06,85.37,333.06,85.91Z"/><path class="cls-4" d="M264.84,83.54c0,.31,0,.61-.05.92l0,.46c0,.33,0,.66,0,1s0,.66,0,1l0,.46c0,.31,0,.62.05.92v0A35,35,0,0,0,266.23,96c.27.9.58,1.8.92,2.67q.09.24.19.48c.27.68.57,1.33.88,2,.11.25.24.49.36.74q.7,1.36,1.5,2.64c.2.32.41.64.62,1q.77,1.16,1.64,2.24c.28.36.57.71.88,1.06l.46.52.46.52.47.5c.64.66,1.31,1.31,2,1.92l.52.45.53.45c.36.29.72.58,1.09.85l.47.35.73.52.5.34.59.38.59.36.6.36.45.26.8.44,1.2.61c.67.32,1.36.63,2.05.91l.52.2.66.25.66.24.68.22.6.18.13,0,.62.17.89.23c.39.1.79.19,1.19.27l.71.14.64.11.55.09.57.08.39.05.8.09.82.08.64,0,.59,0,.65,0h.91a35.19,35.19,0,0,0,0-70.38H299l-.65,0-.59,0-.64,0-.82.08-.8.09-.39.05-.57.08-.55.09-.64.11-.71.14c-.4.08-.8.17-1.19.27l-.89.23-.62.17-.13,0-.6.18-.68.22-.66.24-.66.25-.52.2c-.69.28-1.38.59-2.05.91q-.61.29-1.2.61l-.8.44c-.15.08-.31.17-.45.26s-.4.23-.6.36l-.59.36-.59.38-.5.34-.73.52-.47.35-1.09.85c-.18.14-.36.29-.53.45s-.35.29-.52.45c-.69.61-1.36,1.25-2,1.92-.16.16-.32.32-.47.5s-.32.34-.46.52-.31.34-.46.52c-.31.35-.6.7-.88,1.06q-.86,1.09-1.64,2.24c-.21.31-.42.63-.62,1-.53.85-1,1.74-1.5,2.64-.12.24-.25.49-.36.74-.32.65-.61,1.31-.88,2q-.11.24-.19.48c-.34.87-.65,1.76-.92,2.67a35,35,0,0,0-1.39,7.71Z"/><path class="cls-5" d="M260.21,80.35q.08-.59.18-1.18Q260.29,79.76,260.21,80.35Z"/><path class="cls-5" d="M261.47,74.52q.17-.58.36-1.15Q261.64,73.94,261.47,74.52Z"/><path class="cls-5" d="M260.48,78.69q.35-1.92.88-3.78Q260.83,76.77,260.48,78.69Z"/><path class="cls-5" d="M261.83,98.47q-.19-.57-.36-1.15Q261.64,97.9,261.83,98.47Z"/><path class="cls-5" d="M261.36,96.93q-.53-1.85-.88-3.78Q260.83,95.07,261.36,96.93Z"/><path class="cls-5" d="M260.39,92.67q-.1-.59-.18-1.18Q260.29,92.08,260.39,92.67Z"/><path class="cls-5" d="M264.77,84.93c0,.25,0,.49,0,.74q0-.63,0-1.25v.06Z"/><path class="cls-5" d="M264.78,87.37v.06q0-.62,0-1.25c0,.25,0,.49,0,.74Z"/><path class="cls-5" d="M260.48,93.15l-.09-.48Z"/><path class="cls-5" d="M264.83,83.68c0,.24,0,.49,0,.73C264.8,84.16,264.81,83.92,264.83,83.68Z"/><path class="cls-5" d="M261.47,97.32l-.11-.39Z"/><path class="cls-5" d="M262,98.84l-.13-.37Z"/><path class="cls-5" d="M264.79,87.43c0,.25,0,.49,0,.73C264.81,87.92,264.8,87.68,264.79,87.43Z"/><path class="cls-5" d="M264.76,86.18c0-.09,0-.17,0-.26s0-.17,0-.26c0,.09,0,.17,0,.26S264.75,86.09,264.76,86.18Z"/><path class="cls-5" d="M261.83,73.37,262,73Z"/><path class="cls-5" d="M260.39,79.17l.09-.48Z"/><path class="cls-5" d="M261.36,74.91l.11-.39Z"/><path class="cls-5" d="M260.21,91.49c0-.15,0-.29-.06-.44C260.17,91.19,260.19,91.34,260.21,91.49Z"/><path class="cls-5" d="M260.15,80.79c0-.15,0-.29.06-.44C260.19,80.5,260.17,80.65,260.15,80.79Z"/><path class="cls-5" d="M299.94,45.79a40.12,40.12,0,0,0-36.18,22.77,41.69,41.69,0,0,1,2.47,7.23c.27-.9.58-1.8.92-2.67q.09-.24.19-.48c.27-.67.56-1.33.88-2,.11-.25.24-.5.36-.74.46-.9,1-1.78,1.5-2.64.2-.32.41-.64.62-1,.52-.77,1.06-1.52,1.64-2.24.28-.36.57-.71.88-1.06.15-.18.3-.35.46-.52s.31-.35.46-.52.31-.34.47-.5c.64-.66,1.31-1.31,2-1.92.17-.16.34-.31.52-.45s.35-.31.53-.45l1.09-.85.47-.35.73-.52.5-.34.59-.38.59-.36c.2-.13.39-.25.6-.36s.3-.18.45-.26l.8-.44q.59-.32,1.2-.61c.67-.32,1.36-.63,2.05-.91l.52-.2.66-.25.66-.24.68-.22.6-.18.13,0,.62-.17.89-.23c.39-.1.79-.19,1.19-.27l.71-.14.64-.11.55-.09.57-.08.39-.05.8-.09.82-.08.64,0,.59,0,.65,0h.91a35.19,35.19,0,0,1,0,70.38H299l-.65,0-.59,0-.64,0-.82-.08-.8-.09-.39-.05-.57-.08-.55-.09-.64-.11-.71-.14c-.4-.08-.8-.17-1.19-.27l-.89-.23-.62-.17-.13,0-.6-.18-.68-.22-.66-.24-.66-.25-.52-.2c-.69-.28-1.38-.59-2.05-.91l-1.2-.61-.8-.44-.45-.26-.6-.36-.59-.36-.59-.38-.5-.34-.73-.52-.47-.35c-.37-.27-.73-.56-1.09-.85l-.53-.45-.52-.45c-.69-.61-1.36-1.25-2-1.92l-.47-.5-.46-.52-.46-.52c-.31-.35-.6-.7-.88-1.06q-.86-1.09-1.64-2.24c-.21-.31-.41-.63-.62-1q-.8-1.28-1.5-2.64c-.12-.25-.25-.49-.36-.74-.31-.65-.61-1.31-.88-2q-.11-.24-.19-.48c-.34-.87-.65-1.76-.92-2.67a35,35,0,0,1-1.39-7.71v0s0-.09,0-.13c0-.24,0-.49,0-.73v-.06l0-.46c0-.25,0-.49,0-.74,0-.09,0-.17,0-.26s0-.17,0-.26c0-.25,0-.49,0-.74l0-.46v-.06c0-.25,0-.49,0-.73,0,0,0-.09,0-.13v0a39.86,39.86,0,0,0-2.47-11.67c-.14.38-.28.77-.41,1.16l-.13.37q-.19.57-.36,1.15l-.11.39q-.53,1.85-.88,3.78l-.09.48q-.1.59-.18,1.18c0,.15,0,.29-.06.44q-.17,1.32-.25,2.67v.1c0,.78-.08,1.57-.08,2.36s0,1.58.08,2.36v.1q.09,1.34.25,2.66c0,.15,0,.29.06.44q.08.59.18,1.18l.09.48q.35,1.92.88,3.78l.11.39q.17.58.36,1.15l.13.37c.13.39.27.78.41,1.16.42,1.11.88,2.21,1.39,3.27a40.13,40.13,0,1,0,36.18-57.48Z"/><path class="cls-4" d="M270.7,66.34q.77-1.16,1.64-2.24c.28-.36.57-.71.88-1.06-.31.35-.6.7-.88,1.06C271.76,64.82,271.22,65.56,270.7,66.34Z"/><path class="cls-4" d="M282.22,55.52c-.2.11-.4.23-.6.36.2-.13.39-.25.6-.36s.3-.18.45-.26l.8-.44-.8.44C282.52,55.34,282.36,55.42,282.22,55.52Z"/><path class="cls-4" d="M297.79,50.79l.59,0,.65,0-.65,0Z"/><path class="cls-6" d="M272.34,107.75c.28.36.57.71.88,1.06l.46.52-.46-.52c-.31-.35-.6-.7-.88-1.06q-.86-1.09-1.64-2.24c-.21-.31-.41-.63-.62-1,.2.32.41.64.62,1Q271.47,106.66,272.34,107.75Z"/><path class="cls-2" d="M263.85,102.91l0,.07,0,0Z"/></svg>