<svg id="Layer_1" data-name="Layer 1" xmlns="http://www.w3.org/2000/svg" viewBox="0 0 272.12 272.11"><defs><style>.cls-1,.cls-6{fill:#ccc;}.cls-2{fill:none;}.cls-3{fill:#006;}.cls-4{fill:#316bad;}.cls-5{fill:#fff;}.cls-6{opacity:0.28;}</style></defs><title>Artboard 1</title><path class="cls-1" d="M183,89l-.11.09a27.13,27.13,0,0,1-6.44,18.66c-7.54,8.77-35.11,34.66-38,39-.84,1.27.24,9.7,2.18,21l-.56.58.65-.65,5.83-5.74.54-.52s1.6-1.19,4.3,1.3l.09.11,0,0,2.31,3a2.46,2.46,0,0,1-.28,2.25c-.58.69-7.82,7.32-11,10.19.45,2.4.93,4.84,1.43,7.34.06.35.13.71.22,1.08-.6.39-1.23.78-1.88,1.14A132,132,0,0,1,126.56,196l-.58.24-.69.3c-.5.22-1,.41-1.49.6,0,0,0,0,0,0l-.71-1.38L109,177.69l-.11-.13L79.74,203.95s-1.38,1.14-3.35,2.81c-.8,0-1.62,0-2.42,0h-.65c-2.61,0-5.25-.11-7.86-.28-2.94-.19-5.87-.48-8.81-.86,4.21-5.14,11.25-13.52,11.25-13.52L94.28,163,76.22,148.92l-.13-.11-1.23-.65L28.93,124.48l-1.6-.82-.91-.48.76-.82,2.48-2.7,2.83-3.09s34.21,7.64,61.07,12.72c2.87-3.15,9.5-10.39,10.19-11A2.58,2.58,0,0,1,106,118l3.09,2.44,0,0c2.46,2.68,1.3,4.28,1.3,4.28l-.54.54-5.81,5.9.19,0c11.19,1.94,19.5,3,20.8,2.12,4.38-2.89,30.28-30.41,39-37.94A27,27,0,0,1,182.75,89l.11-.11a.31.31,0,0,1,0,.13H183Z"/><path class="cls-2" d="M136.06,246.19A110.14,110.14,0,1,0,25.93,136.05,110.26,110.26,0,0,0,136.06,246.19Z"/><path class="cls-3" d="M248.36,136v0a112.43,112.43,0,0,1-112.3,112.3A111.08,111.08,0,0,1,68.84,226c-1.25-1-2.46-2-3.69-3l-1.21-1c-1.25-1.06-2.44-2.14-3.65-3.24-.67-.6-1.34-1.23-2-1.84-1-.93-1.9-1.86-2.85-2.83-.67-.69-1.34-1.4-2-2.12,4.19.54,8.4.91,12.61,1.06,1,.06,1.9.11,2.87.09s1.92.06,2.87.06c1.84,0,3.69,0,5.77-.13,1.1,0,2.22-.09,3.24-.17,2.85-.17,5.74-.43,8.57-.8,1.45-.17,2.87-.37,4.32-.58,2.4-.37,4.92-.84,7.47-1.38,3.22-.67,6.48-1.47,9.63-2.38,1.3-.37,2.61-.76,4-1.21,1.1-.32,2.2-.69,3.63-1.19l.73-.26c1.32-.43,2.57-.91,3.74-1.38s2.22-.86,3.41-1.38l.15-.06,21,40.75.82,1.6.48.91.82-.76,2.7-2.48,3.09-2.83s-5.23-23.41-9.91-46.71A133.57,133.57,0,0,0,175.35,169a131,131,0,0,0,20.56-29.2c.35-.63.65-1.21,1-1.79,1.08-2,2.16-4.15,3.35-6.67.32-.73.6-1.34.86-1.94s.6-1.36.86-2l.11-.22c.13-.32.26-.6.37-.93.52-1.19,1-2.31,1.32-3.26.54-1.32,1-2.59,1.45-3.89.15-.39.24-.65.3-.84.43-1.27.82-2.4,1.14-3.52.45-1.36.84-2.68,1.19-3.89.93-3.24,1.73-6.5,2.38-9.65.56-2.61,1-5.14,1.4-7.52.22-1.47.41-2.89.58-4.32q.49-3.85.78-8.16l0-.52c0-.24,0-.48,0-.73l0-.45c.09-1.4.13-2.79.17-4.3V75c0-1.06,0-2.12,0-3.2,0-2.16-.06-4.43-.19-7L213,63.47c-.13-2.07-.3-4.12-.52-6.2l-.19-1.77L212,53.43c.71.65,1.4,1.3,2.09,2,1,.91,1.9,1.86,2.81,2.83.67.69,1.32,1.38,2,2.09,1,1.14,2.07,2.29,3.07,3.48L223.74,66c.76.91,1.51,1.84,2.25,2.81A111,111,0,0,1,248.12,129l0,.8C248.3,132.21,248.36,134.17,248.36,136Z"/><path class="cls-2" d="M17,128c-.09,1-.13,2.07-.17,3.13l-.06,1.55c0,1.12,0,2.25,0,3.37s0,2.25,0,3.37l.06,1.55c0,1.06.09,2.09.17,3.13v.13a118.71,118.71,0,0,0,4.73,26.15c.93,3.07,2,6.09,3.13,9q.29.81.65,1.62c.93,2.29,1.92,4.51,3,6.72.39.84.82,1.66,1.23,2.51q2.36,4.6,5.07,8.94c.69,1.1,1.38,2.18,2.09,3.24q2.62,3.92,5.55,7.6c1,1.23,1.94,2.42,3,3.61.52.6,1,1.19,1.55,1.77s1,1.17,1.58,1.75,1.06,1.12,1.6,1.68c2.18,2.25,4.43,4.43,6.78,6.5.58.52,1.17,1,1.77,1.53s1.19,1,1.79,1.51c1.23,1,2.44,2,3.69,2.89.54.41,1.06.8,1.6,1.19q1.2.87,2.46,1.75c.56.39,1.12.78,1.68,1.14l2,1.3c.65.43,1.32.84,2,1.23s1.34.82,2,1.21c.5.3,1,.6,1.53.89q1.36.78,2.72,1.49c1.34.71,2.72,1.4,4.08,2.07,2.27,1.1,4.6,2.14,7,3.09.58.24,1.19.48,1.77.69.76.3,1.49.58,2.25.84s1.49.54,2.25.8,1.53.52,2.29.76,1.36.43,2,.63a3.7,3.7,0,0,1,.45.15l2.12.58c1,.28,2,.54,3,.78,1.34.35,2.68.65,4,.93.8.17,1.6.32,2.4.48s1.45.28,2.18.39,1.23.22,1.86.3,1.27.19,1.92.28c.43.06.86.13,1.32.17.91.11,1.81.22,2.72.3s1.84.19,2.76.26c.71.06,1.43.11,2.16.15s1.32.06,2,.09,1.47.06,2.2.09c1,0,2.05,0,3.09,0a119.32,119.32,0,1,0,0-238.63c-1,0-2.05,0-3.09,0-.73,0-1.47,0-2.2.09s-1.34,0-2,.09-1.43.09-2.16.15c-.93.06-1.84.15-2.76.26s-1.81.19-2.72.3c-.45,0-.89.11-1.32.17-.65.09-1.3.17-1.92.28s-1.23.19-1.86.3-1.45.24-2.18.39-1.6.3-2.4.48c-1.36.28-2.7.58-4,.93-1,.24-2,.5-3,.78l-2.12.58a3.75,3.75,0,0,1-.45.15c-.67.19-1.36.41-2,.63s-1.53.5-2.29.76-1.49.52-2.25.8-1.51.54-2.25.84c-.58.22-1.19.45-1.77.69-2.35,1-4.69,2-7,3.09q-2.07,1-4.08,2.07-1.39.71-2.72,1.49c-.52.28-1,.56-1.53.89-.69.37-1.36.78-2,1.21l-2,1.23c-.67.41-1.34.84-2,1.3s-1.14.76-1.68,1.14q-1.23.84-2.46,1.75c-.54.39-1.08.78-1.6,1.19-1.25,1-2.48,1.92-3.69,2.89-.6.48-1.21,1-1.79,1.51s-1.19,1-1.77,1.53c-2.35,2.07-4.6,4.25-6.78,6.5-.54.54-1.08,1.1-1.6,1.68S47.5,56.06,47,56.67s-1.06,1.17-1.55,1.77c-1,1.19-2,2.38-3,3.61q-2.92,3.69-5.55,7.6c-.71,1.06-1.43,2.14-2.09,3.24-1.81,2.89-3.52,5.9-5.07,8.94-.41.82-.84,1.66-1.23,2.51-1.08,2.2-2.07,4.45-3,6.72q-.36.81-.65,1.62c-1.17,3-2.2,6-3.13,9A118.71,118.71,0,0,0,17,127.87Z"/><path class="cls-4" d="M1.33,117.18q.28-2,.62-4Q1.62,115.17,1.33,117.18Z"/><path class="cls-4" d="M5.6,97.41q.58-2,1.23-3.92Q6.19,95.44,5.6,97.41Z"/><path class="cls-4" d="M2.25,111.54q1.19-6.52,3-12.81Q3.44,105,2.25,111.54Z"/><path class="cls-4" d="M6.83,178.61q-.64-1.94-1.23-3.91Q6.19,176.67,6.83,178.61Z"/><path class="cls-4" d="M5.23,173.38q-1.79-6.29-3-12.81Q3.43,167.09,5.23,173.38Z"/><path class="cls-4" d="M2,158.93q-.34-2-.62-4Q1.61,156.94,2,158.93Z"/><path class="cls-4" d="M16.79,132.68c0,.83,0,1.67,0,2.5q0-2.13.11-4.25c0,.07,0,.13,0,.19Z"/><path class="cls-4" d="M16.86,141c0,.07,0,.13,0,.19q-.09-2.12-.11-4.25c0,.83,0,1.67,0,2.5Z"/><path class="cls-4" d="M2.25,160.57c-.1-.55-.2-1.09-.29-1.64C2,159.48,2.15,160,2.25,160.57Z"/><path class="cls-4" d="M17,128.45c-.05.83-.1,1.65-.14,2.49C16.9,130.1,16.94,129.27,17,128.45Z"/><path class="cls-4" d="M5.6,174.69c-.13-.44-.25-.88-.37-1.32C5.35,173.82,5.47,174.26,5.6,174.69Z"/><path class="cls-4" d="M7.26,179.87c-.14-.42-.29-.84-.43-1.26C7,179,7.11,179.45,7.26,179.87Z"/><path class="cls-4" d="M16.87,141.17c0,.83.09,1.66.14,2.49C16.94,142.83,16.9,142,16.87,141.17Z"/><path class="cls-4" d="M16.76,136.92c0-.29,0-.58,0-.87s0-.58,0-.87c0,.29,0,.58,0,.87S16.76,136.63,16.76,136.92Z"/><path class="cls-4" d="M6.83,93.49c.14-.42.28-.84.43-1.26C7.11,92.66,7,93.07,6.83,93.49Z"/><path class="cls-4" d="M2,113.18c.09-.55.19-1.09.29-1.64C2.15,112.08,2,112.63,2,113.18Z"/><path class="cls-4" d="M5.23,98.73c.12-.44.24-.88.37-1.32C5.47,97.85,5.35,98.29,5.23,98.73Z"/><path class="cls-4" d="M1.33,154.93c-.07-.5-.13-1-.19-1.5C1.21,153.93,1.26,154.43,1.33,154.93Z"/><path class="cls-4" d="M1.14,118.68c.06-.5.12-1,.19-1.5C1.26,117.68,1.21,118.18,1.14,118.68Z"/><path class="cls-4" d="M136.06,0A136,136,0,0,0,13.38,77.2a141.35,141.35,0,0,1,8.38,24.51c.93-3.07,2-6.09,3.13-9q.29-.81.65-1.62c.91-2.27,1.9-4.51,3-6.72.39-.84.82-1.68,1.23-2.51,1.55-3,3.26-6,5.07-8.94.67-1.1,1.38-2.18,2.09-3.24q2.62-3.92,5.55-7.6c1-1.23,1.94-2.42,3-3.61.5-.6,1-1.19,1.55-1.77s1-1.19,1.58-1.75,1.06-1.14,1.6-1.68C52.36,51,54.6,48.81,57,46.73c.58-.54,1.17-1,1.77-1.53s1.19-1,1.79-1.51c1.21-1,2.44-1.94,3.69-2.89.52-.41,1.06-.8,1.6-1.19q1.23-.91,2.46-1.75c.54-.39,1.12-.78,1.68-1.14s1.32-.89,2-1.3l2-1.23c.67-.43,1.34-.84,2-1.21.5-.32,1-.6,1.53-.89q1.33-.78,2.72-1.49,2-1.1,4.08-2.07c2.27-1.1,4.6-2.14,7-3.09.58-.24,1.19-.48,1.77-.69.73-.3,1.49-.58,2.25-.84s1.49-.54,2.25-.8,1.53-.52,2.29-.76,1.36-.43,2-.63a3.75,3.75,0,0,0,.45-.15L104.4,21c1-.28,2-.54,3-.78,1.34-.35,2.68-.65,4-.93.8-.17,1.6-.35,2.4-.48s1.45-.28,2.18-.39,1.23-.22,1.86-.3,1.27-.19,1.92-.28c.43-.06.86-.13,1.32-.17.91-.11,1.81-.22,2.72-.3s1.84-.19,2.76-.26c.73-.06,1.45-.11,2.16-.15s1.32-.06,2-.09,1.47-.06,2.2-.09c1,0,2.05,0,3.09,0a119.32,119.32,0,1,1,0,238.63c-1,0-2.05,0-3.09,0-.73,0-1.47,0-2.2-.09s-1.32,0-2-.09-1.45-.09-2.16-.15c-.93-.06-1.84-.15-2.76-.26s-1.81-.19-2.72-.3c-.45,0-.89-.11-1.32-.17-.65-.09-1.3-.17-1.92-.28s-1.25-.19-1.86-.3-1.45-.24-2.18-.39-1.6-.3-2.4-.48c-1.36-.28-2.7-.58-4-.93-1-.24-2-.5-3-.78l-2.12-.58a3.7,3.7,0,0,0-.45-.15c-.67-.19-1.36-.41-2-.63s-1.53-.5-2.29-.76-1.51-.52-2.25-.8-1.49-.54-2.25-.84c-.58-.22-1.19-.45-1.77-.69-2.35-1-4.69-2-7-3.09-1.36-.67-2.74-1.36-4.08-2.07q-1.36-.71-2.72-1.49c-.52-.28-1-.58-1.53-.89-.69-.39-1.36-.8-2-1.21s-1.34-.8-2-1.23l-2-1.3c-.56-.37-1.12-.76-1.68-1.14q-1.26-.87-2.46-1.75c-.54-.39-1.06-.78-1.6-1.19-1.25-.93-2.46-1.9-3.69-2.89-.6-.5-1.21-1-1.79-1.51s-1.19-1-1.77-1.53c-2.35-2.07-4.6-4.25-6.78-6.5-.54-.56-1.08-1.12-1.6-1.68S47.52,216,47,215.44s-1-1.17-1.55-1.77c-1-1.19-2-2.38-3-3.61q-2.92-3.69-5.55-7.6c-.71-1.06-1.4-2.14-2.09-3.24q-2.72-4.34-5.07-8.94c-.41-.84-.84-1.66-1.23-2.51-1.06-2.2-2.05-4.43-3-6.72q-.36-.81-.65-1.62c-1.17-3-2.2-6-3.13-9A118.71,118.71,0,0,1,17,144.24v-.13c0-.15,0-.3,0-.45-.05-.83-.1-1.66-.14-2.49,0-.07,0-.13,0-.19l-.06-1.55c0-.83,0-1.67,0-2.5,0-.29,0-.58,0-.87s0-.58,0-.87c0-.83,0-1.67,0-2.5l.06-1.55c0-.07,0-.13,0-.19,0-.83.09-1.66.14-2.49,0-.15,0-.3,0-.45v-.13A135.16,135.16,0,0,0,8.65,88.3c-.49,1.3-.95,2.61-1.39,3.93-.14.42-.29.84-.43,1.26q-.64,1.95-1.23,3.92c-.13.44-.25.88-.37,1.32q-1.79,6.29-3,12.81c-.1.55-.2,1.09-.29,1.64q-.34,2-.62,4c-.07.5-.13,1-.19,1.5q-.28,2.21-.5,4.43c0,.32-.05.65-.08,1C.21,128,0,132,0,136.05s.21,8,.56,12c0,.33.05.66.08,1q.22,2.23.5,4.43c.06.5.12,1,.19,1.5q.28,2,.62,4c.09.55.19,1.09.29,1.64q1.19,6.52,3,12.81c.13.44.24.88.37,1.32q.58,2,1.23,3.91c.14.42.28.84.43,1.26.45,1.32.91,2.63,1.39,3.93,1.43,3.78,3,7.49,4.73,11.1A136.06,136.06,0,1,0,136.06,0Z"/><path class="cls-3" d="M13.68,193.65l.12.23.06-.15Z"/><path class="cls-5" d="M35.79,199.63l-.06,0q-.78-1.23-1.49-2.46Z"/><path class="cls-5" d="M52,207.17l-.17,0a.65.65,0,0,0-.09-.22,0,0,0,0,1,0,0A1.49,1.49,0,0,0,52,207.17Z"/><path class="cls-6" d="M52,207.17l-.17,0a.65.65,0,0,0-.09-.22,0,0,0,0,1,0,0A1.49,1.49,0,0,0,52,207.17Z"/><path class="cls-5" d="M148.09,185.77a11.62,11.62,0,0,1-1.62,1.08C147,186.5,147.55,186.15,148.09,185.77Z"/></svg>