<svg xmlns:xlink="http://www.w3.org/1999/xlink" version="1.1" class="highcharts-root" xmlns="http://www.w3.org/2000/svg" width="600" height="400" viewBox="0 0 600 400" style="block-size:400px;border:0px none rgb(80, 80, 80);border-bottom:0px none rgb(80, 80, 80);border-bottom-color:rgb(80, 80, 80);border-color:rgb(80, 80, 80);border-left:0px none rgb(80, 80, 80);border-left-color:rgb(80, 80, 80);border-right:0px none rgb(80, 80, 80);border-right-color:rgb(80, 80, 80);border-top:0px none rgb(80, 80, 80);border-top-color:rgb(80, 80, 80);box-sizing:border-box;caret-color:rgb(80, 80, 80);color:rgb(80, 80, 80);column-rule:0px none rgb(80, 80, 80);column-rule-color:rgb(80, 80, 80);display:block;font-family:&quot;Lucida Grande&quot;, &quot;Lucida Sans Unicode&quot;, Arial, Helvetica, sans-serif;font-size:12px;inline-size:600px;outline:rgb(80, 80, 80) none 0px;outline-color:rgb(80, 80, 80);text-align:left;text-decoration:none solid rgb(80, 80, 80);text-decoration-color:rgb(80, 80, 80);text-size-adjust:100%;transform-origin:300px 200px;webkit-border-after:0px none rgb(80, 80, 80);webkit-border-after-color:rgb(80, 80, 80);webkit-border-before:0px none rgb(80, 80, 80);webkit-border-before-color:rgb(80, 80, 80);webkit-border-end:0px none rgb(80, 80, 80);webkit-border-end-color:rgb(80, 80, 80);webkit-border-start:0px none rgb(80, 80, 80);webkit-border-start-color:rgb(80, 80, 80);webkit-box-sizing:border-box;webkit-column-rule:0px none rgb(80, 80, 80);webkit-column-rule-color:rgb(80, 80, 80);webkit-locale:&quot;en&quot;;webkit-perspective-origin:300px 200px;webkit-text-emphasis-color:rgb(80, 80, 80);webkit-text-fill-color:rgb(80, 80, 80);webkit-text-size-adjust:100%;webkit-text-stroke-color:rgb(80, 80, 80);webkit-transform-origin:300px 200px;" stroke-width="1px"><desc>Created with Highcharts 6.0.7</desc><defs><clipPath id="highcharts-j956a6c-216"><rect x="0" y="0" width="479" height="249"></rect></clipPath></defs><rect class="highcharts-background" x="0.5px" y="0.5px" width="598" height="398" rx="0" ry="0" fill="rgb(255, 255, 255)" style="block-size:398px;inline-size:598px;rx:0px;ry:0px;"></rect><rect class="highcharts-plot-background" x="111px" y="65px" width="479" height="249" fill="none" style="block-size:249px;inline-size:479px;"></rect><g class="highcharts-pane-group"></g><g class="highcharts-grid highcharts-xaxis-grid "><path class="highcharts-grid-line" d="M 114.5 65 L 114.5 314" opacity="1" fill="none" stroke="rgb(230, 230, 230)" stroke-width="0px"></path><path class="highcharts-grid-line" d="M 137.5 65 L 137.5 314" opacity="1" fill="none" stroke="rgb(230, 230, 230)" stroke-width="0px"></path><path class="highcharts-grid-line" d="M 161.5 65 L 161.5 314" opacity="1" fill="none" stroke="rgb(230, 230, 230)" stroke-width="0px"></path><path class="highcharts-grid-line" d="M 185.5 65 L 185.5 314" opacity="1" fill="none" stroke="rgb(230, 230, 230)" stroke-width="0px"></path><path class="highcharts-grid-line" d="M 208.5 65 L 208.5 314" opacity="1" fill="none" stroke="rgb(230, 230, 230)" stroke-width="0px"></path><path class="highcharts-grid-line" d="M 232.5 65 L 232.5 314" opacity="1" fill="none" stroke="rgb(230, 230, 230)" stroke-width="0px"></path><path class="highcharts-grid-line" d="M 255.5 65 L 255.5 314" opacity="1" fill="none" stroke="rgb(230, 230, 230)" stroke-width="0px"></path><path class="highcharts-grid-line" d="M 279.5 65 L 279.5 314" opacity="1" fill="none" stroke="rgb(230, 230, 230)" stroke-width="0px"></path><path class="highcharts-grid-line" d="M 302.5 65 L 302.5 314" opacity="1" fill="none" stroke="rgb(230, 230, 230)" stroke-width="0px"></path><path class="highcharts-grid-line" d="M 326.5 65 L 326.5 314" opacity="1" fill="none" stroke="rgb(230, 230, 230)" stroke-width="0px"></path><path class="highcharts-grid-line" d="M 350.5 65 L 350.5 314" opacity="1" fill="none" stroke="rgb(230, 230, 230)" stroke-width="0px"></path><path class="highcharts-grid-line" d="M 373.5 65 L 373.5 314" opacity="1" fill="none" stroke="rgb(230, 230, 230)" stroke-width="0px"></path><path class="highcharts-grid-line" d="M 397.5 65 L 397.5 314" opacity="1" fill="none" stroke="rgb(230, 230, 230)" stroke-width="0px"></path><path class="highcharts-grid-line" d="M 420.5 65 L 420.5 314" opacity="1" fill="none" stroke="rgb(230, 230, 230)" stroke-width="0px"></path><path class="highcharts-grid-line" d="M 444.5 65 L 444.5 314" opacity="1" fill="none" stroke="rgb(230, 230, 230)" stroke-width="0px"></path><path class="highcharts-grid-line" d="M 467.5 65 L 467.5 314" opacity="1" fill="none" stroke="rgb(230, 230, 230)" stroke-width="0px"></path><path class="highcharts-grid-line" d="M 491.5 65 L 491.5 314" opacity="1" fill="none" stroke="rgb(230, 230, 230)" stroke-width="0px"></path><path class="highcharts-grid-line" d="M 514.5 65 L 514.5 314" opacity="1" fill="none" stroke="rgb(230, 230, 230)" stroke-width="0px"></path><path class="highcharts-grid-line" d="M 538.5 65 L 538.5 314" opacity="1" fill="none" stroke="rgb(230, 230, 230)" stroke-width="0px"></path><path class="highcharts-grid-line" d="M 562.5 65 L 562.5 314" opacity="1" fill="none" stroke="rgb(230, 230, 230)" stroke-width="0px"></path><path class="highcharts-grid-line" d="M 585.5 65 L 585.5 314" opacity="1" fill="none" stroke="rgb(230, 230, 230)" stroke-width="0px"></path></g><g class="highcharts-grid highcharts-yaxis-grid highcharts-color-1" fill="rgb(67, 67, 72)" stroke="rgb(67, 67, 72)"><path class="highcharts-grid-line" d="M 111 314.5 L 590 314.5" opacity="1" fill="none" stroke="rgb(230, 230, 230)"></path><path class="highcharts-grid-line" d="M 111 252.5 L 590 252.5" opacity="1" fill="none" stroke="rgb(230, 230, 230)"></path><path class="highcharts-grid-line" d="M 111 190.5 L 590 190.5" opacity="1" fill="none" stroke="rgb(230, 230, 230)"></path><path class="highcharts-grid-line" d="M 111 127.5 L 590 127.5" opacity="1" fill="none" stroke="rgb(230, 230, 230)"></path><path class="highcharts-grid-line" d="M 111 64.5 L 590 64.5" opacity="1" fill="none" stroke="rgb(230, 230, 230)"></path></g><g class="highcharts-grid highcharts-yaxis-grid highcharts-color-1" fill="rgb(67, 67, 72)" stroke="rgb(67, 67, 72)"></g><g class="highcharts-grid highcharts-yaxis-grid highcharts-color-2" fill="rgb(144, 237, 125)" stroke="rgb(144, 237, 125)"></g><g class="highcharts-grid highcharts-yaxis-grid highcharts-color-3" fill="rgb(247, 163, 92)" stroke="rgb(247, 163, 92)"></g><rect class="highcharts-plot-border" x="110.5px" y="64.5px" width="480" height="250" fill="none" style="block-size:250px;inline-size:480px;"></rect><g class="highcharts-axis highcharts-xaxis "><path class="highcharts-axis-line" d="M 111 314.5 L 590 314.5" fill="none" stroke="rgb(204, 214, 235)"></path><path class="highcharts-tick" d="M 114.5 314 L 114.5 324" opacity="1" stroke="rgb(204, 214, 235)"></path><path class="highcharts-tick" d="M 137.5 314 L 137.5 324" opacity="1" stroke="rgb(204, 214, 235)"></path><path class="highcharts-tick" d="M 161.5 314 L 161.5 324" opacity="1" stroke="rgb(204, 214, 235)"></path><path class="highcharts-tick" d="M 185.5 314 L 185.5 324" opacity="1" stroke="rgb(204, 214, 235)"></path><path class="highcharts-tick" d="M 208.5 314 L 208.5 324" opacity="1" stroke="rgb(204, 214, 235)"></path><path class="highcharts-tick" d="M 232.5 314 L 232.5 324" opacity="1" stroke="rgb(204, 214, 235)"></path><path class="highcharts-tick" d="M 255.5 314 L 255.5 324" opacity="1" stroke="rgb(204, 214, 235)"></path><path class="highcharts-tick" d="M 279.5 314 L 279.5 324" opacity="1" stroke="rgb(204, 214, 235)"></path><path class="highcharts-tick" d="M 302.5 314 L 302.5 324" opacity="1" stroke="rgb(204, 214, 235)"></path><path class="highcharts-tick" d="M 326.5 314 L 326.5 324" opacity="1" stroke="rgb(204, 214, 235)"></path><path class="highcharts-tick" d="M 350.5 314 L 350.5 324" opacity="1" stroke="rgb(204, 214, 235)"></path><path class="highcharts-tick" d="M 373.5 314 L 373.5 324" opacity="1" stroke="rgb(204, 214, 235)"></path><path class="highcharts-tick" d="M 397.5 314 L 397.5 324" opacity="1" stroke="rgb(204, 214, 235)"></path><path class="highcharts-tick" d="M 420.5 314 L 420.5 324" opacity="1" stroke="rgb(204, 214, 235)"></path><path class="highcharts-tick" d="M 444.5 314 L 444.5 324" opacity="1" stroke="rgb(204, 214, 235)"></path><path class="highcharts-tick" d="M 467.5 314 L 467.5 324" opacity="1" stroke="rgb(204, 214, 235)"></path><path class="highcharts-tick" d="M 491.5 314 L 491.5 324" opacity="1" stroke="rgb(204, 214, 235)"></path><path class="highcharts-tick" d="M 514.5 314 L 514.5 324" opacity="1" stroke="rgb(204, 214, 235)"></path><path class="highcharts-tick" d="M 538.5 314 L 538.5 324" opacity="1" stroke="rgb(204, 214, 235)"></path><path class="highcharts-tick" d="M 562.5 314 L 562.5 324" opacity="1" stroke="rgb(204, 214, 235)"></path><path class="highcharts-tick" d="M 585.5 314 L 585.5 324" opacity="1" stroke="rgb(204, 214, 235)"></path></g><g class="highcharts-axis highcharts-yaxis highcharts-color-1" fill="rgb(67, 67, 72)" stroke="rgb(67, 67, 72)"><path class="highcharts-axis-line" d="M 111 65 L 111 314" fill="none" stroke="rgb(204, 214, 235)" stroke-width="0px"></path></g><g class="highcharts-axis highcharts-yaxis highcharts-color-1" fill="rgb(67, 67, 72)" stroke="rgb(67, 67, 72)"><path class="highcharts-axis-line" d="M 10 65 L 10 314" fill="none" stroke="rgb(204, 214, 235)" stroke-width="0px"></path></g><g class="highcharts-axis highcharts-yaxis highcharts-color-2" fill="rgb(144, 237, 125)" stroke="rgb(144, 237, 125)"><path class="highcharts-axis-line" d="M 590 65 L 590 314" fill="none" stroke="rgb(204, 214, 235)" stroke-width="0px"></path></g><g class="highcharts-axis highcharts-yaxis highcharts-color-3" fill="rgb(247, 163, 92)" stroke="rgb(247, 163, 92)"><path class="highcharts-axis-line" d="M 10 65 L 10 314" fill="none" stroke="rgb(204, 214, 235)" stroke-width="0px"></path></g><g class="highcharts-series-group"><g class="highcharts-series highcharts-series-0 highcharts-area-series highcharts-color-0 " transform="translate(111,65) scale(1 1)" clip-path="url(#highcharts-j956a6c-216)" fill="rgb(124, 181, 236)" stroke="rgb(124, 181, 236)" style="transform:matrix(1, 0, 0, 1, 111, 65);webkit-clip-path:url(#highcharts-j956a6c-216);webkit-transform:matrix(1, 0, 0, 1, 111, 65);webkit-transition:opacity 0.25s ease 0s;webkit-transition-duration:0.25s;webkit-transition-property:opacity;"><path d="M 3.9262295081967 49.80000000000001 L 11.77868852459 52.54937499958501 L 19.631147540984 55.29874999917001 L 27.483606557377 58.048124998755014 L 35.33606557377 60.797499998340015 L 43.188524590164 63.546874997925016 L 51.040983606557 66.29624999751002 L 58.893442622951 69.04562499709502 L 66.745901639344 71.79499999668002 L 74.598360655738 74.54437499626502 L 82.450819672131 77.29374999585002 L 90.303278688525 80.04312499543502 L 98.155737704918 82.79249999502002 L 106.00819672131 85.54187499460502 L 113.8606557377 88.29124999419003 L 121.7131147541 91.040624993775 L 129.56557377049 93.78999999336003 L 137.41803278689 96.539374992945 L 145.27049180328 99.28874999253003 L 153.12295081967 102.038124992115 L 160.97540983607 104.7874999917 L 168.82786885246 107.536874991285 L 176.68032786885 110.28624999087 L 184.53278688525 113.035624990455 L 192.38524590164 115.78499999004 L 200.23770491803 118.53437498962501 L 208.09016393443 121.28374998921001 L 215.94262295082 124.033124988795 L 223.79508196721 126.78249998838 L 231.64754098361 129.531874987965 L 239.5 132.28124998754998 L 247.35245901639 135.030624987135 L 255.20491803279 137.77999998672 L 263.05737704918 140.52937498630502 L 270.90983606557 143.27874998589 L 278.76229508197 146.02812498547502 L 286.61475409836 148.77749998506 L 294.46721311475 151.52687498464502 L 302.31967213115 154.27624998423 L 310.17213114754 157.02562498381502 L 318.02459016393 159.7749999834 L 325.87704918033 162.52437498298502 L 333.72950819672 165.27374998257 L 341.58196721311 168.02312498215503 L 349.43442622951 170.77249998174 L 357.2868852459 173.521874981325 L 365.1393442623 176.27124998091 L 372.99180327869 179.020624980495 L 380.84426229508 181.76999998008 L 388.69672131148 184.519374979665 L 396.54918032787 187.26874997925 L 404.40163934426 190.018124978835 L 412.25409836066 192.76749997842 L 420.10655737705 195.516874978005 L 427.95901639344 198.26624997759 L 435.81147540984 201.015624977175 L 443.66393442623 203.76499997676 L 451.51639344262 206.514374976345 L 459.36885245902 209.26374997593 L 467.22131147541 212.013124975515 L 475.0737704918 214.7624999751 L 475.0737704918 224.1 L 467.22131147541 221.61 L 459.36885245902 219.12 L 451.51639344262 216.63 L 443.66393442623 214.14 L 435.81147540984 211.65 L 427.95901639344 209.16 L 420.10655737705 206.67000000000002 L 412.25409836066 204.18 L 404.40163934426 201.69 L 396.54918032787 199.2 L 388.69672131148 196.71 L 380.84426229508 194.22 L 372.99180327869 191.73000000000002 L 365.1393442623 189.24 L 357.2868852459 186.75 L 349.43442622951 184.26 L 341.58196721311 181.77 L 333.72950819672 179.28 L 325.87704918033 176.79000000000002 L 318.02459016393 174.3 L 310.17213114754 171.81 L 302.31967213115 169.32 L 294.46721311475 166.82999999999998 L 286.61475409836 164.34 L 278.76229508197 161.85000000000002 L 270.90983606557 159.36 L 263.05737704918 156.87 L 255.20491803279 154.38 L 247.35245901639 151.89 L 239.5 149.4 L 231.64754098361 146.91000000000003 L 223.79508196721 144.42000000000002 L 215.94262295082 141.93 L 208.09016393443 139.44 L 200.23770491803 136.95 L 192.38524590164 134.46 L 184.53278688525 131.97 L 176.68032786885 129.48000000000002 L 168.82786885246 126.99000000000001 L 160.97540983607 124.5 L 153.12295081967 122.01 L 145.27049180328 119.52000000000001 L 137.41803278689 117.03 L 129.56557377049 114.54000000000002 L 121.7131147541 112.05000000000001 L 113.8606557377 109.56 L 106.00819672131 107.07 L 98.155737704918 104.58000000000001 L 90.303278688525 102.09 L 82.450819672131 99.6 L 74.598360655738 97.11000000000001 L 66.745901639344 94.62 L 58.893442622951 92.13 L 51.040983606557 89.64000000000001 L 43.188524590164 87.15 L 35.33606557377 84.66 L 27.483606557377 82.17000000000002 L 19.631147540984 79.68 L 11.77868852459 77.19 L 3.9262295081967 74.70000000000002" class="highcharts-area" stroke-width="0px" style="fill-opacity:0.75;"></path><path d="M 3.9262295081967 49.80000000000001 L 11.77868852459 52.54937499958501 L 19.631147540984 55.29874999917001 L 27.483606557377 58.048124998755014 L 35.33606557377 60.797499998340015 L 43.188524590164 63.546874997925016 L 51.040983606557 66.29624999751002 L 58.893442622951 69.04562499709502 L 66.745901639344 71.79499999668002 L 74.598360655738 74.54437499626502 L 82.450819672131 77.29374999585002 L 90.303278688525 80.04312499543502 L 98.155737704918 82.79249999502002 L 106.00819672131 85.54187499460502 L 113.8606557377 88.29124999419003 L 121.7131147541 91.040624993775 L 129.56557377049 93.78999999336003 L 137.41803278689 96.539374992945 L 145.27049180328 99.28874999253003 L 153.12295081967 102.038124992115 L 160.97540983607 104.7874999917 L 168.82786885246 107.536874991285 L 176.68032786885 110.28624999087 L 184.53278688525 113.035624990455 L 192.38524590164 115.78499999004 L 200.23770491803 118.53437498962501 L 208.09016393443 121.28374998921001 L 215.94262295082 124.033124988795 L 223.79508196721 126.78249998838 L 231.64754098361 129.531874987965 L 239.5 132.28124998754998 L 247.35245901639 135.030624987135 L 255.20491803279 137.77999998672 L 263.05737704918 140.52937498630502 L 270.90983606557 143.27874998589 L 278.76229508197 146.02812498547502 L 286.61475409836 148.77749998506 L 294.46721311475 151.52687498464502 L 302.31967213115 154.27624998423 L 310.17213114754 157.02562498381502 L 318.02459016393 159.7749999834 L 325.87704918033 162.52437498298502 L 333.72950819672 165.27374998257 L 341.58196721311 168.02312498215503 L 349.43442622951 170.77249998174 L 357.2868852459 173.521874981325 L 365.1393442623 176.27124998091 L 372.99180327869 179.020624980495 L 380.84426229508 181.76999998008 L 388.69672131148 184.519374979665 L 396.54918032787 187.26874997925 L 404.40163934426 190.018124978835 L 412.25409836066 192.76749997842 L 420.10655737705 195.516874978005 L 427.95901639344 198.26624997759 L 435.81147540984 201.015624977175 L 443.66393442623 203.76499997676 L 451.51639344262 206.514374976345 L 459.36885245902 209.26374997593 L 467.22131147541 212.013124975515 L 475.0737704918 214.7624999751" class="highcharts-graph" fill="none" stroke-linecap="round" stroke-linejoin="round" stroke-width="2px"></path></g><g class="highcharts-markers highcharts-series-0 highcharts-area-series highcharts-color-0 " transform="translate(111,65) scale(1 1)" clip-path="none" fill="rgb(124, 181, 236)" stroke="rgb(255, 255, 255)" style="transform:matrix(1, 0, 0, 1, 111, 65);webkit-transform:matrix(1, 0, 0, 1, 111, 65);webkit-transition:opacity 0.25s ease 0s;webkit-transition-duration:0.25s;webkit-transition-property:opacity;"></g><g class="highcharts-series highcharts-series-1 highcharts-area-series highcharts-color-1 " transform="translate(111,65) scale(1 1)" clip-path="url(#highcharts-j956a6c-216)" fill="rgb(67, 67, 72)" stroke="rgb(67, 67, 72)" style="transform:matrix(1, 0, 0, 1, 111, 65);webkit-clip-path:url(#highcharts-j956a6c-216);webkit-transform:matrix(1, 0, 0, 1, 111, 65);webkit-transition:opacity 0.25s ease 0s;webkit-transition-duration:0.25s;webkit-transition-property:opacity;"><path d="M 3.9262295081967 74.70000000000002 L 11.77868852459 77.19 L 19.631147540984 79.68 L 27.483606557377 82.17000000000002 L 35.33606557377 84.66 L 43.188524590164 87.15 L 51.040983606557 89.64000000000001 L 58.893442622951 92.13 L 66.745901639344 94.62 L 74.598360655738 97.11000000000001 L 82.450819672131 99.6 L 90.303278688525 102.09 L 98.155737704918 104.58000000000001 L 106.00819672131 107.07 L 113.8606557377 109.56 L 121.7131147541 112.05000000000001 L 129.56557377049 114.54000000000002 L 137.41803278689 117.03 L 145.27049180328 119.52000000000001 L 153.12295081967 122.01 L 160.97540983607 124.5 L 168.82786885246 126.99000000000001 L 176.68032786885 129.48000000000002 L 184.53278688525 131.97 L 192.38524590164 134.46 L 200.23770491803 136.95 L 208.09016393443 139.44 L 215.94262295082 141.93 L 223.79508196721 144.42000000000002 L 231.64754098361 146.91000000000003 L 239.5 149.4 L 247.35245901639 151.89 L 255.20491803279 154.38 L 263.05737704918 156.87 L 270.90983606557 159.36 L 278.76229508197 161.85000000000002 L 286.61475409836 164.34 L 294.46721311475 166.82999999999998 L 302.31967213115 169.32 L 310.17213114754 171.81 L 318.02459016393 174.3 L 325.87704918033 176.79000000000002 L 333.72950819672 179.28 L 341.58196721311 181.77 L 349.43442622951 184.26 L 357.2868852459 186.75 L 365.1393442623 189.24 L 372.99180327869 191.73000000000002 L 380.84426229508 194.22 L 388.69672131148 196.71 L 396.54918032787 199.2 L 404.40163934426 201.69 L 412.25409836066 204.18 L 420.10655737705 206.67000000000002 L 427.95901639344 209.16 L 435.81147540984 211.65 L 443.66393442623 214.14 L 451.51639344262 216.63 L 459.36885245902 219.12 L 467.22131147541 221.61 L 475.0737704918 224.1 L 475.0737704918 249 L 467.22131147541 246.51 L 459.36885245902 244.02 L 451.51639344262 241.53 L 443.66393442623 239.04 L 435.81147540984 236.55 L 427.95901639344 234.06 L 420.10655737705 231.57 L 412.25409836066 229.08 L 404.40163934426 226.59 L 396.54918032787 224.1 L 388.69672131148 221.61 L 380.84426229508 219.12 L 372.99180327869 216.63 L 365.1393442623 214.14 L 357.2868852459 211.65 L 349.43442622951 209.16 L 341.58196721311 206.67000000000002 L 333.72950819672 204.18 L 325.87704918033 201.69 L 318.02459016393 199.2 L 310.17213114754 196.71 L 302.31967213115 194.22 L 294.46721311475 191.73000000000002 L 286.61475409836 189.24 L 278.76229508197 186.75 L 270.90983606557 184.26 L 263.05737704918 181.77 L 255.20491803279 179.28 L 247.35245901639 176.79000000000002 L 239.5 174.3 L 231.64754098361 171.81 L 223.79508196721 169.32 L 215.94262295082 166.82999999999998 L 208.09016393443 164.34 L 200.23770491803 161.85000000000002 L 192.38524590164 159.36 L 184.53278688525 156.87 L 176.68032786885 154.38 L 168.82786885246 151.89 L 160.97540983607 149.4 L 153.12295081967 146.91000000000003 L 145.27049180328 144.42000000000002 L 137.41803278689 141.93 L 129.56557377049 139.44 L 121.7131147541 136.95 L 113.8606557377 134.46 L 106.00819672131 131.97 L 98.155737704918 129.48000000000002 L 90.303278688525 126.99000000000001 L 82.450819672131 124.5 L 74.598360655738 122.01 L 66.745901639344 119.52000000000001 L 58.893442622951 117.03 L 51.040983606557 114.54000000000002 L 43.188524590164 112.05000000000001 L 35.33606557377 109.56 L 27.483606557377 107.07 L 19.631147540984 104.58000000000001 L 11.77868852459 102.09 L 3.9262295081967 99.6" class="highcharts-area" stroke-width="0px" style="fill-opacity:0.75;"></path><path d="M 3.9262295081967 74.70000000000002 L 11.77868852459 77.19 L 19.631147540984 79.68 L 27.483606557377 82.17000000000002 L 35.33606557377 84.66 L 43.188524590164 87.15 L 51.040983606557 89.64000000000001 L 58.893442622951 92.13 L 66.745901639344 94.62 L 74.598360655738 97.11000000000001 L 82.450819672131 99.6 L 90.303278688525 102.09 L 98.155737704918 104.58000000000001 L 106.00819672131 107.07 L 113.8606557377 109.56 L 121.7131147541 112.05000000000001 L 129.56557377049 114.54000000000002 L 137.41803278689 117.03 L 145.27049180328 119.52000000000001 L 153.12295081967 122.01 L 160.97540983607 124.5 L 168.82786885246 126.99000000000001 L 176.68032786885 129.48000000000002 L 184.53278688525 131.97 L 192.38524590164 134.46 L 200.23770491803 136.95 L 208.09016393443 139.44 L 215.94262295082 141.93 L 223.79508196721 144.42000000000002 L 231.64754098361 146.91000000000003 L 239.5 149.4 L 247.35245901639 151.89 L 255.20491803279 154.38 L 263.05737704918 156.87 L 270.90983606557 159.36 L 278.76229508197 161.85000000000002 L 286.61475409836 164.34 L 294.46721311475 166.82999999999998 L 302.31967213115 169.32 L 310.17213114754 171.81 L 318.02459016393 174.3 L 325.87704918033 176.79000000000002 L 333.72950819672 179.28 L 341.58196721311 181.77 L 349.43442622951 184.26 L 357.2868852459 186.75 L 365.1393442623 189.24 L 372.99180327869 191.73000000000002 L 380.84426229508 194.22 L 388.69672131148 196.71 L 396.54918032787 199.2 L 404.40163934426 201.69 L 412.25409836066 204.18 L 420.10655737705 206.67000000000002 L 427.95901639344 209.16 L 435.81147540984 211.65 L 443.66393442623 214.14 L 451.51639344262 216.63 L 459.36885245902 219.12 L 467.22131147541 221.61 L 475.0737704918 224.1" class="highcharts-graph" fill="none" stroke-linecap="round" stroke-linejoin="round" stroke-width="2px"></path></g><g class="highcharts-markers highcharts-series-1 highcharts-area-series highcharts-color-1 " transform="translate(111,65) scale(1 1)" clip-path="none" fill="rgb(67, 67, 72)" stroke="rgb(255, 255, 255)" style="transform:matrix(1, 0, 0, 1, 111, 65);webkit-transform:matrix(1, 0, 0, 1, 111, 65);webkit-transition:opacity 0.25s ease 0s;webkit-transition-duration:0.25s;webkit-transition-property:opacity;"></g><g class="highcharts-series highcharts-series-2 highcharts-area-series highcharts-color-2 " transform="translate(111,65) scale(1 1)" clip-path="url(#highcharts-j956a6c-216)" fill="rgb(144, 237, 125)" stroke="rgb(144, 237, 125)" style="transform:matrix(1, 0, 0, 1, 111, 65);webkit-clip-path:url(#highcharts-j956a6c-216);webkit-transform:matrix(1, 0, 0, 1, 111, 65);webkit-transition:opacity 0.25s ease 0s;webkit-transition-duration:0.25s;webkit-transition-property:opacity;"><path d="M 3.9262295081967 99.6 L 11.77868852459 102.09 L 19.631147540984 104.58000000000001 L 27.483606557377 107.07 L 35.33606557377 109.56 L 43.188524590164 112.05000000000001 L 51.040983606557 114.54000000000002 L 58.893442622951 117.03 L 66.745901639344 119.52000000000001 L 74.598360655738 122.01 L 82.450819672131 124.5 L 90.303278688525 126.99000000000001 L 98.155737704918 129.48000000000002 L 106.00819672131 131.97 L 113.8606557377 134.46 L 121.7131147541 136.95 L 129.56557377049 139.44 L 137.41803278689 141.93 L 145.27049180328 144.42000000000002 L 153.12295081967 146.91000000000003 L 160.97540983607 149.4 L 168.82786885246 151.89 L 176.68032786885 154.38 L 184.53278688525 156.87 L 192.38524590164 159.36 L 200.23770491803 161.85000000000002 L 208.09016393443 164.34 L 215.94262295082 166.82999999999998 L 223.79508196721 169.32 L 231.64754098361 171.81 L 239.5 174.3 L 247.35245901639 176.79000000000002 L 255.20491803279 179.28 L 263.05737704918 181.77 L 270.90983606557 184.26 L 278.76229508197 186.75 L 286.61475409836 189.24 L 294.46721311475 191.73000000000002 L 302.31967213115 194.22 L 310.17213114754 196.71 L 318.02459016393 199.2 L 325.87704918033 201.69 L 333.72950819672 204.18 L 341.58196721311 206.67000000000002 L 349.43442622951 209.16 L 357.2868852459 211.65 L 365.1393442623 214.14 L 372.99180327869 216.63 L 380.84426229508 219.12 L 388.69672131148 221.61 L 396.54918032787 224.1 L 404.40163934426 226.59 L 412.25409836066 229.08 L 420.10655737705 231.57 L 427.95901639344 234.06 L 435.81147540984 236.55 L 443.66393442623 239.04 L 451.51639344262 241.53 L 459.36885245902 244.02 L 467.22131147541 246.51 L 475.0737704918 249 L 475.0737704918 249 L 467.22131147541 249 L 459.36885245902 249 L 451.51639344262 249 L 443.66393442623 249 L 435.81147540984 249 L 427.95901639344 249 L 420.10655737705 249 L 412.25409836066 249 L 404.40163934426 249 L 396.54918032787 249 L 388.69672131148 249 L 380.84426229508 249 L 372.99180327869 249 L 365.1393442623 249 L 357.2868852459 249 L 349.43442622951 249 L 341.58196721311 249 L 333.72950819672 249 L 325.87704918033 249 L 318.02459016393 249 L 310.17213114754 249 L 302.31967213115 249 L 294.46721311475 249 L 286.61475409836 249 L 278.76229508197 249 L 270.90983606557 249 L 263.05737704918 249 L 255.20491803279 249 L 247.35245901639 249 L 239.5 249 L 231.64754098361 249 L 223.79508196721 249 L 215.94262295082 249 L 208.09016393443 249 L 200.23770491803 249 L 192.38524590164 249 L 184.53278688525 249 L 176.68032786885 249 L 168.82786885246 249 L 160.97540983607 249 L 153.12295081967 249 L 145.27049180328 249 L 137.41803278689 249 L 129.56557377049 249 L 121.7131147541 249 L 113.8606557377 249 L 106.00819672131 249 L 98.155737704918 249 L 90.303278688525 249 L 82.450819672131 249 L 74.598360655738 249 L 66.745901639344 249 L 58.893442622951 249 L 51.040983606557 249 L 43.188524590164 249 L 35.33606557377 249 L 27.483606557377 249 L 19.631147540984 249 L 11.77868852459 249 L 3.9262295081967 249" class="highcharts-area" stroke-width="0px" style="fill-opacity:0.75;"></path><path d="M 3.9262295081967 99.6 L 11.77868852459 102.09 L 19.631147540984 104.58000000000001 L 27.483606557377 107.07 L 35.33606557377 109.56 L 43.188524590164 112.05000000000001 L 51.040983606557 114.54000000000002 L 58.893442622951 117.03 L 66.745901639344 119.52000000000001 L 74.598360655738 122.01 L 82.450819672131 124.5 L 90.303278688525 126.99000000000001 L 98.155737704918 129.48000000000002 L 106.00819672131 131.97 L 113.8606557377 134.46 L 121.7131147541 136.95 L 129.56557377049 139.44 L 137.41803278689 141.93 L 145.27049180328 144.42000000000002 L 153.12295081967 146.91000000000003 L 160.97540983607 149.4 L 168.82786885246 151.89 L 176.68032786885 154.38 L 184.53278688525 156.87 L 192.38524590164 159.36 L 200.23770491803 161.85000000000002 L 208.09016393443 164.34 L 215.94262295082 166.82999999999998 L 223.79508196721 169.32 L 231.64754098361 171.81 L 239.5 174.3 L 247.35245901639 176.79000000000002 L 255.20491803279 179.28 L 263.05737704918 181.77 L 270.90983606557 184.26 L 278.76229508197 186.75 L 286.61475409836 189.24 L 294.46721311475 191.73000000000002 L 302.31967213115 194.22 L 310.17213114754 196.71 L 318.02459016393 199.2 L 325.87704918033 201.69 L 333.72950819672 204.18 L 341.58196721311 206.67000000000002 L 349.43442622951 209.16 L 357.2868852459 211.65 L 365.1393442623 214.14 L 372.99180327869 216.63 L 380.84426229508 219.12 L 388.69672131148 221.61 L 396.54918032787 224.1 L 404.40163934426 226.59 L 412.25409836066 229.08 L 420.10655737705 231.57 L 427.95901639344 234.06 L 435.81147540984 236.55 L 443.66393442623 239.04 L 451.51639344262 241.53 L 459.36885245902 244.02 L 467.22131147541 246.51 L 475.0737704918 249" class="highcharts-graph" fill="none" stroke-linecap="round" stroke-linejoin="round" stroke-width="2px"></path></g><g class="highcharts-markers highcharts-series-2 highcharts-area-series highcharts-color-2 " transform="translate(111,65) scale(1 1)" clip-path="none" fill="rgb(144, 237, 125)" stroke="rgb(255, 255, 255)" style="transform:matrix(1, 0, 0, 1, 111, 65);webkit-transform:matrix(1, 0, 0, 1, 111, 65);webkit-transition:opacity 0.25s ease 0s;webkit-transition-duration:0.25s;webkit-transition-property:opacity;"></g></g><text x="10" text-anchor="start" class="highcharts-title" y="22" fill="rgb(51, 51, 51)" stroke-width="0px" style="font-weight:700;padding:0px 0px 10px;padding-bottom:10px;webkit-padding-after:10px;webkit-perspective-origin:66.625px 5px;"><tspan class="chart-title">Loan Balances</tspan></text><text x="300" text-anchor="middle" class="highcharts-subtitle" y="49" fill="rgb(102, 102, 102)" stroke-width="0px"></text><g class="highcharts-legend" transform="translate(87,356)" style="transform:matrix(1, 0, 0, 1, 87, 356);webkit-transform:matrix(1, 0, 0, 1, 87, 356);"><rect class="highcharts-legend-box" rx="0" ry="0" x="0" y="0" width="425" height="29" visibility="visible" fill="none" stroke-width="0px" style="block-size:29px;inline-size:425px;rx:0px;ry:0px;"></rect><g><g><g class="highcharts-legend-item highcharts-area-series highcharts-color-0 highcharts-series-0" transform="translate(8,3)" fill="rgb(124, 181, 236)" stroke="rgb(124, 181, 236)" style="transform:matrix(1, 0, 0, 1, 8, 3);webkit-transform:matrix(1, 0, 0, 1, 8, 3);"><text x="21" text-anchor="start" y="15" fill="rgb(51, 51, 51)" stroke-width="0px" style="cursor:pointer;font-weight:700;webkit-perspective-origin:63.5625px 0px;"><tspan>Mezz Tranche</tspan></text><rect x="2px" y="4px" width="12" height="12" rx="6" ry="6" class="highcharts-point" style="block-size:12px;inline-size:12px;rx:6px;ry:6px;webkit-transition:opacity 0.25s ease 0s;webkit-transition-duration:0.25s;webkit-transition-property:opacity;"></rect></g><g class="highcharts-legend-item highcharts-area-series highcharts-color-1 highcharts-series-1" transform="translate(134.140625,3)" fill="rgb(67, 67, 72)" stroke="rgb(67, 67, 72)" style="transform:matrix(1, 0, 0, 1, 134.141, 3);webkit-transform:matrix(1, 0, 0, 1, 134.141, 3);"><text x="21" y="15" text-anchor="start" fill="rgb(51, 51, 51)" stroke-width="0px" style="cursor:pointer;font-weight:700;webkit-perspective-origin:86.4219px 0px;"><tspan>Interest Only Tranche</tspan></text><rect x="2px" y="4px" width="12" height="12" rx="6" ry="6" class="highcharts-point" style="block-size:12px;inline-size:12px;rx:6px;ry:6px;webkit-transition:opacity 0.25s ease 0s;webkit-transition-duration:0.25s;webkit-transition-property:opacity;"></rect></g><g class="highcharts-legend-item highcharts-area-series highcharts-color-2 highcharts-series-2" transform="translate(306,3)" fill="rgb(144, 237, 125)" stroke="rgb(144, 237, 125)" style="transform:matrix(1, 0, 0, 1, 306, 3);webkit-transform:matrix(1, 0, 0, 1, 306, 3);"><text x="21" y="15" text-anchor="start" fill="rgb(51, 51, 51)" stroke-width="0px" style="cursor:pointer;font-weight:700;webkit-perspective-origin:66.125px 0px;"><tspan>Credit Tranche</tspan></text><rect x="2px" y="4px" width="12" height="12" rx="6" ry="6" class="highcharts-point" style="block-size:12px;inline-size:12px;rx:6px;ry:6px;webkit-transition:opacity 0.25s ease 0s;webkit-transition-duration:0.25s;webkit-transition-property:opacity;"></rect></g></g></g></g><g class="highcharts-axis-labels highcharts-xaxis-labels " fill="rgb(102, 102, 102)" style="cursor:default;font-size:10.8px;"><text x="117.28325211215515" text-anchor="end" transform="translate(0,0) rotate(-45 117.28325211215515 329)" y="329" opacity="1" stroke-width="0px" style="transform:matrix(0.707107, -0.707107, 0.707107, 0.707107, -198.287, 179.294);webkit-perspective-origin:113.953px 0px;webkit-transform:matrix(0.707107, -0.707107, 0.707107, 0.707107, -198.287, 179.294);">0</text><text x="140.84062916133516" text-anchor="end" transform="translate(0,0) rotate(-45 140.84062916133516 329)" y="329" opacity="1" stroke-width="0px" style="transform:matrix(0.707107, -0.707107, 0.707107, 0.707107, -191.387, 195.951);webkit-perspective-origin:137.5px 0px;webkit-transform:matrix(0.707107, -0.707107, 0.707107, 0.707107, -191.387, 195.951);">3</text><text x="164.39800621051515" text-anchor="end" transform="translate(0,0) rotate(-45 164.39800621051515 329)" y="329" opacity="1" stroke-width="0px" style="transform:matrix(0.707107, -0.707107, 0.707107, 0.707107, -184.487, 212.609);webkit-perspective-origin:161.063px 0px;webkit-transform:matrix(0.707107, -0.707107, 0.707107, 0.707107, -184.487, 212.609);">6</text><text x="187.95538325969517" text-anchor="end" transform="translate(0,0) rotate(-45 187.95538325969517 329)" y="329" opacity="1" stroke-width="0px" style="transform:matrix(0.707107, -0.707107, 0.707107, 0.707107, -177.587, 229.266);webkit-perspective-origin:184.625px 0px;webkit-transform:matrix(0.707107, -0.707107, 0.707107, 0.707107, -177.587, 229.266);">9</text><text x="211.51276030887516" text-anchor="end" transform="translate(0,0) rotate(-45 211.51276030887516 329)" y="329" opacity="1" stroke-width="0px" style="transform:matrix(0.707107, -0.707107, 0.707107, 0.707107, -170.687, 245.924);webkit-perspective-origin:204.672px 0px;webkit-transform:matrix(0.707107, -0.707107, 0.707107, 0.707107, -170.687, 245.924);">12</text><text x="235.07013735805515" text-anchor="end" transform="translate(0,0) rotate(-45 235.07013735805515 329)" y="329" opacity="1" stroke-width="0px" style="transform:matrix(0.707107, -0.707107, 0.707107, 0.707107, -163.788, 262.582);webkit-perspective-origin:228.234px 0px;webkit-transform:matrix(0.707107, -0.707107, 0.707107, 0.707107, -163.788, 262.582);">15</text><text x="258.62751440723514" text-anchor="end" transform="translate(0,0) rotate(-45 258.62751440723514 329)" y="329" opacity="1" stroke-width="0px" style="transform:matrix(0.707107, -0.707107, 0.707107, 0.707107, -156.888, 279.239);webkit-perspective-origin:251.875px 0px;webkit-transform:matrix(0.707107, -0.707107, 0.707107, 0.707107, -156.888, 279.239);">18</text><text x="282.1848914564152" text-anchor="end" transform="translate(0,0) rotate(-45 282.1848914564152 329)" y="329" opacity="1" stroke-width="0px" style="transform:matrix(0.707107, -0.707107, 0.707107, 0.707107, -149.988, 295.897);webkit-perspective-origin:275.344px 0px;webkit-transform:matrix(0.707107, -0.707107, 0.707107, 0.707107, -149.988, 295.897);">21</text><text x="305.7422685055952" text-anchor="end" transform="translate(0,0) rotate(-45 305.7422685055952 329)" y="329" opacity="1" stroke-width="0px" style="transform:matrix(0.707107, -0.707107, 0.707107, 0.707107, -143.088, 312.554);webkit-perspective-origin:298.984px 0px;webkit-transform:matrix(0.707107, -0.707107, 0.707107, 0.707107, -143.088, 312.554);">24</text><text x="329.29964555477517" text-anchor="end" transform="translate(0,0) rotate(-45 329.29964555477517 329)" y="329" opacity="1" stroke-width="0px" style="transform:matrix(0.707107, -0.707107, 0.707107, 0.707107, -136.188, 329.212);webkit-perspective-origin:322.547px 0px;webkit-transform:matrix(0.707107, -0.707107, 0.707107, 0.707107, -136.188, 329.212);">27</text><text x="352.85702260395516" text-anchor="end" transform="translate(0,0) rotate(-45 352.85702260395516 329)" y="329" opacity="1" stroke-width="0px" style="transform:matrix(0.707107, -0.707107, 0.707107, 0.707107, -129.289, 345.869);webkit-perspective-origin:346.094px 0px;webkit-transform:matrix(0.707107, -0.707107, 0.707107, 0.707107, -129.289, 345.869);">30</text><text x="376.41439965313515" text-anchor="end" transform="translate(0,0) rotate(-45 376.41439965313515 329)" y="329" opacity="1" stroke-width="0px" style="transform:matrix(0.707107, -0.707107, 0.707107, 0.707107, -122.389, 362.527);webkit-perspective-origin:369.656px 0px;webkit-transform:matrix(0.707107, -0.707107, 0.707107, 0.707107, -122.389, 362.527);">33</text><text x="399.97177670231514" text-anchor="end" transform="translate(0,0) rotate(-45 399.97177670231514 329)" y="329" opacity="1" stroke-width="0px" style="transform:matrix(0.707107, -0.707107, 0.707107, 0.707107, -115.489, 379.185);webkit-perspective-origin:393.219px 0px;webkit-transform:matrix(0.707107, -0.707107, 0.707107, 0.707107, -115.489, 379.185);">36</text><text x="423.52915375149513" text-anchor="end" transform="translate(0,0) rotate(-45 423.52915375149513 329)" y="329" opacity="1" stroke-width="0px" style="transform:matrix(0.707107, -0.707107, 0.707107, 0.707107, -108.589, 395.842);webkit-perspective-origin:416.766px 0px;webkit-transform:matrix(0.707107, -0.707107, 0.707107, 0.707107, -108.589, 395.842);">39</text><text x="447.0865308006752" text-anchor="end" transform="translate(0,0) rotate(-45 447.0865308006752 329)" y="329" opacity="1" stroke-width="0px" style="transform:matrix(0.707107, -0.707107, 0.707107, 0.707107, -101.69, 412.5);webkit-perspective-origin:440.25px 0px;webkit-transform:matrix(0.707107, -0.707107, 0.707107, 0.707107, -101.69, 412.5);">42</text><text x="470.64390784985517" text-anchor="end" transform="translate(0,0) rotate(-45 470.64390784985517 329)" y="329" opacity="1" stroke-width="0px" style="transform:matrix(0.707107, -0.707107, 0.707107, 0.707107, -94.7897, 429.157);webkit-perspective-origin:463.813px 0px;webkit-transform:matrix(0.707107, -0.707107, 0.707107, 0.707107, -94.7897, 429.157);">45</text><text x="494.20128489903516" text-anchor="end" transform="translate(0,0) rotate(-45 494.20128489903516 329)" y="329" opacity="1" stroke-width="0px" style="transform:matrix(0.707107, -0.707107, 0.707107, 0.707107, -87.8899, 445.815);webkit-perspective-origin:487.438px 0px;webkit-transform:matrix(0.707107, -0.707107, 0.707107, 0.707107, -87.8899, 445.815);">48</text><text x="517.7586619482151" text-anchor="end" transform="translate(0,0) rotate(-45 517.7586619482151 329)" y="329" opacity="1" stroke-width="0px" style="transform:matrix(0.707107, -0.707107, 0.707107, 0.707107, -80.9901, 462.473);webkit-perspective-origin:510.922px 0px;webkit-transform:matrix(0.707107, -0.707107, 0.707107, 0.707107, -80.9901, 462.473);">51</text><text x="541.3160389973953" text-anchor="end" transform="translate(0,0) rotate(-45 541.3160389973953 329)" y="329" opacity="1" stroke-width="0px" style="transform:matrix(0.707107, -0.707107, 0.707107, 0.707107, -74.0903, 479.13);webkit-perspective-origin:534.563px 0px;webkit-transform:matrix(0.707107, -0.707107, 0.707107, 0.707107, -74.0903, 479.13);">54</text><text x="564.8734160465751" text-anchor="end" transform="translate(0,0) rotate(-45 564.8734160465751 329)" y="329" opacity="1" stroke-width="0px" style="transform:matrix(0.707107, -0.707107, 0.707107, 0.707107, -67.1905, 495.788);webkit-perspective-origin:558.109px 0px;webkit-transform:matrix(0.707107, -0.707107, 0.707107, 0.707107, -67.1905, 495.788);">57</text><text x="588.4307930957552" text-anchor="end" transform="translate(0,0) rotate(-45 588.4307930957552 329)" y="329" opacity="1" stroke-width="0px" style="transform:matrix(0.707107, -0.707107, 0.707107, 0.707107, -60.2907, 512.445);webkit-perspective-origin:581.672px 0px;webkit-transform:matrix(0.707107, -0.707107, 0.707107, 0.707107, -60.2907, 512.445);">60</text></g><g class="highcharts-axis-labels highcharts-yaxis-labels highcharts-color-1" fill="rgb(67, 67, 72)" stroke="rgb(67, 67, 72)" style="cursor:default;font-size:10.8px;"><text x="96" text-anchor="end" transform="translate(0,0)" y="316" opacity="1" stroke-width="0px" style="transform:matrix(1, 0, 0, 1, 0, 0);webkit-perspective-origin:80.7031px 0px;webkit-transform:matrix(1, 0, 0, 1, 0, 0);">$0.00</text><text x="96" text-anchor="end" transform="translate(0,0)" y="253" opacity="1" stroke-width="0px" style="transform:matrix(1, 0, 0, 1, 0, 0);webkit-perspective-origin:56.7969px 0px;webkit-transform:matrix(1, 0, 0, 1, 0, 0);">$5,000,000.00</text><text x="96" text-anchor="end" transform="translate(0,0)" y="191" opacity="1" stroke-width="0px" style="transform:matrix(1, 0, 0, 1, 0, 0);webkit-perspective-origin:53.3906px 0px;webkit-transform:matrix(1, 0, 0, 1, 0, 0);">$10,000,000.00</text><text x="96" text-anchor="end" transform="translate(0,0)" y="129" opacity="1" stroke-width="0px" style="transform:matrix(1, 0, 0, 1, 0, 0);webkit-perspective-origin:53.3906px 0px;webkit-transform:matrix(1, 0, 0, 1, 0, 0);">$15,000,000.00</text><text x="96" text-anchor="end" transform="translate(0,0)" y="67" opacity="1" stroke-width="0px" style="transform:matrix(1, 0, 0, 1, 0, 0);webkit-perspective-origin:53.3906px 0px;webkit-transform:matrix(1, 0, 0, 1, 0, 0);">$20,000,000.00</text></g><g class="highcharts-axis-labels highcharts-yaxis-labels highcharts-color-1" fill="rgb(67, 67, 72)" stroke="rgb(67, 67, 72)" style="cursor:default;font-size:10.8px;"></g><g class="highcharts-axis-labels highcharts-yaxis-labels highcharts-color-2" fill="rgb(144, 237, 125)" stroke="rgb(144, 237, 125)" style="cursor:default;font-size:10.8px;"></g><g class="highcharts-axis-labels highcharts-yaxis-labels highcharts-color-3" fill="rgb(247, 163, 92)" stroke="rgb(247, 163, 92)" style="cursor:default;font-size:10.8px;"></g></svg>