<svg xmlns:xlink="http://www.w3.org/1999/xlink" version="1.1" class="highcharts-root" xmlns="http://www.w3.org/2000/svg" width="600" height="400" viewBox="0 0 600 400" style="block-size:400px;border:0px none rgb(80, 80, 80);border-bottom:0px none rgb(80, 80, 80);border-bottom-color:rgb(80, 80, 80);border-color:rgb(80, 80, 80);border-left:0px none rgb(80, 80, 80);border-left-color:rgb(80, 80, 80);border-right:0px none rgb(80, 80, 80);border-right-color:rgb(80, 80, 80);border-top:0px none rgb(80, 80, 80);border-top-color:rgb(80, 80, 80);box-sizing:border-box;caret-color:rgb(80, 80, 80);color:rgb(80, 80, 80);column-rule:0px none rgb(80, 80, 80);column-rule-color:rgb(80, 80, 80);display:block;font-family:&quot;Lucida Grande&quot;, &quot;Lucida Sans Unicode&quot;, Arial, Helvetica, sans-serif;font-size:12px;inline-size:600px;outline:rgb(80, 80, 80) none 0px;outline-color:rgb(80, 80, 80);text-align:left;text-decoration:none solid rgb(80, 80, 80);text-decoration-color:rgb(80, 80, 80);text-size-adjust:100%;transform-origin:300px 200px;webkit-border-after:0px none rgb(80, 80, 80);webkit-border-after-color:rgb(80, 80, 80);webkit-border-before:0px none rgb(80, 80, 80);webkit-border-before-color:rgb(80, 80, 80);webkit-border-end:0px none rgb(80, 80, 80);webkit-border-end-color:rgb(80, 80, 80);webkit-border-start:0px none rgb(80, 80, 80);webkit-border-start-color:rgb(80, 80, 80);webkit-box-sizing:border-box;webkit-column-rule:0px none rgb(80, 80, 80);webkit-column-rule-color:rgb(80, 80, 80);webkit-locale:&quot;en&quot;;webkit-perspective-origin:300px 200px;webkit-text-emphasis-color:rgb(80, 80, 80);webkit-text-fill-color:rgb(80, 80, 80);webkit-text-size-adjust:100%;webkit-text-stroke-color:rgb(80, 80, 80);webkit-transform-origin:300px 200px;" stroke-width="1px"><desc>Created with Highcharts 6.0.7</desc><defs><clipPath id="highcharts-pg2eo8h-92"><rect x="0" y="0" width="527" height="254"></rect></clipPath></defs><rect class="highcharts-background" x="0.5px" y="0.5px" width="598" height="398" rx="0" ry="0" fill="rgb(255, 255, 255)" style="block-size:398px;inline-size:598px;rx:0px;ry:0px;"></rect><rect class="highcharts-plot-background" x="63px" y="65px" width="527" height="254" fill="none" style="block-size:254px;inline-size:527px;"></rect><g class="highcharts-pane-group"></g><g class="highcharts-grid highcharts-xaxis-grid "><path class="highcharts-grid-line" d="M 87.5 65 L 87.5 319" opacity="1" fill="none" stroke="rgb(230, 230, 230)" stroke-width="0px"></path><path class="highcharts-grid-line" d="M 112.5 65 L 112.5 319" opacity="1" fill="none" stroke="rgb(230, 230, 230)" stroke-width="0px"></path><path class="highcharts-grid-line" d="M 137.5 65 L 137.5 319" opacity="1" fill="none" stroke="rgb(230, 230, 230)" stroke-width="0px"></path><path class="highcharts-grid-line" d="M 162.5 65 L 162.5 319" opacity="1" fill="none" stroke="rgb(230, 230, 230)" stroke-width="0px"></path><path class="highcharts-grid-line" d="M 187.5 65 L 187.5 319" opacity="1" fill="none" stroke="rgb(230, 230, 230)" stroke-width="0px"></path><path class="highcharts-grid-line" d="M 213.5 65 L 213.5 319" opacity="1" fill="none" stroke="rgb(230, 230, 230)" stroke-width="0px"></path><path class="highcharts-grid-line" d="M 238.5 65 L 238.5 319" opacity="1" fill="none" stroke="rgb(230, 230, 230)" stroke-width="0px"></path><path class="highcharts-grid-line" d="M 263.5 65 L 263.5 319" opacity="1" fill="none" stroke="rgb(230, 230, 230)" stroke-width="0px"></path><path class="highcharts-grid-line" d="M 288.5 65 L 288.5 319" opacity="1" fill="none" stroke="rgb(230, 230, 230)" stroke-width="0px"></path><path class="highcharts-grid-line" d="M 313.5 65 L 313.5 319" opacity="1" fill="none" stroke="rgb(230, 230, 230)" stroke-width="0px"></path><path class="highcharts-grid-line" d="M 338.5 65 L 338.5 319" opacity="1" fill="none" stroke="rgb(230, 230, 230)" stroke-width="0px"></path><path class="highcharts-grid-line" d="M 363.5 65 L 363.5 319" opacity="1" fill="none" stroke="rgb(230, 230, 230)" stroke-width="0px"></path><path class="highcharts-grid-line" d="M 388.5 65 L 388.5 319" opacity="1" fill="none" stroke="rgb(230, 230, 230)" stroke-width="0px"></path><path class="highcharts-grid-line" d="M 413.5 65 L 413.5 319" opacity="1" fill="none" stroke="rgb(230, 230, 230)" stroke-width="0px"></path><path class="highcharts-grid-line" d="M 438.5 65 L 438.5 319" opacity="1" fill="none" stroke="rgb(230, 230, 230)" stroke-width="0px"></path><path class="highcharts-grid-line" d="M 464.5 65 L 464.5 319" opacity="1" fill="none" stroke="rgb(230, 230, 230)" stroke-width="0px"></path><path class="highcharts-grid-line" d="M 489.5 65 L 489.5 319" opacity="1" fill="none" stroke="rgb(230, 230, 230)" stroke-width="0px"></path><path class="highcharts-grid-line" d="M 514.5 65 L 514.5 319" opacity="1" fill="none" stroke="rgb(230, 230, 230)" stroke-width="0px"></path><path class="highcharts-grid-line" d="M 539.5 65 L 539.5 319" opacity="1" fill="none" stroke="rgb(230, 230, 230)" stroke-width="0px"></path><path class="highcharts-grid-line" d="M 564.5 65 L 564.5 319" opacity="1" fill="none" stroke="rgb(230, 230, 230)" stroke-width="0px"></path><path class="highcharts-grid-line" d="M 589.5 65 L 589.5 319" opacity="1" fill="none" stroke="rgb(230, 230, 230)" stroke-width="0px"></path><path class="highcharts-grid-line" d="M 62.5 65 L 62.5 319" opacity="1" fill="none" stroke="rgb(230, 230, 230)" stroke-width="0px"></path></g><g class="highcharts-grid highcharts-yaxis-grid highcharts-color-1" fill="rgb(67, 67, 72)" stroke="rgb(67, 67, 72)"><path class="highcharts-grid-line" d="M 63 319.5 L 590 319.5" opacity="1" fill="none" stroke="rgb(230, 230, 230)"></path><path class="highcharts-grid-line" d="M 63 256.5 L 590 256.5" opacity="1" fill="none" stroke="rgb(230, 230, 230)"></path><path class="highcharts-grid-line" d="M 63 192.5 L 590 192.5" opacity="1" fill="none" stroke="rgb(230, 230, 230)"></path><path class="highcharts-grid-line" d="M 63 129.5 L 590 129.5" opacity="1" fill="none" stroke="rgb(230, 230, 230)"></path><path class="highcharts-grid-line" d="M 63 64.5 L 590 64.5" opacity="1" fill="none" stroke="rgb(230, 230, 230)"></path></g><g class="highcharts-grid highcharts-yaxis-grid highcharts-color-1" fill="rgb(67, 67, 72)" stroke="rgb(67, 67, 72)"></g><g class="highcharts-grid highcharts-yaxis-grid highcharts-color-2" fill="rgb(144, 237, 125)" stroke="rgb(144, 237, 125)"></g><g class="highcharts-grid highcharts-yaxis-grid highcharts-color-3" fill="rgb(247, 163, 92)" stroke="rgb(247, 163, 92)"></g><rect class="highcharts-plot-border" x="62.5px" y="64.5px" width="528" height="255" fill="none" style="block-size:255px;inline-size:528px;"></rect><g class="highcharts-axis highcharts-xaxis "><path class="highcharts-axis-line" d="M 63 319.5 L 590 319.5" fill="none" stroke="rgb(204, 214, 235)"></path><path class="highcharts-tick" d="M 87.5 319 L 87.5 329" opacity="1" stroke="rgb(204, 214, 235)"></path><path class="highcharts-tick" d="M 112.5 319 L 112.5 329" opacity="1" stroke="rgb(204, 214, 235)"></path><path class="highcharts-tick" d="M 137.5 319 L 137.5 329" opacity="1" stroke="rgb(204, 214, 235)"></path><path class="highcharts-tick" d="M 162.5 319 L 162.5 329" opacity="1" stroke="rgb(204, 214, 235)"></path><path class="highcharts-tick" d="M 187.5 319 L 187.5 329" opacity="1" stroke="rgb(204, 214, 235)"></path><path class="highcharts-tick" d="M 213.5 319 L 213.5 329" opacity="1" stroke="rgb(204, 214, 235)"></path><path class="highcharts-tick" d="M 238.5 319 L 238.5 329" opacity="1" stroke="rgb(204, 214, 235)"></path><path class="highcharts-tick" d="M 263.5 319 L 263.5 329" opacity="1" stroke="rgb(204, 214, 235)"></path><path class="highcharts-tick" d="M 288.5 319 L 288.5 329" opacity="1" stroke="rgb(204, 214, 235)"></path><path class="highcharts-tick" d="M 313.5 319 L 313.5 329" opacity="1" stroke="rgb(204, 214, 235)"></path><path class="highcharts-tick" d="M 338.5 319 L 338.5 329" opacity="1" stroke="rgb(204, 214, 235)"></path><path class="highcharts-tick" d="M 363.5 319 L 363.5 329" opacity="1" stroke="rgb(204, 214, 235)"></path><path class="highcharts-tick" d="M 388.5 319 L 388.5 329" opacity="1" stroke="rgb(204, 214, 235)"></path><path class="highcharts-tick" d="M 413.5 319 L 413.5 329" opacity="1" stroke="rgb(204, 214, 235)"></path><path class="highcharts-tick" d="M 438.5 319 L 438.5 329" opacity="1" stroke="rgb(204, 214, 235)"></path><path class="highcharts-tick" d="M 464.5 319 L 464.5 329" opacity="1" stroke="rgb(204, 214, 235)"></path><path class="highcharts-tick" d="M 489.5 319 L 489.5 329" opacity="1" stroke="rgb(204, 214, 235)"></path><path class="highcharts-tick" d="M 514.5 319 L 514.5 329" opacity="1" stroke="rgb(204, 214, 235)"></path><path class="highcharts-tick" d="M 539.5 319 L 539.5 329" opacity="1" stroke="rgb(204, 214, 235)"></path><path class="highcharts-tick" d="M 564.5 319 L 564.5 329" opacity="1" stroke="rgb(204, 214, 235)"></path><path class="highcharts-tick" d="M 590.5 319 L 590.5 329" opacity="1" stroke="rgb(204, 214, 235)"></path><path class="highcharts-tick" d="M 62.5 319 L 62.5 329" opacity="1" stroke="rgb(204, 214, 235)"></path></g><g class="highcharts-axis highcharts-yaxis highcharts-color-1" fill="rgb(67, 67, 72)" stroke="rgb(67, 67, 72)"><path class="highcharts-axis-line" d="M 63 65 L 63 319" fill="none" stroke="rgb(204, 214, 235)" stroke-width="0px"></path></g><g class="highcharts-axis highcharts-yaxis highcharts-color-1" fill="rgb(67, 67, 72)" stroke="rgb(67, 67, 72)"><path class="highcharts-axis-line" d="M 10 65 L 10 319" fill="none" stroke="rgb(204, 214, 235)" stroke-width="0px"></path></g><g class="highcharts-axis highcharts-yaxis highcharts-color-2" fill="rgb(144, 237, 125)" stroke="rgb(144, 237, 125)"><path class="highcharts-axis-line" d="M 590 65 L 590 319" fill="none" stroke="rgb(204, 214, 235)" stroke-width="0px"></path></g><g class="highcharts-axis highcharts-yaxis highcharts-color-3" fill="rgb(247, 163, 92)" stroke="rgb(247, 163, 92)"><path class="highcharts-axis-line" d="M 10 65 L 10 319" fill="none" stroke="rgb(204, 214, 235)" stroke-width="0px"></path></g><g class="highcharts-series-group"><g class="highcharts-series highcharts-series-0 highcharts-line-series highcharts-color-0 " transform="translate(63,65) scale(1 1)" clip-path="url(#highcharts-pg2eo8h-92)" fill="rgb(124, 181, 236)" stroke="rgb(124, 181, 236)" style="transform:matrix(1, 0, 0, 1, 63, 65);webkit-clip-path:url(#highcharts-pg2eo8h-92);webkit-transform:matrix(1, 0, 0, 1, 63, 65);webkit-transition:opacity 0.25s ease 0s;webkit-transition-duration:0.25s;webkit-transition-property:opacity;"><path d="M 12.547619047619 167.10660000000001 L 37.642857142857 169.9133 L 62.738095238095 172.72 L 87.833333333333 175.5267 L 112.92857142857 178.33339999999998 L 138.02380952381 181.14010000000002 L 163.11904761905 183.9468 L 188.21428571429 186.7535 L 213.30952380952 189.5602 L 238.40476190476 192.3669 L 263.5 195.1736 L 288.59523809524 197.9803 L 313.69047619048 200.787 L 338.78571428571 203.5937 L 363.88095238095 206.4004 L 388.97619047619 206.4004 L 414.07142857143 206.4004 L 439.16666666667 56.515000000000015 L 464.2619047619 59.32170000000002 L 489.35714285714 62.1284 L 514.45238095238 64.9351" class="highcharts-graph" fill="none" stroke-linecap="round" stroke-linejoin="round" stroke-width="2px"></path></g><g class="highcharts-markers highcharts-series-0 highcharts-line-series highcharts-color-0 " transform="translate(63,65) scale(1 1)" clip-path="none" fill="rgb(124, 181, 236)" stroke="rgb(255, 255, 255)" style="transform:matrix(1, 0, 0, 1, 63, 65);webkit-transform:matrix(1, 0, 0, 1, 63, 65);webkit-transition:opacity 0.25s ease 0s;webkit-transition-duration:0.25s;webkit-transition-property:opacity;"><path d="M 16 167 A 4 4 0 1 1 15.999998000000167 166.99600000066667 Z" class="highcharts-point highcharts-color-0" stroke="rgb(124, 181, 236)"></path><path d="M 41 170 A 4 4 0 1 1 40.99999800000017 169.99600000066667 Z" class="highcharts-point highcharts-color-0" stroke="rgb(124, 181, 236)"></path><path d="M 66 173 A 4 4 0 1 1 65.99999800000016 172.99600000066667 Z" class="highcharts-point highcharts-color-0" stroke="rgb(124, 181, 236)"></path><path d="M 91 176 A 4 4 0 1 1 90.99999800000016 175.99600000066667 Z" class="highcharts-point highcharts-color-0" stroke="rgb(124, 181, 236)"></path><path d="M 116 178 A 4 4 0 1 1 115.99999800000016 177.99600000066667 Z" class="highcharts-point highcharts-color-0" stroke="rgb(124, 181, 236)"></path><path d="M 142 181 A 4 4 0 1 1 141.99999800000018 180.99600000066667 Z" class="highcharts-point highcharts-color-0" stroke="rgb(124, 181, 236)"></path><path d="M 167 184 A 4 4 0 1 1 166.99999800000018 183.99600000066667 Z" class="highcharts-point highcharts-color-0" stroke="rgb(124, 181, 236)"></path><path d="M 192 187 A 4 4 0 1 1 191.99999800000018 186.99600000066667 Z" class="highcharts-point highcharts-color-0" stroke="rgb(124, 181, 236)"></path><path d="M 217 190 A 4 4 0 1 1 216.99999800000018 189.99600000066667 Z" class="highcharts-point highcharts-color-0" stroke="rgb(124, 181, 236)"></path><path d="M 242 192 A 4 4 0 1 1 241.99999800000018 191.99600000066667 Z" class="highcharts-point highcharts-color-0" stroke="rgb(124, 181, 236)"></path><path d="M 267 195 A 4 4 0 1 1 266.9999980000002 194.99600000066667 Z" class="highcharts-point highcharts-color-0" stroke="rgb(124, 181, 236)"></path><path d="M 292 198 A 4 4 0 1 1 291.9999980000002 197.99600000066667 Z" class="highcharts-point highcharts-color-0" stroke="rgb(124, 181, 236)"></path><path d="M 317 201 A 4 4 0 1 1 316.9999980000002 200.99600000066667 Z" class="highcharts-point highcharts-color-0" stroke="rgb(124, 181, 236)"></path><path d="M 342 204 A 4 4 0 1 1 341.9999980000002 203.99600000066667 Z" class="highcharts-point highcharts-color-0" stroke="rgb(124, 181, 236)"></path><path d="M 367 206 A 4 4 0 1 1 366.9999980000002 205.99600000066667 Z" class="highcharts-point highcharts-color-0" stroke="rgb(124, 181, 236)"></path><path d="M 392 206 A 4 4 0 1 1 391.9999980000002 205.99600000066667 Z" class="highcharts-point highcharts-color-0" stroke="rgb(124, 181, 236)"></path><path d="M 418 206 A 4 4 0 1 1 417.9999980000002 205.99600000066667 Z" class="highcharts-point highcharts-color-0" stroke="rgb(124, 181, 236)"></path><path d="M 443 57 A 4 4 0 1 1 442.9999980000002 56.99600000066666 Z" class="highcharts-point highcharts-color-0" stroke="rgb(124, 181, 236)"></path><path d="M 468 59 A 4 4 0 1 1 467.9999980000002 58.99600000066666 Z" class="highcharts-point highcharts-color-0" stroke="rgb(124, 181, 236)"></path><path d="M 493 62 A 4 4 0 1 1 492.9999980000002 61.99600000066666 Z" class="highcharts-point highcharts-color-0" stroke="rgb(124, 181, 236)"></path><path d="M 518 65 A 4 4 0 1 1 517.9999980000001 64.99600000066667 Z" class="highcharts-point highcharts-color-0" stroke="rgb(124, 181, 236)"></path></g><g class="highcharts-series highcharts-series-1 highcharts-line-series highcharts-color-1 " transform="translate(63,65) scale(1 1)" clip-path="url(#highcharts-pg2eo8h-92)" fill="rgb(67, 67, 72)" stroke="rgb(67, 67, 72)" style="transform:matrix(1, 0, 0, 1, 63, 65);webkit-clip-path:url(#highcharts-pg2eo8h-92);webkit-transform:matrix(1, 0, 0, 1, 63, 65);webkit-transition:opacity 0.25s ease 0s;webkit-transition-duration:0.25s;webkit-transition-property:opacity;"><path d="M 12.547619047619 234.2896 L 37.642857142857 235.7501 L 62.738095238095 237.2106 L 87.833333333333 238.6711 L 112.92857142857 240.1316 L 138.02380952381 241.5921 L 163.11904761905 243.0526 L 188.21428571429 243.0526 L 213.30952380952 244.5131 L 238.40476190476 245.9736 L 263.5 247.4341 L 288.59523809524 248.8946 L 313.69047619048 250.3551 L 338.78571428571 251.8156 L 363.88095238095 253.2761 L 388.97619047619 253.2761 L 414.07142857143 253.2761 L 439.16666666667 56.515000000000015 L 464.2619047619 57.97550000000001 L 489.35714285714 59.43600000000001 L 514.45238095238 60.8965" class="highcharts-graph" fill="none" stroke-linecap="round" stroke-linejoin="round" stroke-width="2px"></path></g><g class="highcharts-markers highcharts-series-1 highcharts-line-series highcharts-color-1 " transform="translate(63,65) scale(1 1)" clip-path="none" fill="rgb(67, 67, 72)" stroke="rgb(255, 255, 255)" style="transform:matrix(1, 0, 0, 1, 63, 65);webkit-transform:matrix(1, 0, 0, 1, 63, 65);webkit-transition:opacity 0.25s ease 0s;webkit-transition-duration:0.25s;webkit-transition-property:opacity;"><path d="M 12 230 L 16 234 12 238 8 234 Z" class="highcharts-point highcharts-color-1" stroke="rgb(67, 67, 72)"></path><path d="M 37 232 L 41 236 37 240 33 236 Z" class="highcharts-point highcharts-color-1" stroke="rgb(67, 67, 72)"></path><path d="M 62 233 L 66 237 62 241 58 237 Z" class="highcharts-point highcharts-color-1" stroke="rgb(67, 67, 72)"></path><path d="M 87 235 L 91 239 87 243 83 239 Z" class="highcharts-point highcharts-color-1" stroke="rgb(67, 67, 72)"></path><path d="M 112 236 L 116 240 112 244 108 240 Z" class="highcharts-point highcharts-color-1" stroke="rgb(67, 67, 72)"></path><path d="M 138 238 L 142 242 138 246 134 242 Z" class="highcharts-point highcharts-color-1" stroke="rgb(67, 67, 72)"></path><path d="M 163 239 L 167 243 163 247 159 243 Z" class="highcharts-point highcharts-color-1" stroke="rgb(67, 67, 72)"></path><path d="M 188 239 L 192 243 188 247 184 243 Z" class="highcharts-point highcharts-color-1" stroke="rgb(67, 67, 72)"></path><path d="M 213 241 L 217 245 213 249 209 245 Z" class="highcharts-point highcharts-color-1" stroke="rgb(67, 67, 72)"></path><path d="M 238 242 L 242 246 238 250 234 246 Z" class="highcharts-point highcharts-color-1" stroke="rgb(67, 67, 72)"></path><path d="M 263 243 L 267 247 263 251 259 247 Z" class="highcharts-point highcharts-color-1" stroke="rgb(67, 67, 72)"></path><path d="M 288 245 L 292 249 288 253 284 249 Z" class="highcharts-point highcharts-color-1" stroke="rgb(67, 67, 72)"></path><path d="M 313 246 L 317 250 313 254 309 250 Z" class="highcharts-point highcharts-color-1" stroke="rgb(67, 67, 72)"></path><path d="M 338 248 L 342 252 338 256 334 252 Z" class="highcharts-point highcharts-color-1" stroke="rgb(67, 67, 72)"></path><path d="M 363 249 L 367 253 363 257 359 253 Z" class="highcharts-point highcharts-color-1" stroke="rgb(67, 67, 72)"></path><path d="M 388 249 L 392 253 388 257 384 253 Z" class="highcharts-point highcharts-color-1" stroke="rgb(67, 67, 72)"></path><path d="M 414 249 L 418 253 414 257 410 253 Z" class="highcharts-point highcharts-color-1" stroke="rgb(67, 67, 72)"></path><path d="M 439 53 L 443 57 439 61 435 57 Z" class="highcharts-point highcharts-color-1" stroke="rgb(67, 67, 72)"></path><path d="M 464 54 L 468 58 464 62 460 58 Z" class="highcharts-point highcharts-color-1" stroke="rgb(67, 67, 72)"></path><path d="M 489 55 L 493 59 489 63 485 59 Z" class="highcharts-point highcharts-color-1" stroke="rgb(67, 67, 72)"></path><path d="M 514 57 L 518 61 514 65 510 61 Z" class="highcharts-point highcharts-color-1" stroke="rgb(67, 67, 72)"></path></g><g class="highcharts-series highcharts-series-2 highcharts-line-series highcharts-color-2 " transform="translate(63,65) scale(1 1)" clip-path="url(#highcharts-pg2eo8h-92)" fill="rgb(144, 237, 125)" stroke="rgb(144, 237, 125)" style="transform:matrix(1, 0, 0, 1, 63, 65);webkit-clip-path:url(#highcharts-pg2eo8h-92);webkit-transform:matrix(1, 0, 0, 1, 63, 65);webkit-transition:opacity 0.25s ease 0s;webkit-transition-duration:0.25s;webkit-transition-property:opacity;"><path d="M 12.547619047619 244.2845 L 37.642857142857 245.745 L 62.738095238095 247.2055 L 87.833333333333 248.666 L 112.92857142857 250.1265 L 138.02380952381 251.587 L 163.11904761905 253.0475 L 188.21428571429 56.515000000000015 L 213.30952380952 57.97550000000001 L 238.40476190476 59.43600000000001 L 263.5 60.8965 L 288.59523809524 62.357 L 313.69047619048 63.817499999999995 L 338.78571428571 65.27800000000002 L 363.88095238095 66.73850000000002 L 388.97619047619 66.73850000000002 L 414.07142857143 66.73850000000002 L 439.16666666667 66.73850000000002 L 464.2619047619 68.19900000000001 L 489.35714285714 69.65950000000001 L 514.45238095238 71.12" class="highcharts-graph" fill="none" stroke-linecap="round" stroke-linejoin="round" stroke-width="2px"></path></g><g class="highcharts-markers highcharts-series-2 highcharts-line-series highcharts-color-2 " transform="translate(63,65) scale(1 1)" clip-path="none" fill="rgb(144, 237, 125)" stroke="rgb(255, 255, 255)" style="transform:matrix(1, 0, 0, 1, 63, 65);webkit-transform:matrix(1, 0, 0, 1, 63, 65);webkit-transition:opacity 0.25s ease 0s;webkit-transition-duration:0.25s;webkit-transition-property:opacity;"><path d="M 8 240 L 16 240 16 248 8 248 Z" class="highcharts-point highcharts-color-2" stroke="rgb(144, 237, 125)"></path><path d="M 33 242 L 41 242 41 250 33 250 Z" class="highcharts-point highcharts-color-2" stroke="rgb(144, 237, 125)"></path><path d="M 58 243 L 66 243 66 251 58 251 Z" class="highcharts-point highcharts-color-2" stroke="rgb(144, 237, 125)"></path><path d="M 83 245 L 91 245 91 253 83 253 Z" class="highcharts-point highcharts-color-2" stroke="rgb(144, 237, 125)"></path><path d="M 108 246 L 116 246 116 254 108 254 Z" class="highcharts-point highcharts-color-2" stroke="rgb(144, 237, 125)"></path><path d="M 134 248 L 142 248 142 256 134 256 Z" class="highcharts-point highcharts-color-2" stroke="rgb(144, 237, 125)"></path><path d="M 159 249 L 167 249 167 257 159 257 Z" class="highcharts-point highcharts-color-2" stroke="rgb(144, 237, 125)"></path><path d="M 184 53 L 192 53 192 61 184 61 Z" class="highcharts-point highcharts-color-2" stroke="rgb(144, 237, 125)"></path><path d="M 209 54 L 217 54 217 62 209 62 Z" class="highcharts-point highcharts-color-2" stroke="rgb(144, 237, 125)"></path><path d="M 234 55 L 242 55 242 63 234 63 Z" class="highcharts-point highcharts-color-2" stroke="rgb(144, 237, 125)"></path><path d="M 259 57 L 267 57 267 65 259 65 Z" class="highcharts-point highcharts-color-2" stroke="rgb(144, 237, 125)"></path><path d="M 284 58 L 292 58 292 66 284 66 Z" class="highcharts-point highcharts-color-2" stroke="rgb(144, 237, 125)"></path><path d="M 309 60 L 317 60 317 68 309 68 Z" class="highcharts-point highcharts-color-2" stroke="rgb(144, 237, 125)"></path><path d="M 334 61 L 342 61 342 69 334 69 Z" class="highcharts-point highcharts-color-2" stroke="rgb(144, 237, 125)"></path><path d="M 359 63 L 367 63 367 71 359 71 Z" class="highcharts-point highcharts-color-2" stroke="rgb(144, 237, 125)"></path><path d="M 384 63 L 392 63 392 71 384 71 Z" class="highcharts-point highcharts-color-2" stroke="rgb(144, 237, 125)"></path><path d="M 410 63 L 418 63 418 71 410 71 Z" class="highcharts-point highcharts-color-2" stroke="rgb(144, 237, 125)"></path><path d="M 435 63 L 443 63 443 71 435 71 Z" class="highcharts-point highcharts-color-2" stroke="rgb(144, 237, 125)"></path><path d="M 460 64 L 468 64 468 72 460 72 Z" class="highcharts-point highcharts-color-2" stroke="rgb(144, 237, 125)"></path><path d="M 485 66 L 493 66 493 74 485 74 Z" class="highcharts-point highcharts-color-2" stroke="rgb(144, 237, 125)"></path><path d="M 510 67 L 518 67 518 75 510 75 Z" class="highcharts-point highcharts-color-2" stroke="rgb(144, 237, 125)"></path></g></g><text x="10" text-anchor="start" class="highcharts-title" y="22" fill="rgb(51, 51, 51)" stroke-width="0px" style="font-weight:700;padding:0px 0px 10px;padding-bottom:10px;webkit-padding-after:10px;webkit-perspective-origin:64.1563px 5px;"><tspan class="chart-title">Engine Limits</tspan></text><text x="300" text-anchor="middle" class="highcharts-subtitle" y="49" fill="rgb(102, 102, 102)" stroke-width="0px"></text><g class="highcharts-legend" transform="translate(27,356)" style="transform:matrix(1, 0, 0, 1, 27, 356);webkit-transform:matrix(1, 0, 0, 1, 27, 356);"><rect class="highcharts-legend-box" rx="0" ry="0" x="0" y="0" width="545" height="29" visibility="visible" fill="none" stroke-width="0px" style="block-size:29px;inline-size:545px;rx:0px;ry:0px;"></rect><g><g><g class="highcharts-legend-item highcharts-line-series highcharts-color-0 highcharts-series-0" transform="translate(8,3)" fill="rgb(124, 181, 236)" stroke="rgb(124, 181, 236)" style="transform:matrix(1, 0, 0, 1, 8, 3);webkit-transform:matrix(1, 0, 0, 1, 8, 3);"><path d="M 0 11 L 16 11" class="highcharts-graph" fill="none" stroke-linecap="round" stroke-linejoin="round" stroke-width="2px"></path><path d="M 12 11 A 4 4 0 1 1 11.999998000000167 10.996000000666664 Z" class="highcharts-point" style="webkit-transition:opacity 0.25s ease 0s;webkit-transition-duration:0.25s;webkit-transition-property:opacity;"></path><text x="21" text-anchor="start" y="15" fill="rgb(51, 51, 51)" stroke-width="0px" style="cursor:pointer;font-weight:700;webkit-perspective-origin:116.172px 0px;"><tspan>Engine Time Remaining (Hours)</tspan></text></g><g class="highcharts-legend-item highcharts-line-series highcharts-color-1 highcharts-series-1" transform="translate(239.359375,3)" fill="rgb(67, 67, 72)" stroke="rgb(67, 67, 72)" style="transform:matrix(1, 0, 0, 1, 239.359, 3);webkit-transform:matrix(1, 0, 0, 1, 239.359, 3);"><path d="M 0 11 L 16 11" class="highcharts-graph" fill="none" stroke-linecap="round" stroke-linejoin="round" stroke-width="2px"></path><path d="M 8 7 L 12 11 8 15 4 11 Z" class="highcharts-point" style="webkit-transition:opacity 0.25s ease 0s;webkit-transition-duration:0.25s;webkit-transition-property:opacity;"></path><text x="21" y="15" text-anchor="start" fill="rgb(51, 51, 51)" stroke-width="0px" style="cursor:pointer;font-weight:700;webkit-perspective-origin:79.7969px 0px;"><tspan>LLP Limiter (Cycles)</tspan></text></g><g class="highcharts-legend-item highcharts-line-series highcharts-color-2 highcharts-series-2" transform="translate(397.96875,3)" fill="rgb(144, 237, 125)" stroke="rgb(144, 237, 125)" style="transform:matrix(1, 0, 0, 1, 397.969, 3);webkit-transform:matrix(1, 0, 0, 1, 397.969, 3);"><path d="M 0 11 L 16 11" class="highcharts-graph" fill="none" stroke-linecap="round" stroke-linejoin="round" stroke-width="2px"></path><path d="M 4 7 L 12 7 12 15 4 15 Z" class="highcharts-point" style="webkit-transition:opacity 0.25s ease 0s;webkit-transition-duration:0.25s;webkit-transition-property:opacity;"></path><text x="21" y="15" text-anchor="start" fill="rgb(51, 51, 51)" stroke-width="0px" style="cursor:pointer;font-weight:700;webkit-perspective-origin:80.3438px 0px;"><tspan>Fan Limiter (Cycles)</tspan></text></g></g></g></g><g class="highcharts-axis-labels highcharts-xaxis-labels " fill="rgb(102, 102, 102)" style="cursor:default;font-size:10.8px;"><text x="75.54761904761895" text-anchor="middle" transform="translate(0,0)" y="337" opacity="1" stroke-width="0px" style="transform:matrix(1, 0, 0, 1, 0, 0);webkit-perspective-origin:75.625px 0px;webkit-transform:matrix(1, 0, 0, 1, 0, 0);">0</text><text x="100.64285714286095" text-anchor="middle" transform="translate(0,0)" y="337" opacity="1" stroke-width="0px" style="transform:matrix(1, 0, 0, 1, 0, 0);webkit-perspective-origin:100.625px 0px;webkit-transform:matrix(1, 0, 0, 1, 0, 0);">1</text><text x="125.73809523809093" text-anchor="middle" transform="translate(0,0)" y="337" opacity="1" stroke-width="0px" style="transform:matrix(1, 0, 0, 1, 0, 0);webkit-perspective-origin:125.719px 0px;webkit-transform:matrix(1, 0, 0, 1, 0, 0);">2</text><text x="150.83333333333096" text-anchor="middle" transform="translate(0,0)" y="337" opacity="1" stroke-width="0px" style="transform:matrix(1, 0, 0, 1, 0, 0);webkit-perspective-origin:150.906px 0px;webkit-transform:matrix(1, 0, 0, 1, 0, 0);">3</text><text x="175.92857142857096" text-anchor="middle" transform="translate(0,0)" y="337" opacity="1" stroke-width="0px" style="transform:matrix(1, 0, 0, 1, 0, 0);webkit-perspective-origin:176px 0px;webkit-transform:matrix(1, 0, 0, 1, 0, 0);">4</text><text x="201.02380952381097" text-anchor="middle" transform="translate(0,0)" y="337" opacity="1" stroke-width="0px" style="transform:matrix(1, 0, 0, 1, 0, 0);webkit-perspective-origin:201px 0px;webkit-transform:matrix(1, 0, 0, 1, 0, 0);">5</text><text x="226.11904761905097" text-anchor="middle" transform="translate(0,0)" y="337" opacity="1" stroke-width="0px" style="transform:matrix(1, 0, 0, 1, 0, 0);webkit-perspective-origin:226.203px 0px;webkit-transform:matrix(1, 0, 0, 1, 0, 0);">6</text><text x="251.21428571428095" text-anchor="middle" transform="translate(0,0)" y="337" opacity="1" stroke-width="0px" style="transform:matrix(1, 0, 0, 1, 0, 0);webkit-perspective-origin:251.297px 0px;webkit-transform:matrix(1, 0, 0, 1, 0, 0);">7</text><text x="276.30952380952095" text-anchor="middle" transform="translate(0,0)" y="337" opacity="1" stroke-width="0px" style="transform:matrix(1, 0, 0, 1, 0, 0);webkit-perspective-origin:276.391px 0px;webkit-transform:matrix(1, 0, 0, 1, 0, 0);">8</text><text x="301.40476190476096" text-anchor="middle" transform="translate(0,0)" y="337" opacity="1" stroke-width="0px" style="transform:matrix(1, 0, 0, 1, 0, 0);webkit-perspective-origin:301.484px 0px;webkit-transform:matrix(1, 0, 0, 1, 0, 0);">9</text><text x="326.50000000000097" text-anchor="middle" transform="translate(0,0)" y="337" opacity="1" stroke-width="0px" style="transform:matrix(1, 0, 0, 1, 0, 0);webkit-perspective-origin:326.563px 0px;webkit-transform:matrix(1, 0, 0, 1, 0, 0);">10</text><text x="351.595238095241" text-anchor="middle" transform="translate(0,0)" y="337" opacity="1" stroke-width="0px" style="transform:matrix(1, 0, 0, 1, 0, 0);webkit-perspective-origin:351.594px 0px;webkit-transform:matrix(1, 0, 0, 1, 0, 0);">11</text><text x="376.690476190481" text-anchor="middle" transform="translate(0,0)" y="337" opacity="1" stroke-width="0px" style="transform:matrix(1, 0, 0, 1, 0, 0);webkit-perspective-origin:376.688px 0px;webkit-transform:matrix(1, 0, 0, 1, 0, 0);">12</text><text x="401.785714285711" text-anchor="middle" transform="translate(0,0)" y="337" opacity="1" stroke-width="0px" style="transform:matrix(1, 0, 0, 1, 0, 0);webkit-perspective-origin:401.859px 0px;webkit-transform:matrix(1, 0, 0, 1, 0, 0);">13</text><text x="426.880952380951" text-anchor="middle" transform="translate(0,0)" y="337" opacity="1" stroke-width="0px" style="transform:matrix(1, 0, 0, 1, 0, 0);webkit-perspective-origin:426.953px 0px;webkit-transform:matrix(1, 0, 0, 1, 0, 0);">14</text><text x="451.97619047619094" text-anchor="middle" transform="translate(0,0)" y="337" opacity="1" stroke-width="0px" style="transform:matrix(1, 0, 0, 1, 0, 0);webkit-perspective-origin:451.969px 0px;webkit-transform:matrix(1, 0, 0, 1, 0, 0);">15</text><text x="477.07142857143094" text-anchor="middle" transform="translate(0,0)" y="337" opacity="1" stroke-width="0px" style="transform:matrix(1, 0, 0, 1, 0, 0);webkit-perspective-origin:477.141px 0px;webkit-transform:matrix(1, 0, 0, 1, 0, 0);">16</text><text x="502.16666666667095" text-anchor="middle" transform="translate(0,0)" y="337" opacity="1" stroke-width="0px" style="transform:matrix(1, 0, 0, 1, 0, 0);webkit-perspective-origin:502.234px 0px;webkit-transform:matrix(1, 0, 0, 1, 0, 0);">17</text><text x="527.261904761901" text-anchor="middle" transform="translate(0,0)" y="337" opacity="1" stroke-width="0px" style="transform:matrix(1, 0, 0, 1, 0, 0);webkit-perspective-origin:527.328px 0px;webkit-transform:matrix(1, 0, 0, 1, 0, 0);">18</text><text x="552.357142857141" text-anchor="middle" transform="translate(0,0)" y="337" opacity="1" stroke-width="0px" style="transform:matrix(1, 0, 0, 1, 0, 0);webkit-perspective-origin:552.422px 0px;webkit-transform:matrix(1, 0, 0, 1, 0, 0);">19</text><text x="577.452380952381" text-anchor="middle" transform="translate(0,0)" y="337" opacity="1" stroke-width="0px" style="transform:matrix(1, 0, 0, 1, 0, 0);webkit-perspective-origin:577.516px 0px;webkit-transform:matrix(1, 0, 0, 1, 0, 0);">20</text></g><g class="highcharts-axis-labels highcharts-yaxis-labels highcharts-color-1" fill="rgb(67, 67, 72)" stroke="rgb(67, 67, 72)" style="cursor:default;font-size:10.8px;"><text x="48" text-anchor="end" transform="translate(0,0)" y="321" opacity="1" stroke-width="0px" style="transform:matrix(1, 0, 0, 1, 0, 0);webkit-perspective-origin:44.6563px 0px;webkit-transform:matrix(1, 0, 0, 1, 0, 0);">0</text><text x="48" text-anchor="end" transform="translate(0,0)" y="257" opacity="1" stroke-width="0px" style="transform:matrix(1, 0, 0, 1, 0, 0);webkit-perspective-origin:32.7031px 0px;webkit-transform:matrix(1, 0, 0, 1, 0, 0);">5,000</text><text x="48" text-anchor="end" transform="translate(0,0)" y="194" opacity="1" stroke-width="0px" style="transform:matrix(1, 0, 0, 1, 0, 0);webkit-perspective-origin:29.2813px 0px;webkit-transform:matrix(1, 0, 0, 1, 0, 0);">10,000</text><text x="48" text-anchor="end" transform="translate(0,0)" y="130" opacity="1" stroke-width="0px" style="transform:matrix(1, 0, 0, 1, 0, 0);webkit-perspective-origin:29.2813px 0px;webkit-transform:matrix(1, 0, 0, 1, 0, 0);">15,000</text><text x="48" text-anchor="end" transform="translate(0,0)" y="67" opacity="1" stroke-width="0px" style="transform:matrix(1, 0, 0, 1, 0, 0);webkit-perspective-origin:29.2813px 0px;webkit-transform:matrix(1, 0, 0, 1, 0, 0);">20,000</text></g><g class="highcharts-axis-labels highcharts-yaxis-labels highcharts-color-1" fill="rgb(67, 67, 72)" stroke="rgb(67, 67, 72)" style="cursor:default;font-size:10.8px;"></g><g class="highcharts-axis-labels highcharts-yaxis-labels highcharts-color-2" fill="rgb(144, 237, 125)" stroke="rgb(144, 237, 125)" style="cursor:default;font-size:10.8px;"></g><g class="highcharts-axis-labels highcharts-yaxis-labels highcharts-color-3" fill="rgb(247, 163, 92)" stroke="rgb(247, 163, 92)" style="cursor:default;font-size:10.8px;"></g></svg>