<svg xmlns:xlink="http://www.w3.org/1999/xlink" version="1.1" class="highcharts-root" xmlns="http://www.w3.org/2000/svg" width="600" height="400" viewBox="0 0 600 400" style="block-size:400px;border:0px none rgb(80, 80, 80);border-bottom:0px none rgb(80, 80, 80);border-bottom-color:rgb(80, 80, 80);border-color:rgb(80, 80, 80);border-left:0px none rgb(80, 80, 80);border-left-color:rgb(80, 80, 80);border-right:0px none rgb(80, 80, 80);border-right-color:rgb(80, 80, 80);border-top:0px none rgb(80, 80, 80);border-top-color:rgb(80, 80, 80);box-sizing:border-box;caret-color:rgb(80, 80, 80);color:rgb(80, 80, 80);column-rule:0px none rgb(80, 80, 80);column-rule-color:rgb(80, 80, 80);display:block;font-family:&quot;Lucida Grande&quot;, &quot;Lucida Sans Unicode&quot;, Arial, Helvetica, sans-serif;font-size:12px;inline-size:600px;outline:rgb(80, 80, 80) none 0px;outline-color:rgb(80, 80, 80);text-align:left;text-decoration:none solid rgb(80, 80, 80);text-decoration-color:rgb(80, 80, 80);text-size-adjust:100%;transform-origin:300px 200px;webkit-border-after:0px none rgb(80, 80, 80);webkit-border-after-color:rgb(80, 80, 80);webkit-border-before:0px none rgb(80, 80, 80);webkit-border-before-color:rgb(80, 80, 80);webkit-border-end:0px none rgb(80, 80, 80);webkit-border-end-color:rgb(80, 80, 80);webkit-border-start:0px none rgb(80, 80, 80);webkit-border-start-color:rgb(80, 80, 80);webkit-box-sizing:border-box;webkit-column-rule:0px none rgb(80, 80, 80);webkit-column-rule-color:rgb(80, 80, 80);webkit-locale:&quot;en&quot;;webkit-perspective-origin:300px 200px;webkit-text-emphasis-color:rgb(80, 80, 80);webkit-text-fill-color:rgb(80, 80, 80);webkit-text-size-adjust:100%;webkit-text-stroke-color:rgb(80, 80, 80);webkit-transform-origin:300px 200px;" stroke-width="1px"><desc>Created with Highcharts 6.0.7</desc><defs><clipPath id="highcharts-pg2eo8h-102"><rect x="0" y="0" width="480" height="249"></rect></clipPath></defs><rect class="highcharts-background" x="0.5px" y="0.5px" width="598" height="398" rx="0" ry="0" fill="rgb(255, 255, 255)" style="block-size:398px;inline-size:598px;rx:0px;ry:0px;"></rect><rect class="highcharts-plot-background" x="110px" y="65px" width="480" height="249" fill="none" style="block-size:249px;inline-size:480px;"></rect><g class="highcharts-pane-group"></g><g class="highcharts-grid highcharts-xaxis-grid "><path class="highcharts-grid-line" d="M 132.5 65 L 132.5 314" opacity="1" fill="none" stroke="rgb(230, 230, 230)" stroke-width="0px"></path><path class="highcharts-grid-line" d="M 155.5 65 L 155.5 314" opacity="1" fill="none" stroke="rgb(230, 230, 230)" stroke-width="0px"></path><path class="highcharts-grid-line" d="M 178.5 65 L 178.5 314" opacity="1" fill="none" stroke="rgb(230, 230, 230)" stroke-width="0px"></path><path class="highcharts-grid-line" d="M 200.5 65 L 200.5 314" opacity="1" fill="none" stroke="rgb(230, 230, 230)" stroke-width="0px"></path><path class="highcharts-grid-line" d="M 223.5 65 L 223.5 314" opacity="1" fill="none" stroke="rgb(230, 230, 230)" stroke-width="0px"></path><path class="highcharts-grid-line" d="M 246.5 65 L 246.5 314" opacity="1" fill="none" stroke="rgb(230, 230, 230)" stroke-width="0px"></path><path class="highcharts-grid-line" d="M 269.5 65 L 269.5 314" opacity="1" fill="none" stroke="rgb(230, 230, 230)" stroke-width="0px"></path><path class="highcharts-grid-line" d="M 292.5 65 L 292.5 314" opacity="1" fill="none" stroke="rgb(230, 230, 230)" stroke-width="0px"></path><path class="highcharts-grid-line" d="M 315.5 65 L 315.5 314" opacity="1" fill="none" stroke="rgb(230, 230, 230)" stroke-width="0px"></path><path class="highcharts-grid-line" d="M 338.5 65 L 338.5 314" opacity="1" fill="none" stroke="rgb(230, 230, 230)" stroke-width="0px"></path><path class="highcharts-grid-line" d="M 360.5 65 L 360.5 314" opacity="1" fill="none" stroke="rgb(230, 230, 230)" stroke-width="0px"></path><path class="highcharts-grid-line" d="M 383.5 65 L 383.5 314" opacity="1" fill="none" stroke="rgb(230, 230, 230)" stroke-width="0px"></path><path class="highcharts-grid-line" d="M 406.5 65 L 406.5 314" opacity="1" fill="none" stroke="rgb(230, 230, 230)" stroke-width="0px"></path><path class="highcharts-grid-line" d="M 429.5 65 L 429.5 314" opacity="1" fill="none" stroke="rgb(230, 230, 230)" stroke-width="0px"></path><path class="highcharts-grid-line" d="M 452.5 65 L 452.5 314" opacity="1" fill="none" stroke="rgb(230, 230, 230)" stroke-width="0px"></path><path class="highcharts-grid-line" d="M 475.5 65 L 475.5 314" opacity="1" fill="none" stroke="rgb(230, 230, 230)" stroke-width="0px"></path><path class="highcharts-grid-line" d="M 498.5 65 L 498.5 314" opacity="1" fill="none" stroke="rgb(230, 230, 230)" stroke-width="0px"></path><path class="highcharts-grid-line" d="M 520.5 65 L 520.5 314" opacity="1" fill="none" stroke="rgb(230, 230, 230)" stroke-width="0px"></path><path class="highcharts-grid-line" d="M 543.5 65 L 543.5 314" opacity="1" fill="none" stroke="rgb(230, 230, 230)" stroke-width="0px"></path><path class="highcharts-grid-line" d="M 566.5 65 L 566.5 314" opacity="1" fill="none" stroke="rgb(230, 230, 230)" stroke-width="0px"></path><path class="highcharts-grid-line" d="M 589.5 65 L 589.5 314" opacity="1" fill="none" stroke="rgb(230, 230, 230)" stroke-width="0px"></path><path class="highcharts-grid-line" d="M 109.5 65 L 109.5 314" opacity="1" fill="none" stroke="rgb(230, 230, 230)" stroke-width="0px"></path></g><g class="highcharts-grid highcharts-yaxis-grid highcharts-color-1" fill="rgb(67, 67, 72)" stroke="rgb(67, 67, 72)"><path class="highcharts-grid-line" d="M 110 314.5 L 590 314.5" opacity="1" fill="none" stroke="rgb(230, 230, 230)"></path><path class="highcharts-grid-line" d="M 110 252.5 L 590 252.5" opacity="1" fill="none" stroke="rgb(230, 230, 230)"></path><path class="highcharts-grid-line" d="M 110 190.5 L 590 190.5" opacity="1" fill="none" stroke="rgb(230, 230, 230)"></path><path class="highcharts-grid-line" d="M 110 127.5 L 590 127.5" opacity="1" fill="none" stroke="rgb(230, 230, 230)"></path><path class="highcharts-grid-line" d="M 110 64.5 L 590 64.5" opacity="1" fill="none" stroke="rgb(230, 230, 230)"></path></g><g class="highcharts-grid highcharts-yaxis-grid highcharts-color-1" fill="rgb(67, 67, 72)" stroke="rgb(67, 67, 72)"></g><g class="highcharts-grid highcharts-yaxis-grid highcharts-color-2" fill="rgb(144, 237, 125)" stroke="rgb(144, 237, 125)"></g><g class="highcharts-grid highcharts-yaxis-grid highcharts-color-3" fill="rgb(247, 163, 92)" stroke="rgb(247, 163, 92)"></g><rect class="highcharts-plot-border" x="109.5px" y="64.5px" width="481" height="250" fill="none" style="block-size:250px;inline-size:481px;"></rect><g class="highcharts-axis highcharts-xaxis "><path class="highcharts-axis-line" d="M 110 314.5 L 590 314.5" fill="none" stroke="rgb(204, 214, 235)"></path><path class="highcharts-tick" d="M 132.5 314 L 132.5 324" opacity="1" stroke="rgb(204, 214, 235)"></path><path class="highcharts-tick" d="M 155.5 314 L 155.5 324" opacity="1" stroke="rgb(204, 214, 235)"></path><path class="highcharts-tick" d="M 178.5 314 L 178.5 324" opacity="1" stroke="rgb(204, 214, 235)"></path><path class="highcharts-tick" d="M 200.5 314 L 200.5 324" opacity="1" stroke="rgb(204, 214, 235)"></path><path class="highcharts-tick" d="M 223.5 314 L 223.5 324" opacity="1" stroke="rgb(204, 214, 235)"></path><path class="highcharts-tick" d="M 246.5 314 L 246.5 324" opacity="1" stroke="rgb(204, 214, 235)"></path><path class="highcharts-tick" d="M 269.5 314 L 269.5 324" opacity="1" stroke="rgb(204, 214, 235)"></path><path class="highcharts-tick" d="M 292.5 314 L 292.5 324" opacity="1" stroke="rgb(204, 214, 235)"></path><path class="highcharts-tick" d="M 315.5 314 L 315.5 324" opacity="1" stroke="rgb(204, 214, 235)"></path><path class="highcharts-tick" d="M 338.5 314 L 338.5 324" opacity="1" stroke="rgb(204, 214, 235)"></path><path class="highcharts-tick" d="M 360.5 314 L 360.5 324" opacity="1" stroke="rgb(204, 214, 235)"></path><path class="highcharts-tick" d="M 383.5 314 L 383.5 324" opacity="1" stroke="rgb(204, 214, 235)"></path><path class="highcharts-tick" d="M 406.5 314 L 406.5 324" opacity="1" stroke="rgb(204, 214, 235)"></path><path class="highcharts-tick" d="M 429.5 314 L 429.5 324" opacity="1" stroke="rgb(204, 214, 235)"></path><path class="highcharts-tick" d="M 452.5 314 L 452.5 324" opacity="1" stroke="rgb(204, 214, 235)"></path><path class="highcharts-tick" d="M 475.5 314 L 475.5 324" opacity="1" stroke="rgb(204, 214, 235)"></path><path class="highcharts-tick" d="M 498.5 314 L 498.5 324" opacity="1" stroke="rgb(204, 214, 235)"></path><path class="highcharts-tick" d="M 520.5 314 L 520.5 324" opacity="1" stroke="rgb(204, 214, 235)"></path><path class="highcharts-tick" d="M 543.5 314 L 543.5 324" opacity="1" stroke="rgb(204, 214, 235)"></path><path class="highcharts-tick" d="M 566.5 314 L 566.5 324" opacity="1" stroke="rgb(204, 214, 235)"></path><path class="highcharts-tick" d="M 590.5 314 L 590.5 324" opacity="1" stroke="rgb(204, 214, 235)"></path><path class="highcharts-tick" d="M 109.5 314 L 109.5 324" opacity="1" stroke="rgb(204, 214, 235)"></path></g><g class="highcharts-axis highcharts-yaxis highcharts-color-1" fill="rgb(67, 67, 72)" stroke="rgb(67, 67, 72)"><path class="highcharts-axis-line" d="M 110 65 L 110 314" fill="none" stroke="rgb(204, 214, 235)" stroke-width="0px"></path></g><g class="highcharts-axis highcharts-yaxis highcharts-color-1" fill="rgb(67, 67, 72)" stroke="rgb(67, 67, 72)"><path class="highcharts-axis-line" d="M 10 65 L 10 314" fill="none" stroke="rgb(204, 214, 235)" stroke-width="0px"></path></g><g class="highcharts-axis highcharts-yaxis highcharts-color-2" fill="rgb(144, 237, 125)" stroke="rgb(144, 237, 125)"><path class="highcharts-axis-line" d="M 590 65 L 590 314" fill="none" stroke="rgb(204, 214, 235)" stroke-width="0px"></path></g><g class="highcharts-axis highcharts-yaxis highcharts-color-3" fill="rgb(247, 163, 92)" stroke="rgb(247, 163, 92)"><path class="highcharts-axis-line" d="M 10 65 L 10 314" fill="none" stroke="rgb(204, 214, 235)" stroke-width="0px"></path></g><g class="highcharts-series-group"><g class="highcharts-series highcharts-series-0 highcharts-area-series highcharts-color-0 " transform="translate(110,65) scale(1 1)" clip-path="url(#highcharts-pg2eo8h-102)" fill="rgb(124, 181, 236)" stroke="rgb(124, 181, 236)" style="transform:matrix(1, 0, 0, 1, 110, 65);webkit-clip-path:url(#highcharts-pg2eo8h-102);webkit-transform:matrix(1, 0, 0, 1, 110, 65);webkit-transition:opacity 0.25s ease 0s;webkit-transition-duration:0.25s;webkit-transition-property:opacity;"><path d="M 11.428571428571 62.25000000000003 L 34.285714285714 59.896569029999995 L 57.142857142857 57.54313805999999 L 80 55.18970709000001 L 102.85714285714 52.83627612000001 L 125.71428571429 50.48284515 L 148.57142857143 48.12941418 L 171.42857142857 60.98835186000002 L 194.28571428571 58.63492089000002 L 217.14285714286 56.27626403250002 L 240 53.917607175 L 262.85714285714 51.558950317500006 L 285.71428571429 49.20029346000001 L 308.57142857143 46.773675787500025 L 331.42857142857 44.34705811500001 L 354.28571428571 44.34705811500001 L 377.14285714286 44.34705811500001 L 400 208.74507511500002 L 422.85714285714 206.3184574425 L 445.71428571429 203.89183977 L 468.57142857143 201.4652220975 L 468.57142857143 80.03487791250001 L 445.71428571429 80.12744054999999 L 422.85714285714 80.22000318750003 L 400 80.31256582500004 L 377.14285714286 76.20829882500001 L 354.28571428571 76.20829882500001 L 331.42857142857 76.20829882500001 L 308.57142857143 76.3008614625 L 285.71428571429 76.39342410000003 L 262.85714285714 76.48598673750001 L 240 76.57854937500002 L 217.14285714286 76.67111201250003 L 194.28571428571 76.76367465000001 L 171.42857142857 76.8510114 L 148.57142857143 61.72597950000002 L 125.71428571429 61.813316250000014 L 102.85714285714 61.900653000000005 L 80 61.987989750000025 L 57.142857142857 62.07532650000002 L 34.285714285714 62.16266325000001 L 11.428571428571 62.25000000000003" class="highcharts-area" stroke-width="0px" style="fill-opacity:0.75;"></path><path d="M 11.428571428571 62.25000000000003 L 34.285714285714 59.896569029999995 L 57.142857142857 57.54313805999999 L 80 55.18970709000001 L 102.85714285714 52.83627612000001 L 125.71428571429 50.48284515 L 148.57142857143 48.12941418 L 171.42857142857 60.98835186000002 L 194.28571428571 58.63492089000002 L 217.14285714286 56.27626403250002 L 240 53.917607175 L 262.85714285714 51.558950317500006 L 285.71428571429 49.20029346000001 L 308.57142857143 46.773675787500025 L 331.42857142857 44.34705811500001 L 354.28571428571 44.34705811500001 L 377.14285714286 44.34705811500001 L 400 208.74507511500002 L 422.85714285714 206.3184574425 L 445.71428571429 203.89183977 L 468.57142857143 201.4652220975" class="highcharts-graph" fill="none" stroke-linecap="round" stroke-linejoin="round" stroke-width="2px"></path></g><g class="highcharts-markers highcharts-series-0 highcharts-area-series highcharts-color-0 " transform="translate(110,65) scale(1 1)" clip-path="none" fill="rgb(124, 181, 236)" stroke="rgb(255, 255, 255)" style="transform:matrix(1, 0, 0, 1, 110, 65);webkit-transform:matrix(1, 0, 0, 1, 110, 65);webkit-transition:opacity 0.25s ease 0s;webkit-transition-duration:0.25s;webkit-transition-property:opacity;"><path d="M 15 62 A 4 4 0 1 1 14.999998000000167 61.99600000066666 Z" class="highcharts-point highcharts-color-0" stroke="rgb(124, 181, 236)"></path><path d="M 38 60 A 4 4 0 1 1 37.99999800000017 59.99600000066666 Z" class="highcharts-point highcharts-color-0" stroke="rgb(124, 181, 236)"></path><path d="M 61 58 A 4 4 0 1 1 60.99999800000017 57.99600000066666 Z" class="highcharts-point highcharts-color-0" stroke="rgb(124, 181, 236)"></path><path d="M 84 55 A 4 4 0 1 1 83.99999800000016 54.99600000066666 Z" class="highcharts-point highcharts-color-0" stroke="rgb(124, 181, 236)"></path><path d="M 106 53 A 4 4 0 1 1 105.99999800000016 52.99600000066666 Z" class="highcharts-point highcharts-color-0" stroke="rgb(124, 181, 236)"></path><path d="M 129 50 A 4 4 0 1 1 128.99999800000018 49.99600000066666 Z" class="highcharts-point highcharts-color-0" stroke="rgb(124, 181, 236)"></path><path d="M 152 48 A 4 4 0 1 1 151.99999800000018 47.99600000066666 Z" class="highcharts-point highcharts-color-0" stroke="rgb(124, 181, 236)"></path><path d="M 175 61 A 4 4 0 1 1 174.99999800000018 60.99600000066666 Z" class="highcharts-point highcharts-color-0" stroke="rgb(124, 181, 236)"></path><path d="M 198 59 A 4 4 0 1 1 197.99999800000018 58.99600000066666 Z" class="highcharts-point highcharts-color-0" stroke="rgb(124, 181, 236)"></path><path d="M 221 56 A 4 4 0 1 1 220.99999800000018 55.99600000066666 Z" class="highcharts-point highcharts-color-0" stroke="rgb(124, 181, 236)"></path><path d="M 244 54 A 4 4 0 1 1 243.99999800000018 53.99600000066666 Z" class="highcharts-point highcharts-color-0" stroke="rgb(124, 181, 236)"></path><path d="M 266 52 A 4 4 0 1 1 265.9999980000002 51.99600000066666 Z" class="highcharts-point highcharts-color-0" stroke="rgb(124, 181, 236)"></path><path d="M 289 49 A 4 4 0 1 1 288.9999980000002 48.99600000066666 Z" class="highcharts-point highcharts-color-0" stroke="rgb(124, 181, 236)"></path><path d="M 312 47 A 4 4 0 1 1 311.9999980000002 46.99600000066666 Z" class="highcharts-point highcharts-color-0" stroke="rgb(124, 181, 236)"></path><path d="M 335 44 A 4 4 0 1 1 334.9999980000002 43.99600000066666 Z" class="highcharts-point highcharts-color-0" stroke="rgb(124, 181, 236)"></path><path d="M 358 44 A 4 4 0 1 1 357.9999980000002 43.99600000066666 Z" class="highcharts-point highcharts-color-0" stroke="rgb(124, 181, 236)"></path><path d="M 381 44 A 4 4 0 1 1 380.9999980000002 43.99600000066666 Z" class="highcharts-point highcharts-color-0" stroke="rgb(124, 181, 236)"></path><path d="M 404 209 A 4 4 0 1 1 403.9999980000002 208.99600000066667 Z" class="highcharts-point highcharts-negative highcharts-color-0" stroke="rgb(124, 181, 236)"></path><path d="M 426 206 A 4 4 0 1 1 425.9999980000002 205.99600000066667 Z" class="highcharts-point highcharts-negative highcharts-color-0" stroke="rgb(124, 181, 236)"></path><path d="M 449 204 A 4 4 0 1 1 448.9999980000002 203.99600000066667 Z" class="highcharts-point highcharts-negative highcharts-color-0" stroke="rgb(124, 181, 236)"></path><path d="M 472 201 A 4 4 0 1 1 471.9999980000002 200.99600000066667 Z" class="highcharts-point highcharts-negative highcharts-color-0" stroke="rgb(124, 181, 236)"></path></g><g class="highcharts-series highcharts-series-1 highcharts-area-series highcharts-color-1 " transform="translate(110,65) scale(1 1)" clip-path="url(#highcharts-pg2eo8h-102)" fill="rgb(67, 67, 72)" stroke="rgb(67, 67, 72)" style="transform:matrix(1, 0, 0, 1, 110, 65);webkit-clip-path:url(#highcharts-pg2eo8h-102);webkit-transform:matrix(1, 0, 0, 1, 110, 65);webkit-transition:opacity 0.25s ease 0s;webkit-transition-duration:0.25s;webkit-transition-property:opacity;"><path d="M 11.428571428571 62.25000000000003 L 34.285714285714 62.16266325000001 L 57.142857142857 62.07532650000002 L 80 61.987989750000025 L 102.85714285714 61.900653000000005 L 125.71428571429 61.813316250000014 L 148.57142857143 61.72597950000002 L 171.42857142857 76.8510114 L 194.28571428571 76.76367465000001 L 217.14285714286 76.67111201250003 L 240 76.57854937500002 L 262.85714285714 76.48598673750001 L 285.71428571429 76.39342410000003 L 308.57142857143 76.3008614625 L 331.42857142857 76.20829882500001 L 354.28571428571 76.20829882500001 L 377.14285714286 76.20829882500001 L 400 80.31256582500004 L 422.85714285714 80.22000318750003 L 445.71428571429 80.12744054999999 L 468.57142857143 80.03487791250001 L 468.57142857143 62.25000000000003 L 445.71428571429 62.25000000000003 L 422.85714285714 62.25000000000003 L 400 62.25000000000003 L 377.14285714286 62.25000000000003 L 354.28571428571 62.25000000000003 L 331.42857142857 62.25000000000003 L 308.57142857143 62.25000000000003 L 285.71428571429 62.25000000000003 L 262.85714285714 62.25000000000003 L 240 62.25000000000003 L 217.14285714286 62.25000000000003 L 194.28571428571 62.25000000000003 L 171.42857142857 62.25000000000003 L 148.57142857143 62.25000000000003 L 125.71428571429 62.25000000000003 L 102.85714285714 62.25000000000003 L 80 62.25000000000003 L 57.142857142857 62.25000000000003 L 34.285714285714 62.25000000000003 L 11.428571428571 62.25000000000003" class="highcharts-area" stroke-width="0px" style="fill-opacity:0.75;"></path><path d="M 11.428571428571 62.25000000000003 L 34.285714285714 62.16266325000001 L 57.142857142857 62.07532650000002 L 80 61.987989750000025 L 102.85714285714 61.900653000000005 L 125.71428571429 61.813316250000014 L 148.57142857143 61.72597950000002 L 171.42857142857 76.8510114 L 194.28571428571 76.76367465000001 L 217.14285714286 76.67111201250003 L 240 76.57854937500002 L 262.85714285714 76.48598673750001 L 285.71428571429 76.39342410000003 L 308.57142857143 76.3008614625 L 331.42857142857 76.20829882500001 L 354.28571428571 76.20829882500001 L 377.14285714286 76.20829882500001 L 400 80.31256582500004 L 422.85714285714 80.22000318750003 L 445.71428571429 80.12744054999999 L 468.57142857143 80.03487791250001" class="highcharts-graph" fill="none" stroke-linecap="round" stroke-linejoin="round" stroke-width="2px"></path></g><g class="highcharts-markers highcharts-series-1 highcharts-area-series highcharts-color-1 " transform="translate(110,65) scale(1 1)" clip-path="none" fill="rgb(67, 67, 72)" stroke="rgb(255, 255, 255)" style="transform:matrix(1, 0, 0, 1, 110, 65);webkit-transform:matrix(1, 0, 0, 1, 110, 65);webkit-transition:opacity 0.25s ease 0s;webkit-transition-duration:0.25s;webkit-transition-property:opacity;"><path d="M 11 58 L 15 62 11 66 7 62 Z" class="highcharts-point highcharts-color-1" stroke="rgb(67, 67, 72)"></path><path d="M 34 58 L 38 62 34 66 30 62 Z" class="highcharts-point highcharts-color-1" stroke="rgb(67, 67, 72)"></path><path d="M 57 58 L 61 62 57 66 53 62 Z" class="highcharts-point highcharts-color-1" stroke="rgb(67, 67, 72)"></path><path d="M 80 58 L 84 62 80 66 76 62 Z" class="highcharts-point highcharts-color-1" stroke="rgb(67, 67, 72)"></path><path d="M 102 58 L 106 62 102 66 98 62 Z" class="highcharts-point highcharts-color-1" stroke="rgb(67, 67, 72)"></path><path d="M 125 58 L 129 62 125 66 121 62 Z" class="highcharts-point highcharts-color-1" stroke="rgb(67, 67, 72)"></path><path d="M 148 58 L 152 62 148 66 144 62 Z" class="highcharts-point highcharts-color-1" stroke="rgb(67, 67, 72)"></path><path d="M 171 73 L 175 77 171 81 167 77 Z" class="highcharts-point highcharts-negative highcharts-color-1" stroke="rgb(67, 67, 72)"></path><path d="M 194 73 L 198 77 194 81 190 77 Z" class="highcharts-point highcharts-negative highcharts-color-1" stroke="rgb(67, 67, 72)"></path><path d="M 217 73 L 221 77 217 81 213 77 Z" class="highcharts-point highcharts-negative highcharts-color-1" stroke="rgb(67, 67, 72)"></path><path d="M 240 73 L 244 77 240 81 236 77 Z" class="highcharts-point highcharts-negative highcharts-color-1" stroke="rgb(67, 67, 72)"></path><path d="M 262 72 L 266 76 262 80 258 76 Z" class="highcharts-point highcharts-negative highcharts-color-1" stroke="rgb(67, 67, 72)"></path><path d="M 285 72 L 289 76 285 80 281 76 Z" class="highcharts-point highcharts-negative highcharts-color-1" stroke="rgb(67, 67, 72)"></path><path d="M 308 72 L 312 76 308 80 304 76 Z" class="highcharts-point highcharts-negative highcharts-color-1" stroke="rgb(67, 67, 72)"></path><path d="M 331 72 L 335 76 331 80 327 76 Z" class="highcharts-point highcharts-negative highcharts-color-1" stroke="rgb(67, 67, 72)"></path><path d="M 354 72 L 358 76 354 80 350 76 Z" class="highcharts-point highcharts-negative highcharts-color-1" stroke="rgb(67, 67, 72)"></path><path d="M 377 72 L 381 76 377 80 373 76 Z" class="highcharts-point highcharts-negative highcharts-color-1" stroke="rgb(67, 67, 72)"></path><path d="M 400 76 L 404 80 400 84 396 80 Z" class="highcharts-point highcharts-negative highcharts-color-1" stroke="rgb(67, 67, 72)"></path><path d="M 422 76 L 426 80 422 84 418 80 Z" class="highcharts-point highcharts-negative highcharts-color-1" stroke="rgb(67, 67, 72)"></path><path d="M 445 76 L 449 80 445 84 441 80 Z" class="highcharts-point highcharts-negative highcharts-color-1" stroke="rgb(67, 67, 72)"></path><path d="M 468 76 L 472 80 468 84 464 80 Z" class="highcharts-point highcharts-negative highcharts-color-1" stroke="rgb(67, 67, 72)"></path></g></g><text x="10" text-anchor="start" class="highcharts-title" y="22" fill="rgb(51, 51, 51)" stroke-width="0px" style="font-weight:700;padding:0px 0px 10px;padding-bottom:10px;webkit-padding-after:10px;webkit-perspective-origin:159.453px 5px;"><tspan class="chart-title">Engine Accumulated EOLFA/Reserves</tspan></text><text x="300" text-anchor="middle" class="highcharts-subtitle" y="49" fill="rgb(102, 102, 102)" stroke-width="0px"></text><g class="highcharts-legend" transform="translate(230,356)" style="transform:matrix(1, 0, 0, 1, 230, 356);webkit-transform:matrix(1, 0, 0, 1, 230, 356);"><rect class="highcharts-legend-box" rx="0" ry="0" x="0" y="0" width="140" height="29" visibility="visible" fill="none" stroke-width="0px" style="block-size:29px;inline-size:140px;rx:0px;ry:0px;"></rect><g><g><g class="highcharts-legend-item highcharts-area-series highcharts-color-0 highcharts-series-0" transform="translate(8,3)" fill="rgb(124, 181, 236)" stroke="rgb(124, 181, 236)" style="transform:matrix(1, 0, 0, 1, 8, 3);webkit-transform:matrix(1, 0, 0, 1, 8, 3);"><text x="21" text-anchor="start" y="15" fill="rgb(51, 51, 51)" stroke-width="0px" style="cursor:pointer;font-weight:700;webkit-perspective-origin:41.7656px 0px;"><tspan>Engine</tspan></text><rect x="2px" y="4px" width="12" height="12" rx="6" ry="6" class="highcharts-point" style="block-size:12px;inline-size:12px;rx:6px;ry:6px;webkit-transition:opacity 0.25s ease 0s;webkit-transition-duration:0.25s;webkit-transition-property:opacity;"></rect></g><g class="highcharts-legend-item highcharts-area-series highcharts-color-1 highcharts-series-1" transform="translate(90.546875,3)" fill="rgb(67, 67, 72)" stroke="rgb(67, 67, 72)" style="transform:matrix(1, 0, 0, 1, 90.5469, 3);webkit-transform:matrix(1, 0, 0, 1, 90.5469, 3);"><text x="21" y="15" text-anchor="start" fill="rgb(51, 51, 51)" stroke-width="0px" style="cursor:pointer;font-weight:700;webkit-perspective-origin:31.625px 0px;"><tspan>LLP</tspan></text><rect x="2px" y="4px" width="12" height="12" rx="6" ry="6" class="highcharts-point" style="block-size:12px;inline-size:12px;rx:6px;ry:6px;webkit-transition:opacity 0.25s ease 0s;webkit-transition-duration:0.25s;webkit-transition-property:opacity;"></rect></g></g></g></g><g class="highcharts-axis-labels highcharts-xaxis-labels " fill="rgb(102, 102, 102)" style="cursor:default;font-size:10.8px;"><text x="123.78559403252372" text-anchor="end" transform="translate(0,0) rotate(-45 123.78559403252372 329)" y="329" opacity="1" stroke-width="0px" style="transform:matrix(0.707107, -0.707107, 0.707107, 0.707107, -196.382, 183.891);webkit-perspective-origin:120.453px 0px;webkit-transform:matrix(0.707107, -0.707107, 0.707107, 0.707107, -196.382, 183.891);">0</text><text x="146.64273688967376" text-anchor="end" transform="translate(0,0) rotate(-45 146.64273688967376 329)" y="329" opacity="1" stroke-width="0px" style="transform:matrix(0.707107, -0.707107, 0.707107, 0.707107, -189.687, 200.054);webkit-perspective-origin:143.219px 0px;webkit-transform:matrix(0.707107, -0.707107, 0.707107, 0.707107, -189.687, 200.054);">1</text><text x="169.49987974681375" text-anchor="end" transform="translate(0,0) rotate(-45 169.49987974681375 329)" y="329" opacity="1" stroke-width="0px" style="transform:matrix(0.707107, -0.707107, 0.707107, 0.707107, -182.993, 216.216);webkit-perspective-origin:166.063px 0px;webkit-transform:matrix(0.707107, -0.707107, 0.707107, 0.707107, -182.993, 216.216);">2</text><text x="192.35702260395374" text-anchor="end" transform="translate(0,0) rotate(-45 192.35702260395374 329)" y="329" opacity="1" stroke-width="0px" style="transform:matrix(0.707107, -0.707107, 0.707107, 0.707107, -176.298, 232.379);webkit-perspective-origin:189.016px 0px;webkit-transform:matrix(0.707107, -0.707107, 0.707107, 0.707107, -176.298, 232.379);">3</text><text x="215.21416546109373" text-anchor="end" transform="translate(0,0) rotate(-45 215.21416546109373 329)" y="329" opacity="1" stroke-width="0px" style="transform:matrix(0.707107, -0.707107, 0.707107, 0.707107, -169.603, 248.541);webkit-perspective-origin:211.875px 0px;webkit-transform:matrix(0.707107, -0.707107, 0.707107, 0.707107, -169.603, 248.541);">4</text><text x="238.07130831824375" text-anchor="end" transform="translate(0,0) rotate(-45 238.07130831824375 329)" y="329" opacity="1" stroke-width="0px" style="transform:matrix(0.707107, -0.707107, 0.707107, 0.707107, -162.909, 264.704);webkit-perspective-origin:234.641px 0px;webkit-transform:matrix(0.707107, -0.707107, 0.707107, 0.707107, -162.909, 264.704);">5</text><text x="260.9284511753837" text-anchor="end" transform="translate(0,0) rotate(-45 260.9284511753837 329)" y="329" opacity="1" stroke-width="0px" style="transform:matrix(0.707107, -0.707107, 0.707107, 0.707107, -156.214, 280.866);webkit-perspective-origin:257.594px 0px;webkit-transform:matrix(0.707107, -0.707107, 0.707107, 0.707107, -156.214, 280.866);">6</text><text x="283.7855940325237" text-anchor="end" transform="translate(0,0) rotate(-45 283.7855940325237 329)" y="329" opacity="1" stroke-width="0px" style="transform:matrix(0.707107, -0.707107, 0.707107, 0.707107, -149.519, 297.029);webkit-perspective-origin:280.453px 0px;webkit-transform:matrix(0.707107, -0.707107, 0.707107, 0.707107, -149.519, 297.029);">7</text><text x="306.6427368896737" text-anchor="end" transform="translate(0,0) rotate(-45 306.6427368896737 329)" y="329" opacity="1" stroke-width="0px" style="transform:matrix(0.707107, -0.707107, 0.707107, 0.707107, -142.825, 313.191);webkit-perspective-origin:303.313px 0px;webkit-transform:matrix(0.707107, -0.707107, 0.707107, 0.707107, -142.825, 313.191);">8</text><text x="329.4998797468137" text-anchor="end" transform="translate(0,0) rotate(-45 329.4998797468137 329)" y="329" opacity="1" stroke-width="0px" style="transform:matrix(0.707107, -0.707107, 0.707107, 0.707107, -136.13, 329.353);webkit-perspective-origin:326.156px 0px;webkit-transform:matrix(0.707107, -0.707107, 0.707107, 0.707107, -136.13, 329.353);">9</text><text x="352.35702260395374" text-anchor="end" transform="translate(0,0) rotate(-45 352.35702260395374 329)" y="329" opacity="1" stroke-width="0px" style="transform:matrix(0.707107, -0.707107, 0.707107, 0.707107, -129.435, 345.516);webkit-perspective-origin:345.594px 0px;webkit-transform:matrix(0.707107, -0.707107, 0.707107, 0.707107, -129.435, 345.516);">10</text><text x="375.2141654610937" text-anchor="end" transform="translate(0,0) rotate(-45 375.2141654610937 329)" y="329" opacity="1" stroke-width="0px" style="transform:matrix(0.707107, -0.707107, 0.707107, 0.707107, -122.74, 361.678);webkit-perspective-origin:368.375px 0px;webkit-transform:matrix(0.707107, -0.707107, 0.707107, 0.707107, -122.74, 361.678);">11</text><text x="398.0713083182437" text-anchor="end" transform="translate(0,0) rotate(-45 398.0713083182437 329)" y="329" opacity="1" stroke-width="0px" style="transform:matrix(0.707107, -0.707107, 0.707107, 0.707107, -116.046, 377.841);webkit-perspective-origin:391.234px 0px;webkit-transform:matrix(0.707107, -0.707107, 0.707107, 0.707107, -116.046, 377.841);">12</text><text x="420.9284511753837" text-anchor="end" transform="translate(0,0) rotate(-45 420.9284511753837 329)" y="329" opacity="1" stroke-width="0px" style="transform:matrix(0.707107, -0.707107, 0.707107, 0.707107, -109.351, 394.003);webkit-perspective-origin:414.172px 0px;webkit-transform:matrix(0.707107, -0.707107, 0.707107, 0.707107, -109.351, 394.003);">13</text><text x="443.7855940325237" text-anchor="end" transform="translate(0,0) rotate(-45 443.7855940325237 329)" y="329" opacity="1" stroke-width="0px" style="transform:matrix(0.707107, -0.707107, 0.707107, 0.707107, -102.656, 410.166);webkit-perspective-origin:437.031px 0px;webkit-transform:matrix(0.707107, -0.707107, 0.707107, 0.707107, -102.656, 410.166);">14</text><text x="466.6427368896737" text-anchor="end" transform="translate(0,0) rotate(-45 466.6427368896737 329)" y="329" opacity="1" stroke-width="0px" style="transform:matrix(0.707107, -0.707107, 0.707107, 0.707107, -95.9616, 426.328);webkit-perspective-origin:459.813px 0px;webkit-transform:matrix(0.707107, -0.707107, 0.707107, 0.707107, -95.9616, 426.328);">15</text><text x="489.4998797468137" text-anchor="end" transform="translate(0,0) rotate(-45 489.4998797468137 329)" y="329" opacity="1" stroke-width="0px" style="transform:matrix(0.707107, -0.707107, 0.707107, 0.707107, -89.2669, 442.491);webkit-perspective-origin:482.734px 0px;webkit-transform:matrix(0.707107, -0.707107, 0.707107, 0.707107, -89.2669, 442.491);">16</text><text x="512.3570226039536" text-anchor="end" transform="translate(0,0) rotate(-45 512.3570226039536 329)" y="329" opacity="1" stroke-width="0px" style="transform:matrix(0.707107, -0.707107, 0.707107, 0.707107, -82.5722, 458.653);webkit-perspective-origin:505.594px 0px;webkit-transform:matrix(0.707107, -0.707107, 0.707107, 0.707107, -82.5722, 458.653);">17</text><text x="535.2141654610938" text-anchor="end" transform="translate(0,0) rotate(-45 535.2141654610938 329)" y="329" opacity="1" stroke-width="0px" style="transform:matrix(0.707107, -0.707107, 0.707107, 0.707107, -75.8775, 474.815);webkit-perspective-origin:528.453px 0px;webkit-transform:matrix(0.707107, -0.707107, 0.707107, 0.707107, -75.8775, 474.815);">18</text><text x="558.0713083182437" text-anchor="end" transform="translate(0,0) rotate(-45 558.0713083182437 329)" y="329" opacity="1" stroke-width="0px" style="transform:matrix(0.707107, -0.707107, 0.707107, 0.707107, -69.1828, 490.978);webkit-perspective-origin:551.313px 0px;webkit-transform:matrix(0.707107, -0.707107, 0.707107, 0.707107, -69.1828, 490.978);">19</text><text x="580.9284511753837" text-anchor="end" transform="translate(0,0) rotate(-45 580.9284511753837 329)" y="329" opacity="1" stroke-width="0px" style="transform:matrix(0.707107, -0.707107, 0.707107, 0.707107, -62.4881, 507.14);webkit-perspective-origin:574.172px 0px;webkit-transform:matrix(0.707107, -0.707107, 0.707107, 0.707107, -62.4881, 507.14);">20</text></g><g class="highcharts-axis-labels highcharts-yaxis-labels highcharts-color-1" fill="rgb(67, 67, 72)" stroke="rgb(67, 67, 72)" style="cursor:default;font-size:10.8px;"><text x="95" text-anchor="end" transform="translate(0,0)" y="316" opacity="1" stroke-width="0px" style="transform:matrix(1, 0, 0, 1, 0, 0);webkit-perspective-origin:52.6719px 0px;webkit-transform:matrix(1, 0, 0, 1, 0, 0);">-$3,000,000.00</text><text x="95" text-anchor="end" transform="translate(0,0)" y="253" opacity="1" stroke-width="0px" style="transform:matrix(1, 0, 0, 1, 0, 0);webkit-perspective-origin:52.6719px 0px;webkit-transform:matrix(1, 0, 0, 1, 0, 0);">-$2,000,000.00</text><text x="95" text-anchor="end" transform="translate(0,0)" y="191" opacity="1" stroke-width="0px" style="transform:matrix(1, 0, 0, 1, 0, 0);webkit-perspective-origin:52.6719px 0px;webkit-transform:matrix(1, 0, 0, 1, 0, 0);">-$1,000,000.00</text><text x="95" text-anchor="end" transform="translate(0,0)" y="129" opacity="1" stroke-width="0px" style="transform:matrix(1, 0, 0, 1, 0, 0);webkit-perspective-origin:79.7031px 0px;webkit-transform:matrix(1, 0, 0, 1, 0, 0);">$0.00</text><text x="95" text-anchor="end" transform="translate(0,0)" y="67" opacity="1" stroke-width="0px" style="transform:matrix(1, 0, 0, 1, 0, 0);webkit-perspective-origin:55.7969px 0px;webkit-transform:matrix(1, 0, 0, 1, 0, 0);">$1,000,000.00</text></g><g class="highcharts-axis-labels highcharts-yaxis-labels highcharts-color-1" fill="rgb(67, 67, 72)" stroke="rgb(67, 67, 72)" style="cursor:default;font-size:10.8px;"></g><g class="highcharts-axis-labels highcharts-yaxis-labels highcharts-color-2" fill="rgb(144, 237, 125)" stroke="rgb(144, 237, 125)" style="cursor:default;font-size:10.8px;"></g><g class="highcharts-axis-labels highcharts-yaxis-labels highcharts-color-3" fill="rgb(247, 163, 92)" stroke="rgb(247, 163, 92)" style="cursor:default;font-size:10.8px;"></g></svg>